<?xml version="1.0" standalone="no"?>
<!DOCTYPE svg PUBLIC "-//W3C//DTD SVG 1.1//EN" "http://www.w3.org/Graphics/SVG/1.1/DTD/svg11.dtd" >
<svg xmlns="http://www.w3.org/2000/svg">
<defs>
<font id="FuturaSCTOT-Dem" horiz-adv-x="1161" >
<font-face  font-family="FuturaSCTOTDem" font-weight="600" font-stretch="normal" units-per-em="2048" panose-1="4 0 7 0 0 0 0 0 0 0" ascent="1638" descent="-410" x-height="1008" cap-height="1366" bbox="-313 -512 2333 1896" underline-thickness="239" underline-position="24" unicode-range="U+0020-U+FB02"/>
<missing-glyph horiz-adv-x="512" />
<glyph glyph-name="fi" unicode="&#xfb01;" horiz-adv-x="1218" d="M725 803h-346v-176h328v-205h-328v-422h-242v1008h588v-205zM1083 1008v-1008h-241v1008h241z" />
<glyph glyph-name="fl" unicode="&#xfb02;" horiz-adv-x="1402" d="M725 803h-346v-176h328v-205h-328v-422h-242v1008h588v-205zM1083 1008v-803h293v-205h-534v1008h241z" />
<glyph glyph-name=".notdef" horiz-adv-x="512" />
<glyph glyph-name=".null" horiz-adv-x="0" />
<glyph glyph-name="nonmarkingreturn" horiz-adv-x="682" />
<glyph glyph-name="space" unicode=" "  horiz-adv-x="512" />
<glyph glyph-bame="tab" unicode="&#x09;" horiz-adv-x="512" />
<glyph glyph-bame="uni00A0" unicode="&#xa0;" horiz-adv-x="512" />
<glyph glyph-name="exclam" unicode="!" horiz-adv-x="512" d="M256 295q68 0 115 -47t47 -113q0 -68 -47 -115t-113 -47q-68 0 -115 47.5t-47 114.5q0 66 47 113t113 47zM129 391v975h256v-975h-256z" />
<glyph glyph-name="quotedbl" unicode="&#x22;" horiz-adv-x="804" d="M121 803l-39 563h258l-39 -563h-180zM502 803l-37 563h258l-39 -563h-182z" />
<glyph glyph-name="numbersign" unicode="#" horiz-adv-x="1116" d="M1094 993v-192h-213l-27 -209h190v-193h-215l-51 -419l-192 26l49 393h-217l-53 -419l-195 26l49 395h-194v191h221l26 209h-198v192h221l49 393l193 -26l-45 -367h215l49 393l192 -26l-47 -367h193zM682 801h-215l-27 -209h217z" />
<glyph glyph-name="dollar" unicode="$" d="M664 1559v-197q184 -20 315 -152l-135 -174q-98 111 -221 111q-72 0 -122 -42t-50 -99q0 -70 81 -121q29 -18 142 -64q176 -74 246 -139q104 -94 104 -258q0 -158 -95 -269.5t-265 -150.5v-207h-127v199q-279 12 -441 248l152 157q133 -180 307 -180q86 0 144.5 52.5 t58.5 127.5q0 66 -40 105t-151 86q-201 84 -260 135q-113 94 -112 256q0 96 47 183t129 139q66 41 166 57v197h127z" />
<glyph glyph-name="percent" unicode="%" horiz-adv-x="1587" d="M409.5 1382q149.5 0 248 -91t98.5 -230q0 -141 -99.5 -233.5t-250.5 -92.5q-150 0 -247.5 92.5t-97.5 235.5q0 137 99.5 228t249 91zM408 1235q-72 0 -124.5 -51t-52.5 -123q0 -76 52.5 -128t126.5 -52q72 0 124 52t52 126q0 72 -52 124t-126 52zM1145 1411l108 -61 l-813 -1407l-108 63zM1182 625q147 0 245.5 -92.5t98.5 -229.5q0 -139 -99.5 -231t-249 -92t-246.5 92t-97 235q0 135 99 226.5t249 91.5zM1180 479q-72 0 -124 -51t-52 -123q0 -76 51 -128t125 -52q72 0 124 52t52 126q0 72 -51 124t-125 52z" />
<glyph glyph-name="ampersand" unicode="&#x26;" horiz-adv-x="1454" d="M791 733l225 -258q109 109 168 189l157 -154q-55 -74 -178 -197l277 -313h-330l-135 154q-225 -184 -436 -185q-186 0 -308 110.5t-122 280.5q0 139 92 248q35 39 59.5 57.5t136.5 84.5q12 6 37 22q-76 84 -107.5 149.5t-31.5 137.5q0 147 105.5 242.5t269.5 95.5 q160 0 265 -94.5t105 -235.5q1 -189 -249 -334zM827 322l-258 296q-111 -74 -151.5 -121.5t-40.5 -103.5q0 -76 60.5 -132t142.5 -56q104 0 247 117zM664 874q88 59 121.5 102.5t33.5 94.5q0 59 -39 97t-100 38q-57 0 -96 -36.5t-39 -92.5q0 -41 20.5 -76t98.5 -127z" />
<glyph glyph-name="quotesingle" unicode="'" horiz-adv-x="421" d="M121 803l-39 563h258l-39 -563h-180z" />
<glyph glyph-name="parenleft" unicode="(" horiz-adv-x="653" d="M340 1569l199 -109q-166 -354 -166 -848q0 -242 44 -469t122 -383l-199 -108q-88 168 -129 348q-74 307 -74 621q0 561 203 948z" />
<glyph glyph-name="parenright" unicode=")" horiz-adv-x="653" d="M315 -348l-198 108q166 356 166 848q0 240 -44 467.5t-122 384.5l198 109q88 -168 129 -348q74 -307 74 -621q0 -561 -203 -948z" />
<glyph glyph-name="asterisk" unicode="*" d="M528 1274l-43 260h189l-43 -260l233 121l60 -181l-260 -38l186 -185l-152 -112l-118 235l-119 -235l-154 110l189 185l-260 40l59 181z" />
<glyph glyph-name="plus" unicode="+" d="M123 764h375v377h164v-377h376v-164h-376v-375h-164v375h-375v164z" />
<glyph glyph-name="comma" unicode="," horiz-adv-x="512" d="M227 283l228 -27l-289 -543l-158 19z" />
<glyph glyph-name="hyphen" unicode="-" horiz-adv-x="460" d="M0 573h461v-206h-461v206z" />
<glyph glyph-name="period" unicode="." horiz-adv-x="512" d="M256 295q68 0 115 -47t47 -113q0 -68 -47 -115t-113 -47q-68 0 -115 47.5t-47 114.5q0 66 47 113t113 47z" />
<glyph glyph-name="slash" unicode="/" horiz-adv-x="952" d="M713 1569l172 -68l-774 -1849l-170 67z" />
<glyph glyph-name="zero" unicode="0" horiz-adv-x="1222" d="M614 1030q225 0 380 -152.5t155 -373.5q0 -223 -155.5 -375t-385.5 -152q-225 0 -378.5 154t-153.5 379q0 215 157.5 367.5t380.5 152.5zM612 811q-121 0 -209 -89t-88 -214q0 -131 86 -221t211 -90q123 0 210 90t87 217t-87 217t-210 90z" />
<glyph glyph-name="one" unicode="1" horiz-adv-x="671" d="M264 803h-196v205h438v-1008h-242v803z" />
<glyph glyph-name="two" unicode="2" horiz-adv-x="1067" d="M600 205h397v-205h-991l516 389q113 84 152 136.5t39 115.5q0 74 -54.5 122t-136.5 48q-102 0 -159.5 -58.5t-61.5 -168.5h-242q14 211 137 328.5t330 117.5q188 0 307 -106.5t119 -274.5q0 -147 -121 -262q-67 -61 -231 -182z" />
<glyph glyph-name="three" unicode="3" horiz-adv-x="1058" d="M477 268v187q12 -2 35 -2q90 0 146.5 52t56.5 134q0 78 -51.5 125t-135.5 47q-172 0 -192 -168h-242q57 387 453 387q180 0 287 -92q121 -109 120 -279q0 -106 -41 -174.5t-135 -113.5q213 -92 213 -336q0 -193 -128 -311.5t-333 -118.5q-303 0 -426 231q-43 80 -49 195 h240q12 -98 71.5 -152.5t155.5 -54.5t162 65.5t66 161.5q0 68 -36 123t-93 76q-50 18 -144 18z" />
<glyph glyph-name="four" unicode="4" horiz-adv-x="1118" d="M924 205h168v-205h-168v-358h-242v358h-668v119l676 913h234v-827zM682 205v457l-344 -457h344z" />
<glyph glyph-name="five" unicode="5" horiz-adv-x="999" d="M909 803h-450l-53 -240q57 8 92 8q199 0 322.5 -129t123.5 -333q0 -225 -144.5 -363.5t-381.5 -138.5q-250 0 -418 180l88 229q78 -102 153.5 -146t176.5 -44q131 0 209 73.5t78 196.5q0 127 -83 205t-219 78q-150 0 -272 -88h-14l162 717h630v-205z" />
<glyph glyph-name="six" unicode="6" horiz-adv-x="1144" d="M829 1294l-323 -415q90 33 160 32q174 0 292.5 -130t118.5 -320q0 -213 -140 -348.5t-363.5 -135.5t-364.5 131.5t-141 337.5q0 201 172 435l409 549zM575 711q-109 0 -186.5 -75t-77.5 -181q0 -109 76 -182.5t188 -73.5q109 0 185 73.5t76 180.5q0 109 -75 183.5 t-186 74.5z" />
<glyph glyph-name="seven" unicode="7" horiz-adv-x="964" d="M596 803h-578v205h947l-762 -1389l-189 111z" />
<glyph glyph-name="eight" unicode="8" horiz-adv-x="1071" d="M305 727q-190 98 -190 303q0 166 120.5 275.5t303.5 109.5q184 0 301.5 -108.5t117.5 -278.5q0 -203 -194 -301q240 -94 240 -336q0 -180 -130.5 -297t-332.5 -117q-205 0 -339 116t-134 292q0 158 100 258q47 47 137 84zM536.5 1221q-75.5 0 -129 -56.5t-53.5 -134.5 q0 -82 52.5 -137t130.5 -55q76 0 129 55t53 135t-53.5 136.5t-129 56.5zM535 618q-94 0 -161 -62t-67 -148q0 -92 66.5 -156t163.5 -64q94 0 160.5 63.5t66.5 154t-66.5 151.5t-162.5 61z" />
<glyph glyph-name="nine" unicode="9" horiz-adv-x="1144" d="M315 -287l324 416q-88 -35 -160 -35q-174 0 -292.5 130t-118.5 321q0 215 140 350t363.5 135t364.5 -131t141 -338t-172 -434l-411 -549zM569 809q-109 0 -184.5 -73.5t-75.5 -180.5q0 -111 75 -185.5t185 -74.5q109 0 187 74.5t78 181.5q0 109 -76 183.5t-189 74.5z" />
<glyph glyph-name="colon" unicode=":" horiz-adv-x="512" d="M256 295q68 0 115 -47t47 -113q0 -68 -47 -115t-113 -47q-68 0 -115 47.5t-47 114.5q0 66 47 113t113 47zM256 918q68 0 115 -47.5t47 -112.5q0 -68 -47 -115t-113 -47q-68 0 -115 47t-47 115q0 66 47 113t113 47z" />
<glyph glyph-name="semicolon" unicode=";" horiz-adv-x="512" d="M215 283l227 -27l-288 -543l-158 19zM319 915q68 0 115 -47t47 -112q0 -68 -47 -115t-112 -47q-68 0 -115 47t-47 115q0 66 46.5 112.5t112.5 46.5z" />
<glyph glyph-name="less" unicode="&#x3c;" horiz-adv-x="1024" d="M954 1247v-262l-606 -301l604 -303l2 -262l-886 454v224z" />
<glyph glyph-name="equal" unicode="=" d="M123 920h915v-164h-915v164zM123 608h915v-164h-915v164z" />
<glyph glyph-name="greater" unicode="&#x3e;" horiz-adv-x="1024" d="M68 119v264l606 301l-604 301l-2 262l886 -452v-224z" />
<glyph glyph-name="question" unicode="?" horiz-adv-x="1001" d="M328 457v358q53 -6 71 -6q113 0 184.5 57.5t71.5 147.5q0 68 -45 112.5t-112 44.5q-61 0 -103.5 -42t-42.5 -103q0 -14 2 -25h-264q-2 12 -2 27q0 152 122 258.5t296 106.5t293 -112t119 -273q0 -139 -88.5 -238.5t-249.5 -138.5v-174h-252zM457 295q68 0 114.5 -47 t46.5 -113q0 -68 -47 -115t-112 -47q-68 0 -115 47.5t-47 114.5q0 66 47 113t113 47z" />
<glyph glyph-name="at" unicode="@" horiz-adv-x="1564" d="M1174 1040l-56 -465q-6 -49 -6 -94q0 -53 35 -53q72 0 131 106.5t59 233.5q0 211 -147.5 346t-374.5 135q-238 0 -400.5 -162.5t-162.5 -402.5q0 -154 71.5 -283t198.5 -200q125 -74 309 -74q211 0 418 100l33 17l59 -150q-143 -70 -253.5 -97.5t-253.5 -27.5 q-233 0 -408 97q-164 94 -258 258.5t-94 357.5q0 303 213 509t526 206q291 0 484.5 -177.5t193.5 -443.5q0 -203 -107.5 -352.5t-255.5 -149.5q-115 0 -157 105q-100 -109 -234 -109q-145 0 -241.5 109.5t-96.5 275.5q0 172 106.5 287t266.5 115q152 0 221 -86l8 69h173z M784 879q-84 0 -138 -64.5t-54 -167.5q0 -88 43 -144.5t113 -56.5q88 0 155.5 76t67.5 174q0 78 -52.5 130.5t-134.5 52.5z" />
<glyph glyph-name="A" unicode="A" horiz-adv-x="1372" d="M967 289h-559l-123 -289h-283l592 1395h201l573 -1395h-285zM883 504l-191 491l-198 -491h389z" />
<glyph glyph-name="B" unicode="B" horiz-adv-x="1167" d="M158 0v1366h338q231 0 333 -82q123 -96 123 -278q0 -113 -51 -195q-29 -39 -98 -82q123 -27 178 -86q98 -98 98 -258q0 -172 -121 -281q-117 -104 -340 -104h-460zM424 797h76q207 0 207 178q0 176 -203 176h-80v-354zM424 215h115q266 0 266 188q0 104 -80 152 q-59 39 -201 39h-100v-379z" />
<glyph glyph-name="C" unicode="C" horiz-adv-x="1232" d="M1143 1313v-314q-156 154 -334 154q-188 0 -317.5 -137t-129.5 -338q0 -199 129.5 -332t323.5 -133q96 0 171 34t157 115v-313q-172 -80 -334 -80q-303 0 -512 205t-209 502q0 299 211 510t510 211q166 0 334 -84z" />
<glyph glyph-name="D" unicode="D" horiz-adv-x="1370" d="M158 0v1366h391q299 0 489 -158q115 -94 179.5 -232t64.5 -292q0 -152 -65.5 -291t-182.5 -235q-186 -158 -487 -158h-389zM424 231h72q244 0 364 109q70 61 109 153.5t39 190.5q0 209 -148 340q-123 111 -364 111h-72v-904z" />
<glyph glyph-name="E" unicode="E" horiz-adv-x="1013" d="M913 1135h-489v-304h471v-231h-471v-369h489v-231h-755v1366h755v-231z" />
<glyph glyph-name="F" unicode="F" horiz-adv-x="956" d="M881 1135h-457v-304h428v-231h-428v-600h-266v1366h723v-231z" />
<glyph glyph-name="G" unicode="G" horiz-adv-x="1560" d="M846 731h624q-2 -158 -18 -249t-59 -173q-88 -164 -238.5 -252t-349.5 -88q-311 0 -514 200t-203 507q0 313 205 517t520 204q389 0 586 -322l-234 -125q-123 203 -354 203q-193 0 -321 -135t-128 -342q0 -201 127 -333t320 -132q145 0 244.5 79t113.5 210h-321v231z" />
<glyph glyph-name="H" unicode="H" horiz-adv-x="1423" d="M424 838h577v528h267v-1366h-267v606h-577v-606h-266v1366h266v-528z" />
<glyph glyph-name="I" unicode="I" horiz-adv-x="579" d="M424 1366v-1366h-266v1366h266z" />
<glyph glyph-name="J" unicode="J" horiz-adv-x="798" d="M641 1366v-922q0 -276 -129 -387q-100 -90 -248 -90q-182 0 -319 129l159 195q53 -78 134 -78q92 0 120 86q16 51 17 188v879h266z" />
<glyph glyph-name="K" unicode="K" horiz-adv-x="1304" d="M424 788l502 578h336l-578 -631l608 -735h-350l-485 614l-33 -32v-582h-266v1366h266v-578z" />
<glyph glyph-name="L" unicode="L" horiz-adv-x="870" d="M424 1366v-1135h420v-231h-686v1366h266z" />
<glyph glyph-name="M" unicode="M" horiz-adv-x="1777" d="M84 0l254 1391h182l373 -893l387 893h184l228 -1391h-269l-123 842l-374 -860h-74l-363 860l-137 -842h-268z" />
<glyph glyph-name="N" unicode="N" horiz-adv-x="1595" d="M158 0v1397h184l832 -951v920h266v-1393h-185l-831 951v-924h-266z" />
<glyph glyph-name="O" unicode="O" horiz-adv-x="1636" d="M821 1397q305 0 516 -207t211 -508q0 -303 -213 -508t-524 -205q-307 0 -515 208t-208 515q0 293 215 499t518 206zM817 1153q-186 0 -320.5 -137t-134.5 -328q0 -199 133.5 -337t323.5 -138q188 0 321.5 138t133.5 333t-133.5 332t-323.5 137z" />
<glyph glyph-name="P" unicode="P" horiz-adv-x="1095" d="M424 506v-506h-266v1366h399q133 0 214 -23.5t147 -80.5q139 -127 139 -330q0 -184 -111 -305q-115 -121 -350 -121h-172zM424 737h108q250 0 250 197q0 104 -69 158q-57 43 -197 43h-92v-398z" />
<glyph glyph-name="Q" unicode="Q" horiz-adv-x="1630" d="M1585 -27l-268 -26l-113 125q-170 -102 -377 -103q-313 0 -526 205t-213 508q0 301 213 508t522 207q311 0 522 -207t211 -510q0 -266 -192 -487zM1024 549l152 -154q106 119 106 287q0 199 -133 335t-327.5 136t-327 -136t-132.5 -339q0 -199 130.5 -332t322.5 -133 q115 0 197 55l-264 258z" />
<glyph glyph-name="R" unicode="R" horiz-adv-x="1177" d="M725 575l430 -575h-328l-368 549h-35v-549h-266v1366h395q233 0 348 -96q135 -113 135 -307q0 -201 -129 -308q-73 -60 -182 -80zM424 737h78q127 0 193.5 54.5t66.5 154.5q0 205 -256 205h-82v-414z" />
<glyph glyph-name="S" unicode="S" horiz-adv-x="1089" d="M965 1237l-140 -182q-98 111 -221 110q-82 0 -137 -44t-55 -107q0 -55 43 -91t163 -81q197 -72 273 -137q121 -102 121 -287q0 -201 -131 -326t-344 -125q-289 0 -469 260l172 166q96 -182 286 -182q92 0 151.5 54t59.5 138q0 88 -80 142q-49 31 -184 78 q-184 68 -260 150.5t-76 217.5q0 172 121 285t305 113q228 0 402 -152z" />
<glyph glyph-name="T" unicode="T" horiz-adv-x="907" d="M586 0h-267v1135h-305v231h879v-231h-307v-1135z" />
<glyph glyph-name="U" unicode="U" horiz-adv-x="1411" d="M424 1366v-782q0 -104 8 -151.5t35 -92.5q35 -59 99.5 -93t140 -34t140 34t99.5 93q27 45 35 92t8 152v782h266v-836q0 -231 -100 -364q-72 -92 -190.5 -144.5t-258 -52.5t-258 52.5t-190.5 144.5q-100 133 -100 364v836h266z" />
<glyph glyph-name="V" unicode="V" horiz-adv-x="1318" d="M293 1366l364 -917l369 917h289l-590 -1401h-143l-580 1401h291z" />
<glyph glyph-name="W" unicode="W" horiz-adv-x="1998" d="M283 1366l307 -930l334 942h145l317 -942l328 930h281l-514 -1393h-187l-303 893l-319 -893h-187l-483 1393h281z" />
<glyph glyph-name="X" unicode="X" horiz-adv-x="1280" d="M498 723l-408 643h320l241 -424l252 424h320l-420 -643l465 -723h-314l-307 500l-317 -500h-316z" />
<glyph glyph-name="Y" unicode="Y" horiz-adv-x="1193" d="M461 627l-471 739h315l295 -475l289 475h317l-479 -739v-627h-266v627z" />
<glyph glyph-name="Z" unicode="Z" horiz-adv-x="1196" d="M485 231h629v-231h-1071l668 1135h-564v231h1004z" />
<glyph glyph-name="bracketleft" unicode="[" horiz-adv-x="710" d="M418 1315v-1424h184v-219h-424v1862h424v-219h-184z" />
<glyph glyph-name="backslash" unicode="\" horiz-adv-x="952" d="M240 1569l772 -1850l-172 -67l-772 1849z" />
<glyph glyph-name="bracketright" unicode="]" horiz-adv-x="710" d="M295 -109v1424h-186v219h426v-1862h-426v219h186z" />
<glyph glyph-name="asciicircum" unicode="^" horiz-adv-x="1024" d="M289 684h-279l328 690h350l328 -690h-279l-223 477z" />
<glyph glyph-name="underscore" unicode="_" horiz-adv-x="1024" d="M0 -94h1024v-240h-1024v240z" />
<glyph glyph-name="grave" unicode="`" horiz-adv-x="565" d="M68 1294l161 133l267 -260l-103 -94z" />
<glyph glyph-name="a" unicode="a" horiz-adv-x="1050" d="M324 174l-72 -174h-246l436 1028h179l423 -1028h-247l-70 174h-403zM403 373h246l-121 311z" />
<glyph glyph-name="b" unicode="b" horiz-adv-x="937" d="M137 0v1008h297l62 2q133 0 212.5 -71t79.5 -189q0 -156 -108 -203q190 -68 190 -254q0 -129 -94 -213q-92 -80 -256 -80h-383zM373 600h57q72 0 104.5 25.5t32.5 83.5q0 104 -133 104h-61v-213zM373 195h123q135 0 135 116q0 113 -146 113h-112v-229z" />
<glyph glyph-name="c" unicode="c" horiz-adv-x="968" d="M866 973v-299q-92 137 -248 137q-123 0 -209.5 -90t-86.5 -217t87 -217t209 -90q156 0 248 137v-299q-115 -57 -248 -58q-227 0 -381.5 152t-154.5 373q0 223 155.5 375.5t383.5 152.5q130 0 245 -57z" />
<glyph glyph-name="d" unicode="d" horiz-adv-x="1058" d="M137 0v1008h299q219 0 361 -117q84 -70 132 -171.5t48 -213.5q0 -238 -182 -391q-141 -115 -359 -115h-299zM379 205h29q164 0 241 71q94 88 94 228q0 141 -96 227q-80 72 -239 72h-29v-598z" />
<glyph glyph-name="e" unicode="e" horiz-adv-x="864" d="M748 803h-369v-176h356v-205h-356v-217h369v-205h-611v1008h611v-205z" />
<glyph glyph-name="f" unicode="f" horiz-adv-x="813" d="M725 803h-346v-176h328v-205h-328v-422h-242v1008h588v-205z" />
<glyph glyph-name="g" unicode="g" horiz-adv-x="1198" d="M1077 768l-203 -115q-84 158 -253 158q-129 0 -214 -89t-85 -222q0 -131 85 -217t218 -86q90 0 150.5 44t76.5 121h-242v205h506v-51q0 -211 -92 -340q-141 -199 -408 -199q-231 0 -382.5 148.5t-151.5 374.5q0 229 153.5 379.5t387.5 150.5q150 0 272.5 -70.5 t181.5 -191.5z" />
<glyph glyph-name="h" unicode="h" horiz-adv-x="1103" d="M379 627h346v381h242v-1008h-242v422h-346v-422h-242v1008h242v-381z" />
<glyph glyph-name="i" unicode="i" horiz-adv-x="516" d="M379 1008v-1008h-242v1008h242z" />
<glyph glyph-name="j" unicode="j" horiz-adv-x="669" d="M539 1008v-670q0 -104 -13.5 -160.5t-48.5 -101.5q-76 -98 -225 -99q-84 0 -144.5 27t-121.5 90l135 164q51 -61 100 -61q41 0 57.5 30.5t16.5 104.5v676h244z" />
<glyph glyph-name="k" unicode="k" horiz-adv-x="1021" d="M428 383l-49 -55v-328h-242v1008h242v-398l330 398h274l-410 -461l443 -547h-283z" />
<glyph glyph-name="l" unicode="l" horiz-adv-x="698" d="M379 1008v-803h293v-205h-535v1008h242z" />
<glyph glyph-name="m" unicode="m" horiz-adv-x="1323" d="M68 0l186 1026h158l254 -639l264 639h157l166 -1026h-217l-96 563l-233 -575h-91l-229 569l-102 -557h-217z" />
<glyph glyph-name="n" unicode="n" horiz-adv-x="1222" d="M137 0v1030h176l533 -641v619h241v-1026h-176l-532 641v-623h-242z" />
<glyph glyph-name="o" unicode="o" horiz-adv-x="1236" d="M621 1030q225 0 379.5 -152.5t154.5 -373.5q0 -223 -155.5 -375t-385.5 -152q-225 0 -378.5 154t-153.5 379q0 215 158 367.5t381 152.5zM618 811q-121 0 -208.5 -89t-87.5 -214q0 -131 86 -221t210 -90q123 0 210 90t87 217t-87 217t-210 90z" />
<glyph glyph-name="p" unicode="p" horiz-adv-x="901" d="M379 352v-352h-242v1008h332q178 0 270 -80q106 -94 107 -250q0 -141 -86 -233.5t-262 -92.5h-119zM379 557h82q145 0 145 121q0 68 -35.5 96.5t-119.5 28.5h-72v-246z" />
<glyph glyph-name="q" unicode="q" horiz-adv-x="1245" d="M1036 172l181 -184l-248 -25l-82 82q-125 -68 -271 -68q-225 0 -379.5 152t-154.5 373q0 223 155.5 375.5t383.5 152.5q223 0 378.5 -152.5t155.5 -371.5q0 -193 -119 -334zM772 440l98 -100q45 82 45 164q0 127 -87 217t-209.5 90t-209.5 -90t-87 -217t87 -217t209 -90 q51 0 101 18l-203 205z" />
<glyph glyph-name="r" unicode="r" horiz-adv-x="958" d="M657 377l273 -377h-271l-235 352h-45v-352h-242v1008h332q178 0 270 -80q106 -94 107 -250q0 -106 -50.5 -187t-138.5 -114zM379 557h82q145 0 145 121q0 68 -35.5 96.5t-119.5 28.5h-72v-246z" />
<glyph glyph-name="s" unicode="s" horiz-adv-x="874" d="M788 893l-129 -170q-57 61 -89.5 78.5t-86 17.5t-89.5 -25.5t-36 -64.5q0 -33 27 -52.5t113 -47.5q150 -51 215 -101q100 -72 100 -211q0 -150 -104.5 -245t-270.5 -95q-223 0 -362 193l-15 20l162 158q37 -66 56 -86q61 -66 155 -65q61 0 100 31.5t39 82.5 q0 49 -33.5 75t-138.5 56q-152 47 -217 111.5t-65 167.5q0 129 97 216t243 87q96 0 170.5 -29.5t158.5 -101.5z" />
<glyph glyph-name="t" unicode="t" horiz-adv-x="724" d="M483 0h-241v803h-213v205h669v-205h-215v-803z" />
<glyph glyph-name="u" unicode="u" horiz-adv-x="1081" d="M371 1008v-582q0 -113 26 -156q43 -74 144 -73q98 0 141 73q27 43 27 156v582h241v-611q0 -174 -76 -270q-111 -150 -333 -150q-225 0 -336 150q-76 96 -76 270v611h242z" />
<glyph glyph-name="v" unicode="v" horiz-adv-x="1005" d="M254 1008l248 -646l248 646h251l-434 -1033h-137l-428 1033h252z" />
<glyph glyph-name="w" unicode="w" horiz-adv-x="1482" d="M256 1008l201 -641l217 651h129l207 -651l215 641h250l-379 -1026h-164l-199 598l-207 -598h-164l-356 1026h250z" />
<glyph glyph-name="x" unicode="x" horiz-adv-x="954" d="M483 731l174 277h265l-320 -467l352 -541h-260l-215 350l-217 -350h-260l356 539l-301 469h262z" />
<glyph glyph-name="y" unicode="y" horiz-adv-x="952" d="M350 455l-350 553h258l217 -355l213 355h262l-358 -553v-455h-242v455z" />
<glyph glyph-name="z" unicode="z" horiz-adv-x="925" d="M410 205h442v-205h-825l491 803h-397v205h778z" />
<glyph glyph-name="braceleft" unicode="{" horiz-adv-x="647" d="M403 1159v-315q0 -100 -25.5 -150.5t-96.5 -93.5q123 -72 122 -192v-381q0 -100 25 -131t102 -31h25v-209l-49 -2l-82 -2q-137 0 -194.5 67.5t-57.5 227.5v432q0 47 -31.5 82t-83.5 47v201q61 14 88 52t27 113v394q0 152 56.5 217t185.5 65q39 0 141 -4v-209 q-102 0 -127 -28.5t-25 -149.5z" />
<glyph glyph-name="bar" unicode="|" horiz-adv-x="1024" d="M379 1366h266v-1708h-266v1708z" />
<glyph glyph-name="braceright" unicode="}" horiz-adv-x="647" d="M244 43v315q0 100 25.5 150.5t97.5 93.5q-123 72 -123 193v381q0 104 -25.5 131.5t-126.5 29.5v209l49 2q37 2 82 2q137 0 194.5 -67.5t57.5 -227.5v-432q0 -45 31 -79.5t84 -47.5v-202q-61 -14 -88 -52.5t-27 -113.5v-391q0 -152 -56.5 -218.5t-185.5 -66.5 q-39 0 -141 4v209h25q92 0 116 53q11 25 11 125z" />
<glyph glyph-name="asciitilde" unicode="~" horiz-adv-x="1366" d="M330 1147l-146 96q4 6 9.5 18.5t7.5 16.5q39 88 65.5 128t67.5 73q68 49 162 49q68 0 211 -53q131 -49 178 -50q49 0 79.5 21.5t65.5 85.5l152 -88q-47 -98 -80 -143.5t-78 -77.5q-82 -53 -168 -54q-57 0 -211 58q-125 45 -166 45q-53 0 -94 -37q-20 -20 -55 -88z" />
<glyph glyph-name="exclamdown" unicode="&#xa1;" horiz-adv-x="512" d="M256 1065q68 0 115 -47t47 -113q0 -68 -47 -115t-113 -47q-68 0 -115 47.5t-47 116.5q0 63 47 110.5t113 47.5zM129 645h256v-973h-256v973z" />
<glyph glyph-name="cent" unicode="&#xa2;" d="M745 1309v-162q90 -8 162 -41v-254q-92 90 -194 90q-106 0 -177 -73.5t-71 -186.5q0 -109 69.5 -181.5t174.5 -72.5q117 0 198 90v-254q-94 -37 -162 -41v-172h-129v168q-184 23 -300.5 153t-116.5 310q0 129 58 234.5t165 170.5q76 47 194 66v156h129z" />
<glyph glyph-name="sterling" unicode="&#xa3;" d="M100 483v187h131q-80 147 -79 276q0 84 36.5 169t100.5 147q141 135 370 135q215 0 334 -124t123 -351l-268 -29q6 45 6 59q0 90 -60.5 149.5t-154.5 59.5t-157.5 -65.5t-63.5 -163.5q0 -94 76 -240l10 -22h305v-187h-246q6 -55 6 -77q0 -74 -24 -140q90 -29 139 -47 q113 -35 158 -35q86 0 123 109l180 -39q-43 -152 -117 -218.5t-197 -66.5q-78 0 -239 54q-162 51 -223 51q-100 0 -140 -92l-192 34q51 133 122.5 196.5t174.5 70.5q23 57 22 108q0 41 -14 92h-242z" />
<glyph glyph-name="currency" unicode="&#xa4;" horiz-adv-x="1366" d="M41 281l211 211q-90 129 -90 282q0 147 90 281l-213 213l145 145l213 -213q137 90 287 90q145 0 281 -88l211 209l143 -143l-209 -209q92 -145 92 -286.5t-88 -278.5l211 -211l-143 -146l-211 211q-133 -92 -291 -92q-141 0 -285 90l-211 -209zM686 1053q-119 0 -201 -81 t-82 -200q0 -115 82 -196.5t197 -81.5t197 81.5t82 198.5q0 115 -81 197t-194 82z" />
<glyph glyph-name="yen" unicode="&#xa5;" d="M383 743h-260v187h149l-258 436h293l273 -475l270 475h295l-262 -436h153v-187h-266l-72 -129h338v-186h-338v-428h-245v428h-330v186h330z" />
<glyph glyph-name="brokenbar" unicode="&#xa6;" horiz-adv-x="1024" d="M379 1366h266v-711h-266v711zM379 313h266v-655h-266v655z" />
<glyph glyph-name="section" unicode="&#xa7;" d="M969 1182h-248q-12 166 -143 166q-57 0 -97.5 -39t-40.5 -97q0 -55 42 -90t175 -92q193 -80 263 -153q92 -96 92 -238q0 -238 -240 -352q186 -86 186 -277q0 -154 -110.5 -256t-278.5 -102q-223 0 -329 164q-55 86 -62 225h252q2 -84 41 -131t109 -47q61 0 104 44t43 107 q0 74 -59 121q-43 31 -160 72q-113 39 -166 66.5t-94 70.5q-98 98 -98 260q0 129 62 219t171 119q-182 80 -182 277q0 150 101 240.5t269 90.5q117 0 211.5 -45t139.5 -123q41 -71 47 -200zM582 791q-74 0 -124 -51.5t-50 -127.5q0 -74 50 -126t122 -52q70 0 120 52.5 t50 126t-49 126t-119 52.5z" />
<glyph glyph-name="dieresis" unicode="&#xa8;" horiz-adv-x="747" d="M201 1374q53 0 92 -39t39 -92q0 -55 -39 -94t-92 -39q-55 0 -94 39t-39 94q0 53 39 92t94 39zM547 1376q55 0 94 -39t39 -94t-39 -94t-94 -39t-94 39t-39 96q0 53 40 92t93 39z" />
<glyph glyph-name="copyright" unicode="&#xa9;" horiz-adv-x="1556" d="M1047 1057v-223l-23 22q-92 86 -199 86q-109 0 -183.5 -75.5t-74.5 -188.5q0 -111 75 -183.5t187 -72.5q96 0 170 61l48 45v-223q-109 -51 -222 -51q-190 0 -322 123t-132 301q0 180 133 306t323 126q105 0 220 -53zM788 1397q287 0 493 -211t206 -504q0 -295 -208 -504 t-501 -209t-501.5 209t-208.5 504q0 299 208.5 507t511.5 208zM786 1268q-242 0 -409.5 -170t-167.5 -416q0 -242 167 -414t402 -172q233 0 399 172t166 414q0 240 -165 413t-392 173z" />
<glyph glyph-name="ordfeminine" unicode="&#xaa;" horiz-adv-x="694" d="M477 1350h148v-531h-148v70q-68 -88 -174 -88q-111 0 -185.5 82t-74.5 202q0 119 75 200t183 81q102 0 176 -86v70zM344.5 1233q-61.5 0 -104.5 -44t-43 -105.5t43 -105.5t104 -44q59 0 103.5 44t44.5 103q0 63 -43 107.5t-104.5 44.5zM63 741h560v-112h-560v112z" />
<glyph glyph-name="guillemotleft" unicode="&#xab;" horiz-adv-x="1050" d="M698 444l250 -329l-145 -105l-320 434l320 439l143 -101zM297 444l250 -329l-146 -105l-319 434l319 439l144 -101z" />
<glyph glyph-name="logicalnot" unicode="&#xac;" horiz-adv-x="1024" d="M688 0v307h-620v240h886v-547h-266z" />
<glyph glyph-name="registered" unicode="&#xae;" horiz-adv-x="1556" d="M872 610l271 -338h-240l-229 318v-318h-193v820h260q147 0 229.5 -65.5t82.5 -182.5q-1 -183 -181 -234zM674 727h35q147 0 147 106.5t-145 106.5h-37v-213zM788 1397q287 0 493 -211t206 -504q0 -295 -208 -504t-501 -209t-501.5 209t-208.5 504q0 299 208.5 507 t511.5 208zM786 1268q-242 0 -409.5 -170t-167.5 -416q0 -242 167 -414t402 -172q233 0 399 172t166 414q0 240 -165 413t-392 173z" />
<glyph glyph-name="macron" unicode="&#xaf;" horiz-adv-x="731" d="M68 1321h594v-164h-594v164z" />
<glyph glyph-name="degree" unicode="&#xb0;" d="M580 1393q115 0 194.5 -79t79.5 -194q0 -113 -80 -193.5t-192 -80.5q-115 0 -195 81t-80 195q0 111 81 191t192 80zM580 1255q-55 0 -95.5 -39.5t-40.5 -95.5q0 -57 40 -97t98 -40q55 0 95 40t40 97q0 55 -40 95t-97 40z" />
<glyph glyph-name="plusminus" unicode="&#xb1;" d="M123 764h375v377h164v-377h376v-164h-376v-360h-164v360h-375v164zM123 123h915v-164h-915v164z" />
<glyph glyph-name="uni00B2" unicode="&#xb2;" horiz-adv-x="792" d="M383 696h283v-149h-609l248 280q180 207 180 295q0 49 -34.5 85t-81.5 36t-78 -36t-31 -91v-14h-182q10 135 87 213t204 78q125 0 207.5 -77t82.5 -194q0 -133 -147 -288z" />
<glyph glyph-name="uni00B3" unicode="&#xb3;" horiz-adv-x="792" d="M340 913v129q10 -2 29 -2q47 0 75.5 28t28.5 75q0 45 -28.5 72.5t-73.5 27.5q-88 0 -103 -102h-162q35 248 275 248q113 0 183.5 -64.5t70.5 -167.5q0 -113 -86 -174q117 -51 117 -201q0 -115 -82 -188.5t-211 -73.5q-125 0 -209 75t-90 193h172q12 -119 129 -118 q53 0 89 34.5t36 88t-35 88t-86 34.5z" />
<glyph glyph-name="acute" unicode="&#xb4;" horiz-adv-x="565" d="M496 1294l-324 -221l-104 94l266 260z" />
<glyph glyph-name="uni00B5" unicode="&#xb5;" horiz-adv-x="1095" d="M367 -473h-248v1360h248v-506q0 -199 182 -199q180 0 180 203v502h248v-545q0 -166 -94 -258q-117 -113 -326 -113q-115 0 -211 39z" />
<glyph glyph-name="paragraph" unicode="&#xb6;" d="M342 -188v880h-23q-137 0 -221 91t-84 239q0 211 154 295q92 49 258 49h686v-231h-149v-1323h-226v1323h-170v-1323h-225z" />
<glyph glyph-name="periodcentered" unicode="&#xb7;" horiz-adv-x="512" d="M256 618q68 0 115 -47t47 -112q0 -68 -47 -115t-113 -47q-68 0 -115 47t-47 115q0 66 47 112.5t113 46.5z" />
<glyph glyph-name="cedilla" unicode="&#xb8;" horiz-adv-x="497" d="M428 -131l-235 -256l-125 72l200 272z" />
<glyph glyph-name="uni00B9" unicode="&#xb9;" horiz-adv-x="792" d="M317 1217h-118v149h290v-819h-172v670z" />
<glyph glyph-name="ordmasculine" unicode="&#xba;" horiz-adv-x="690" d="M346 1368q133 0 217 -79t84 -204q0 -127 -85 -205.5t-220 -78.5q-133 0 -216 80t-83 209q0 121 86 199.5t217 78.5zM344 1233q-59 0 -103 -44t-44 -104q0 -61 43 -105t106 -44q61 0 104.5 44t43.5 105.5t-43.5 104.5t-106.5 43zM74 741h561v-112h-561v112z" />
<glyph glyph-name="guillemotright" unicode="&#xbb;" horiz-adv-x="1050" d="M354 444l-250 338l144 101l319 -439l-319 -434l-146 105zM754 444l-248 338l143 101l320 -439l-320 -434l-145 105z" />
<glyph glyph-name="onequarter" unicode="&#xbc;" horiz-adv-x="1861" d="M307 1217h-119v149h291v-819h-172v670zM1272 1411l108 -61l-813 -1407l-108 63zM1696 283h96v-142h-96v-141h-160v141h-397v76l405 617h152v-551zM1536 283v290l-188 -290h188z" />
<glyph glyph-name="onehalf" unicode="&#xbd;" horiz-adv-x="1826" d="M307 1217h-119v149h291v-819h-172v670zM1272 1411l108 -61l-813 -1407l-108 63zM1432 150h282v-150h-608l248 281q180 207 180 292q0 49 -35 85t-82 36t-77.5 -34.5t-30.5 -90.5v-14h-183q10 133 88 211t203 78t208 -77t83 -192q0 -133 -147 -288z" />
<glyph glyph-name="threequarters" unicode="&#xbe;" horiz-adv-x="1855" d="M328 913v129q10 -2 28 -2q47 0 76 28t29 75q0 45 -29 72.5t-74 27.5q-88 0 -102 -102h-162q35 248 275 248q113 0 183.5 -64.5t70.5 -167.5q0 -113 -86 -174q117 -51 116 -201q0 -115 -82 -188.5t-211 -73.5q-125 0 -208.5 75t-90.5 193h172q12 -119 129 -118 q53 0 89 34.5t36 88t-34.5 88t-85.5 34.5zM1266 1411l108 -61l-813 -1407l-108 63zM1690 283h96v-142h-96v-141h-160v141h-397v76l405 617h152v-551zM1530 283v290l-189 -290h189z" />
<glyph glyph-name="questiondown" unicode="&#xbf;" horiz-adv-x="1001" d="M672 582v-359q-53 6 -72 6q-113 0 -184.5 -57t-71.5 -147q0 -68 45 -113t113 -45q61 0 103 42t42 103q0 14 -2 25h264q2 -12 2 -27q0 -152 -121.5 -258t-296 -106t-293 111.5t-118.5 273.5q0 139 88 238.5t250 138.5v174h252zM543 1065q68 0 115 -47t47 -115 q0 -66 -47.5 -113t-112.5 -47q-68 0 -115 47.5t-47 112.5q0 68 47 115t113 47z" />
<glyph glyph-name="Agrave" unicode="&#xc0;" horiz-adv-x="1372" d="M967 289h-559l-123 -289h-283l592 1395h201l573 -1395h-285zM883 504l-191 491l-198 -491h389zM391 1724l170 140l283 -273l-111 -100z" />
<glyph glyph-name="Aacute" unicode="&#xc1;" horiz-adv-x="1372" d="M967 289h-559l-123 -289h-283l592 1395h201l573 -1395h-285zM883 504l-191 491l-198 -491h389zM993 1724l-342 -233l-108 100l280 273z" />
<glyph glyph-name="Acircumflex" unicode="&#xc2;" horiz-adv-x="1372" d="M967 289h-559l-123 -289h-283l592 1395h201l573 -1395h-285zM883 504l-191 491l-198 -491h389zM365 1614l346 282l352 -282l-129 -123l-223 184l-224 -184z" />
<glyph glyph-name="Atilde" unicode="&#xc3;" horiz-adv-x="1372" d="M967 289h-559l-123 -289h-283l592 1395h201l573 -1395h-285zM883 504l-191 491l-198 -491h389zM475 1520h-141q18 121 77.5 189.5t143.5 68.5q61 0 164 -41q102 -37 129 -37q29 0 47 15.5t41 60.5h141q-23 -123 -87 -191.5t-154 -68.5q-45 0 -143.5 38.5t-135.5 38.5 q-53 1 -82 -73z" />
<glyph glyph-name="Adieresis" unicode="&#xc4;" horiz-adv-x="1372" d="M967 289h-559l-123 -289h-283l592 1395h201l573 -1395h-285zM883 504l-191 491l-198 -491h389zM469 1810q61 0 104 -43t43 -104t-43 -104t-104 -43t-104 43t-43 106q0 59 44 102t103 43zM901 1810q61 0 104.5 -43t43.5 -104t-43 -104t-104.5 -43t-104.5 43t-43 106 q0 59 44 102t103 43z" />
<glyph glyph-name="Aring" unicode="&#xc5;" horiz-adv-x="1372" d="M967 289h-559l-123 -289h-283l592 1395h201l573 -1395h-285zM883 504l-191 491l-198 -491h389zM684 1886q82 0 138.5 -56t56.5 -136q0 -82 -56.5 -138.5t-136.5 -56.5q-82 0 -138 57.5t-56 139.5q0 78 57 134t135 56zM686 1769q-33 0 -55.5 -22.5t-22.5 -52.5 q0 -33 22.5 -55.5t55.5 -22.5q31 0 53.5 22.5t22.5 55t-22.5 54t-53.5 21.5z" />
<glyph glyph-name="AE" unicode="&#xc6;" horiz-adv-x="1884" d="M973 289h-557l-119 -289h-283l588 1366h721l90 -231h-502l123 -306h496l92 -231h-496l152 -367h504l88 -231h-780zM891 504l-189 465l-198 -465h387z" />
<glyph glyph-name="Ccedilla" unicode="&#xc7;" horiz-adv-x="1232" d="M1143 1313v-314q-143 150 -334 150q-188 0 -317.5 -136t-129.5 -335q0 -197 128 -331t317 -134q186 0 336 149v-313q-193 -80 -338 -80q-299 0 -508 206t-209 499q0 301 210 510t513 209q170 0 332 -80zM913 -190l-247 -263l-129 82l204 285z" />
<glyph glyph-name="Egrave" unicode="&#xc8;" horiz-adv-x="1013" d="M913 1135h-489v-304h471v-231h-471v-369h489v-231h-755v1366h755v-231zM254 1724l170 140l281 -273l-109 -100z" />
<glyph glyph-name="Eacute" unicode="&#xc9;" horiz-adv-x="1013" d="M913 1135h-489v-304h471v-231h-471v-369h489v-231h-755v1366h755v-231zM856 1724l-342 -233l-108 100l280 273z" />
<glyph glyph-name="Ecircumflex" unicode="&#xca;" horiz-adv-x="1013" d="M913 1135h-489v-304h471v-231h-471v-369h489v-231h-755v1366h755v-231zM201 1614l346 282l352 -282l-127 -123l-225 184l-223 -184z" />
<glyph glyph-name="Edieresis" unicode="&#xcb;" horiz-adv-x="1013" d="M913 1135h-489v-304h471v-231h-471v-369h489v-231h-755v1366h755v-231zM319 1810q61 0 104.5 -43t43.5 -104t-43 -104t-104.5 -43t-104.5 43t-43 106q0 59 44 102t103 43zM752 1810q61 0 104 -43t43 -104t-43 -104t-104.5 -43t-104.5 43t-43 106q0 59 44.5 102t103.5 43z " />
<glyph glyph-name="Igrave" unicode="&#xcc;" horiz-adv-x="579" d="M422 1366v-1366h-266v1366h266zM-18 1724l170 140l280 -273l-108 -100z" />
<glyph glyph-name="Iacute" unicode="&#xcd;" horiz-adv-x="579" d="M424 1366v-1366h-266v1366h266zM598 1724l-342 -233l-109 100l281 273z" />
<glyph glyph-name="Icircumflex" unicode="&#xce;" horiz-adv-x="579" d="M424 1366v-1366h-266v1366h266zM-31 1614l320 282l323 -282l-127 -123l-196 184l-197 -184z" />
<glyph glyph-name="Idieresis" unicode="&#xcf;" horiz-adv-x="579" d="M424 1366v-1366h-266v1366h266zM109 1810q61 0 104 -43t43 -104t-43 -104t-104.5 -43t-104.5 43t-43 106q0 59 44.5 102t103.5 43zM471 1810q61 0 104 -43t43 -104t-43 -104t-104 -43t-104 43t-43 106q0 59 44 102t103 43z" />
<glyph glyph-name="Eth" unicode="&#xd0;" horiz-adv-x="1370" d="M158 784v582h391q299 0 489 -158q115 -94 179.5 -233t64.5 -291q0 -154 -64.5 -292t-183.5 -234q-190 -158 -487 -158h-389v580h-115v204h115zM424 784h291v-204h-291v-349h72q244 0 364 109q147 131 147.5 342t-147.5 342q-68 59 -150.5 85t-213.5 26h-72v-351z" />
<glyph glyph-name="Ntilde" unicode="&#xd1;" horiz-adv-x="1595" d="M158 0v1397h184l832 -951v920h266v-1393h-185l-831 951v-924h-266zM588 1520h-139q16 119 75.5 188.5t143.5 69.5q61 0 163 -41q102 -37 130 -37q29 0 47 15.5t41 60.5h141q-23 -123 -86.5 -191.5t-155.5 -68.5q-45 0 -141 38q-100 39 -137 39q-53 1 -82 -73z" />
<glyph glyph-name="Ograve" unicode="&#xd2;" horiz-adv-x="1636" d="M821 1397q305 0 516 -207t211 -508q0 -303 -213 -508t-524 -205q-307 0 -515 208t-208 515q0 293 215 499t518 206zM817 1153q-186 0 -320.5 -137t-134.5 -328q0 -199 133.5 -337t323.5 -138q188 0 321.5 138t133.5 333t-133.5 332t-323.5 137zM510 1724l170 140 l281 -273l-109 -100z" />
<glyph glyph-name="Oacute" unicode="&#xd3;" horiz-adv-x="1636" d="M821 1397q305 0 516 -207t211 -508q0 -303 -213 -508t-524 -205q-307 0 -515 208t-208 515q0 293 215 499t518 206zM817 1153q-186 0 -320.5 -137t-134.5 -328q0 -199 133.5 -337t323.5 -138q188 0 321.5 138t133.5 333t-133.5 332t-323.5 137zM1126 1724l-342 -233 l-110 100l282 273z" />
<glyph glyph-name="Ocircumflex" unicode="&#xd4;" horiz-adv-x="1636" d="M821 1397q305 0 516 -207t211 -508q0 -303 -213 -508t-524 -205q-307 0 -515 208t-208 515q0 293 215 499t518 206zM817 1153q-186 0 -320.5 -137t-134.5 -328q0 -199 133.5 -337t323.5 -138q188 0 321.5 138t133.5 333t-133.5 332t-323.5 137zM469 1614l346 282 l352 -282l-127 -123l-225 184l-223 -184z" />
<glyph glyph-name="Otilde" unicode="&#xd5;" horiz-adv-x="1636" d="M821 1397q305 0 516 -207t211 -508q0 -303 -213 -508t-524 -205q-307 0 -515 208t-208 515q0 293 215 499t518 206zM817 1153q-186 0 -320.5 -137t-134.5 -328q0 -199 133.5 -337t323.5 -138q188 0 321.5 138t133.5 333t-133.5 332t-323.5 137zM606 1520h-139 q16 119 75.5 188.5t143.5 69.5q61 0 164 -41q102 -37 129 -37q29 0 47 15.5t43 60.5h141q-25 -123 -88 -191.5t-153 -68.5q-47 0 -143.5 38.5t-135.5 38.5q-55 1 -84 -73z" />
<glyph glyph-name="Odieresis" unicode="&#xd6;" horiz-adv-x="1636" d="M821 1397q305 0 516 -207t211 -508q0 -303 -213 -508t-524 -205q-307 0 -515 208t-208 515q0 293 215 499t518 206zM817 1153q-186 0 -320.5 -137t-134.5 -328q0 -199 133.5 -337t323.5 -138q188 0 321.5 138t133.5 333t-133.5 332t-323.5 137zM602 1810q61 0 104.5 -43 t43.5 -104t-43 -104t-104.5 -43t-104.5 43t-43 106q0 59 44 102t103 43zM1034 1810q61 0 104.5 -43t43.5 -104t-43 -104t-104.5 -43t-104.5 43t-43 106q0 59 44 102t103 43z" />
<glyph glyph-name="multiply" unicode="&#xd7;" d="M297 1083l285 -284l284 284l115 -116l-285 -285l285 -285l-115 -114l-284 284l-285 -284l-117 114l285 285l-285 285z" />
<glyph glyph-name="Oslash" unicode="&#xd8;" horiz-adv-x="1648" d="M1509 1358l-149 -182q66 -80 90 -121q104 -170 104 -373q0 -293 -209.5 -503t-500.5 -210q-260 0 -408 99l-151 -179l-142 129l138 177q-61 78 -80 106q-106 172 -107 381q0 301 212 508t521 207q199 0 375 -99l156 187zM1188 965l-588 -695q115 -57 221 -57 q190 0 324.5 137t134.5 332q0 160 -92 283zM459 403l577 699q-109 51 -211 51q-188 0 -322 -137t-134 -330q0 -166 90 -283z" />
<glyph glyph-name="Ugrave" unicode="&#xd9;" horiz-adv-x="1411" d="M424 1366v-782q0 -104 8 -151.5t35 -92.5q35 -59 99.5 -93t140 -34t140 34t99.5 93q27 45 35 92t8 152v782h266v-836q0 -231 -100 -364q-72 -92 -190.5 -144.5t-258 -52.5t-258 52.5t-190.5 144.5q-100 133 -100 364v836h266zM399 1724l170 140l281 -273l-109 -100z" />
<glyph glyph-name="Uacute" unicode="&#xda;" horiz-adv-x="1411" d="M424 1366v-782q0 -104 8 -151.5t35 -92.5q35 -59 99.5 -93t140 -34t140 34t99.5 93q27 45 35 92t8 152v782h266v-836q0 -231 -100 -364q-72 -92 -190.5 -144.5t-258 -52.5t-258 52.5t-190.5 144.5q-100 133 -100 364v836h266zM1014 1724l-342 -233l-109 100l281 273z" />
<glyph glyph-name="Ucircumflex" unicode="&#xdb;" horiz-adv-x="1411" d="M424 1366v-782q0 -104 8 -151.5t35 -92.5q35 -59 99.5 -93t140 -34t140 34t99.5 93q27 45 35 92t8 152v782h266v-836q0 -231 -100 -364q-72 -92 -190.5 -144.5t-258 -52.5t-258 52.5t-190.5 144.5q-100 133 -100 364v836h266zM358 1614l347 282l352 -282l-129 -123 l-223 184l-224 -184z" />
<glyph glyph-name="Udieresis" unicode="&#xdc;" horiz-adv-x="1411" d="M424 1366v-782q0 -104 8 -151.5t35 -92.5q35 -59 99.5 -93t140 -34t140 34t99.5 93q27 45 35 92t8 152v782h266v-836q0 -231 -100 -364q-72 -92 -190.5 -144.5t-258 -52.5t-258 52.5t-190.5 144.5q-100 133 -100 364v836h266zM492 1810q61 0 104 -43t43 -104t-43 -104 t-104.5 -43t-104.5 43t-43 106q0 59 44.5 102t103.5 43zM922 1810q61 0 104 -43t43 -104t-43 -104t-104.5 -43t-104.5 43t-43 106q0 59 44.5 102t103.5 43z" />
<glyph glyph-name="Yacute" unicode="&#xdd;" horiz-adv-x="1193" d="M461 627l-471 739h315l295 -475l289 475h317l-479 -739v-627h-266v627zM905 1724l-342 -233l-108 100l280 273z" />
<glyph glyph-name="Thorn" unicode="&#xde;" horiz-adv-x="1099" d="M424 305v-305h-266v1366h266v-192h119q207 0 317 -62q94 -55 146.5 -152.5t52.5 -218t-51.5 -220t-139.5 -154.5q-102 -61 -274 -62h-170zM424 553h100q127 0 178 45q59 49 60 143q0 186 -240 187h-98v-375z" />
<glyph glyph-name="germandbls" unicode="&#xdf;" horiz-adv-x="1693" d="M788 893l-129 -170q-57 61 -89.5 78.5t-86 17.5t-89.5 -25.5t-36 -64.5q0 -33 27 -52.5t113 -47.5q150 -51 215 -101q100 -72 100 -211q0 -150 -104.5 -245t-270.5 -95q-223 0 -362 193l-15 20l162 158q37 -66 56 -86q61 -66 155 -65q61 0 100 31.5t39 82.5 q0 49 -33.5 75t-138.5 56q-152 47 -217 111.5t-65 167.5q0 129 97 216t243 87q96 0 170.5 -29.5t158.5 -101.5zM1608 893l-129 -170q-57 61 -90 78.5t-86.5 17.5t-89 -25.5t-35.5 -64.5q0 -33 26.5 -52.5t112.5 -47.5q150 -51 215 -101q100 -72 100 -211q0 -150 -104.5 -245 t-267.5 -95q-225 0 -365 193l-14 20l161 158q37 -66 56 -86q61 -66 155 -65q61 0 100.5 31.5t39.5 82.5q0 49 -34 75t-138 56q-152 47 -217.5 111.5t-65.5 167.5q0 131 97.5 217t242.5 86q96 0 171 -29.5t159 -101.5z" />
<glyph glyph-name="agrave" unicode="&#xe0;" horiz-adv-x="1050" d="M324 174l-72 -174h-246l436 1028h179l423 -1028h-247l-70 174h-403zM403 373h246l-121 311zM311 1294l162 133l266 -260l-104 -94z" />
<glyph glyph-name="aacute" unicode="&#xe1;" horiz-adv-x="1050" d="M324 174l-72 -174h-246l436 1028h179l423 -1028h-247l-70 174h-403zM403 373h246l-121 311zM829 1294l-323 -221l-105 94l267 260z" />
<glyph glyph-name="acircumflex" unicode="&#xe2;" horiz-adv-x="1050" d="M324 174l-72 -174h-246l436 1028h179l423 -1028h-247l-70 174h-403zM403 373h246l-121 311zM856 1190l-117 -117l-213 174l-213 -174l-120 117l335 268z" />
<glyph glyph-name="atilde" unicode="&#xe3;" horiz-adv-x="1050" d="M324 174l-72 -174h-246l436 1028h179l423 -1028h-247l-70 174h-403zM403 373h246l-121 311zM342 1130h-115q14 106 62.5 169t120.5 63q47 0 133 -37q84 -35 108 -35q23 0 38.5 14.5t33.5 55.5h117q-18 -109 -71.5 -171.5t-127.5 -62.5q-41 0 -119 35q-76 35 -112 35 q-43 0 -68 -66z" />
<glyph glyph-name="adieresis" unicode="&#xe4;" horiz-adv-x="1050" d="M324 174l-72 -174h-246l436 1028h179l423 -1028h-247l-70 174h-403zM403 373h246l-121 311zM352 1374q53 0 92 -39t39 -92q0 -55 -38.5 -94t-92.5 -39q-55 0 -94 39t-39 94q0 53 39 92t94 39zM698 1376q55 0 94 -39t39 -94t-38.5 -94t-94 -39t-94.5 39t-39 96q0 53 40 92 t93 39z" />
<glyph glyph-name="aring" unicode="&#xe5;" horiz-adv-x="1050" d="M324 174l-72 -174h-246l436 1028h179l423 -1028h-247l-70 174h-403zM403 373h246l-121 311zM532 1436q82 0 138.5 -56.5t56.5 -138.5q0 -80 -56.5 -137t-135.5 -57q-82 0 -138.5 57t-56.5 139q0 78 57 135.5t135 57.5zM535 1319q-33 0 -55.5 -22.5t-22.5 -53.5 q0 -33 22.5 -56.5t55.5 -23.5q31 0 53 22.5t22 55.5t-22 55.5t-53 22.5z" />
<glyph glyph-name="ae" unicode="&#xe6;" horiz-adv-x="1390" d="M434 1008h551l80 -205h-350l71 -176h347l81 -205h-344l88 -217h351l80 -205h-592l-70 174h-403l-72 -174h-246zM403 373h246l-121 311z" />
<glyph glyph-name="ccedilla" unicode="&#xe7;" horiz-adv-x="968" d="M866 973v-299q-92 137 -248 137q-123 0 -209.5 -90t-86.5 -217t87 -217t209 -90q156 0 248 137v-299q-115 -57 -248 -58q-227 0 -381.5 152t-154.5 373q0 223 155.5 375.5t383.5 152.5q130 0 245 -57zM711 -131l-238 -256l-123 72l201 272z" />
<glyph glyph-name="egrave" unicode="&#xe8;" horiz-adv-x="864" d="M748 803h-369v-176h356v-205h-356v-217h369v-205h-611v1008h611v-205zM242 1294l161 133l267 -260l-105 -94z" />
<glyph glyph-name="eacute" unicode="&#xe9;" horiz-adv-x="864" d="M748 803h-369v-176h356v-205h-356v-217h369v-205h-611v1008h611v-205zM748 1294l-326 -221l-103 94l267 260z" />
<glyph glyph-name="ecircumflex" unicode="&#xea;" horiz-adv-x="864" d="M748 803h-371v-176h356v-205h-356v-217h371v-205h-613v1008h613v-205zM791 1190l-117 -117l-213 174l-213 -174l-121 117l334 268z" />
<glyph glyph-name="edieresis" unicode="&#xeb;" horiz-adv-x="864" d="M748 803h-369v-176h356v-205h-356v-217h369v-205h-611v1008h611v-205zM270 1374q53 0 92 -39t39 -92q0 -55 -38.5 -94t-92.5 -39q-55 0 -94 39t-39 94q0 53 39 92t94 39zM616 1376q55 0 94.5 -39t39.5 -94t-39 -94t-94.5 -39t-94.5 39t-39 96q0 53 40 92t93 39z" />
<glyph glyph-name="igrave" unicode="&#xec;" horiz-adv-x="516" d="M379 1008v-1008h-242v1008h242zM43 1294l162 133l266 -260l-102 -94z" />
<glyph glyph-name="iacute" unicode="&#xed;" horiz-adv-x="516" d="M379 1008v-1008h-242v1008h242zM567 1294l-323 -221l-105 94l267 260z" />
<glyph glyph-name="icircumflex" unicode="&#xee;" horiz-adv-x="516" d="M379 1008v-1008h-242v1008h242zM590 1190l-117 -117l-213 174l-213 -174l-121 117l334 268z" />
<glyph glyph-name="idieresis" unicode="&#xef;" horiz-adv-x="516" d="M379 1008v-1008h-242v1008h242zM94 1374q53 0 92 -39t39 -92q0 -55 -39 -94t-92 -39q-55 0 -94 39t-39 94q0 53 39 92t94 39zM422 1376q55 0 94 -39t39 -94t-39 -94t-94 -39t-94 39t-39 96q0 53 40 92t93 39z" />
<glyph glyph-name="eth" unicode="&#xf0;" horiz-adv-x="1083" d="M162 604v404h299q217 0 360 -115q180 -152 180 -387q0 -240 -184 -391q-137 -115 -358 -115h-297v403h-86v201h86zM403 604h197v-201h-197v-198h29q164 0 242 71q94 88 94 228q0 141 -96 227q-80 72 -240 72h-29v-199z" />
<glyph glyph-name="ntilde" unicode="&#xf1;" horiz-adv-x="1222" d="M137 0v1030h176l533 -641v619h241v-1026h-176l-532 641v-623h-242zM430 1130h-115q14 106 62.5 169t118.5 63q45 0 135 -37q82 -35 106 -35q41 0 74 70h117q-20 -111 -72.5 -172.5t-128.5 -61.5q-39 0 -117 35q-76 35 -114 35q-41 0 -66 -66z" />
<glyph glyph-name="ograve" unicode="&#xf2;" horiz-adv-x="1236" d="M621 1030q225 0 379.5 -152.5t154.5 -373.5q0 -223 -155.5 -375t-385.5 -152q-225 0 -378.5 154t-153.5 379q0 215 158 367.5t381 152.5zM618 811q-121 0 -208.5 -89t-87.5 -214q0 -131 86 -221t210 -90q123 0 210 90t87 217t-87 217t-210 90zM403 1294l162 133l269 -260 l-105 -94z" />
<glyph glyph-name="oacute" unicode="&#xf3;" horiz-adv-x="1236" d="M621 1030q225 0 379.5 -152.5t154.5 -373.5q0 -223 -155.5 -375t-385.5 -152q-225 0 -378.5 154t-153.5 379q0 215 158 367.5t381 152.5zM618 811q-121 0 -208.5 -89t-87.5 -214q0 -131 86 -221t210 -90q123 0 210 90t87 217t-87 217t-210 90zM932 1294l-326 -221 l-102 94l266 260z" />
<glyph glyph-name="ocircumflex" unicode="&#xf4;" horiz-adv-x="1236" d="M621 1030q225 0 379.5 -152.5t154.5 -373.5q0 -223 -155.5 -375t-385.5 -152q-225 0 -378.5 154t-153.5 379q0 215 158 367.5t381 152.5zM618 811q-121 0 -208.5 -89t-87.5 -214q0 -131 86 -221t210 -90q123 0 210 90t87 217t-87 217t-210 90zM954 1190l-116 -117 l-213 174l-213 -174l-121 117l334 268z" />
<glyph glyph-name="otilde" unicode="&#xf5;" horiz-adv-x="1236" d="M621 1030q225 0 379.5 -152.5t154.5 -373.5q0 -223 -155.5 -375t-385.5 -152q-225 0 -378.5 154t-153.5 379q0 215 158 367.5t381 152.5zM618 811q-121 0 -208.5 -89t-87.5 -214q0 -131 86 -221t210 -90q123 0 210 90t87 217t-87 217t-210 90zM428 1130h-117 q14 106 63.5 169t119.5 63q47 0 135 -37q82 -35 106 -35q41 0 74 70h117q-20 -111 -72.5 -172.5t-128.5 -61.5q-39 0 -117 35q-76 35 -114 35q-41 0 -66 -66z" />
<glyph glyph-name="odieresis" unicode="&#xf6;" horiz-adv-x="1236" d="M621 1030q225 0 379.5 -152.5t154.5 -373.5q0 -223 -155.5 -375t-385.5 -152q-225 0 -378.5 154t-153.5 379q0 215 158 367.5t381 152.5zM618 811q-121 0 -208.5 -89t-87.5 -214q0 -131 86 -221t210 -90q123 0 210 90t87 217t-87 217t-210 90zM446 1374q53 0 92.5 -39 t39.5 -92q0 -55 -39 -94t-93 -39q-55 0 -94 39t-39 94q0 53 39 92t94 39zM793 1376q55 0 94 -39t39 -94t-39 -94t-94.5 -39t-94.5 39t-39 96q0 53 40.5 92t93.5 39z" />
<glyph glyph-name="divide" unicode="&#xf7;" d="M123 764h915v-164h-915v164zM579.5 467q51.5 0 88.5 -37t37 -88t-37 -88t-88 -37q-53 0 -89 37t-36 90q0 51 36.5 87t88 36zM579.5 1149q51.5 0 88.5 -36t37 -89t-37 -89t-88 -36q-53 0 -89 37t-36 90q0 51 36.5 87t88 36z" />
<glyph glyph-name="oslash" unicode="&#xf8;" horiz-adv-x="1263" d="M117 39l102 123q-123 145 -123 342q0 221 156 373.5t383 152.5q139 0 252 -61l110 133l150 -125l-107 -127q129 -147 129 -348q0 -219 -155.5 -372t-378.5 -153q-139 0 -266 66l-113 -133zM367 340l383 461q-61 25 -119 24q-127 0 -217 -95t-90 -226q0 -84 43 -164z M895 676l-387 -465q68 -29 125 -29q127 0 218 94.5t91 227.5q0 94 -47 172z" />
<glyph glyph-name="ugrave" unicode="&#xf9;" horiz-adv-x="1081" d="M371 1008v-582q0 -113 26 -156q43 -74 144 -73q98 0 141 73q27 43 27 156v582h241v-611q0 -174 -76 -270q-111 -150 -333 -150q-225 0 -336 150q-76 96 -76 270v611h242zM299 1294l162 133l268 -260l-104 -94z" />
<glyph glyph-name="uacute" unicode="&#xfa;" horiz-adv-x="1081" d="M371 1008v-582q0 -113 26 -156q43 -74 144 -73q98 0 141 73q27 43 27 156v582h241v-611q0 -174 -76 -270q-111 -150 -333 -150q-225 0 -336 150q-76 96 -76 270v611h242zM866 1294l-325 -221l-105 94l269 260z" />
<glyph glyph-name="ucircumflex" unicode="&#xfb;" horiz-adv-x="1081" d="M371 1008v-582q0 -113 26 -156q43 -74 144 -73q98 0 141 73q27 43 27 156v582h241v-611q0 -174 -76 -270q-111 -150 -333 -150q-225 0 -336 150q-76 96 -76 270v611h242zM872 1190l-118 -117l-211 174l-213 -174l-121 117l334 268z" />
<glyph glyph-name="udieresis" unicode="&#xfc;" horiz-adv-x="1081" d="M371 1008v-582q0 -113 26 -156q43 -74 144 -73q98 0 141 73q27 43 27 156v582h241v-611q0 -174 -76 -270q-111 -150 -333 -150q-225 0 -336 150q-76 96 -76 270v611h242zM367 1374q53 0 92 -39t39 -92q0 -55 -39 -94t-92 -39q-55 0 -94.5 39t-39.5 94q0 53 39.5 92 t94.5 39zM713 1376q55 0 94 -39t39 -94t-39 -94t-94.5 -39t-94 39t-38.5 96q0 53 40 92t93 39z" />
<glyph glyph-name="yacute" unicode="&#xfd;" horiz-adv-x="952" d="M795 1294l-326 -221l-104 94l266 260zM350 455l-350 553h258l217 -355l213 355h262l-358 -553v-455h-242v455z" />
<glyph glyph-name="thorn" unicode="&#xfe;" horiz-adv-x="901" d="M379 870h90q178 0 270 -79q106 -94 107 -250q0 -141 -86 -233.5t-262 -92.5h-119v-215h-242v1008h242v-138zM379 420h82q145 0 145 121q0 68 -35.5 96.5t-119.5 28.5h-72v-246z" />
<glyph glyph-name="ydieresis" unicode="&#xff;" horiz-adv-x="952" d="M303 1374q53 0 92 -39t39 -92q0 -55 -39 -94t-92 -39q-55 0 -94 39t-39 94q0 53 39 92t94 39zM649 1376q55 0 94 -39t39 -94t-38.5 -94t-94 -39t-94.5 39t-39 96q0 53 40 92t93 39zM350 455l-350 553h258l217 -355l213 355h262l-358 -553v-455h-242v455z" />
<glyph glyph-name="Amacron" unicode="&#x100;" horiz-adv-x="1372" d="M967 289h-559l-123 -289h-283l592 1395h201l573 -1395h-285zM883 504l-191 491l-198 -491h389zM344 1706h682v-164h-682v164z" />
<glyph glyph-name="amacron" unicode="&#x101;" horiz-adv-x="1050" d="M324 174l-72 -174h-246l436 1028h179l423 -1028h-247l-70 174h-403zM403 373h246l-121 311zM227 1321h594v-164h-594v164z" />
<glyph glyph-name="Abreve" unicode="&#x102;" horiz-adv-x="1372" d="M967 289h-559l-123 -289h-283l592 1395h201l573 -1395h-285zM883 504l-191 491l-198 -491h389zM348 1786h172q25 -70 64 -99.5t102 -29.5q66 0 103.5 29.5t60.5 99.5h172q-16 -133 -107.5 -210t-228.5 -77q-139 0 -230.5 77t-107.5 210z" />
<glyph glyph-name="abreve" unicode="&#x103;" horiz-adv-x="1050" d="M324 174l-72 -174h-246l436 1028h179l423 -1028h-247l-70 174h-403zM403 373h246l-121 311zM221 1366h156q34 -117 147 -117q115 0 150 117h153q-16 -121 -97 -190.5t-206 -69.5t-206 69.5t-97 190.5z" />
<glyph glyph-name="Aogonek" unicode="&#x104;" horiz-adv-x="1372" d="M967 289h-559l-123 -289h-283l592 1395h201l573 -1395q-123 -92 -123 -168q0 -35 24.5 -58.5t59.5 -23.5q51 0 115 39l-35 -160q-59 -33 -141 -32q-90 0 -148.5 48t-58.5 124q0 117 164 231h-142zM883 504l-191 491l-198 -491h389z" />
<glyph glyph-name="aogonek" unicode="&#x105;" horiz-adv-x="1050" d="M840 0h-43l-70 174h-403l-72 -174h-246l436 1028h179l423 -1028h-47q-90 -68 -90 -141q0 -27 20.5 -45.5t49.5 -18.5q43 0 96 27l-29 -137q-55 -35 -120 -35q-82 0 -137.5 45t-55.5 112q0 113 109 193zM403 373h246l-121 311z" />
<glyph glyph-name="Cacute" unicode="&#x106;" horiz-adv-x="1232" d="M1143 1313v-314q-156 154 -334 154q-188 0 -317.5 -137t-129.5 -338q0 -199 129.5 -332t323.5 -133q96 0 171 34t157 115v-313q-172 -80 -334 -80q-303 0 -512 205t-209 502q0 299 211 510t510 211q166 0 334 -84zM1087 1724l-342 -233l-108 100l281 273z" />
<glyph glyph-name="cacute" unicode="&#x107;" horiz-adv-x="968" d="M866 973v-299q-92 137 -248 137q-123 0 -209.5 -90t-86.5 -217t87 -217t209 -90q156 0 248 137v-299q-115 -57 -248 -58q-227 0 -381.5 152t-154.5 373q0 223 155.5 375.5t383.5 152.5q130 0 245 -57zM879 1294l-326 -221l-104 94l268 260z" />
<glyph glyph-name="Ccaron" unicode="&#x10c;" horiz-adv-x="1232" d="M1143 1313v-314q-156 154 -334 154q-188 0 -317.5 -137t-129.5 -338q0 -199 129.5 -332t323.5 -133q96 0 171 34t157 115v-313q-172 -80 -334 -80q-303 0 -512 205t-209 502q0 299 211 510t510 211q166 0 334 -84zM430 1776l125 120l223 -182l223 182l127 -120l-352 -285 z" />
<glyph glyph-name="ccaron" unicode="&#x10d;" horiz-adv-x="968" d="M866 973v-299q-92 137 -248 137q-123 0 -209.5 -90t-86.5 -217t87 -217t209 -90q156 0 248 137v-299q-115 -57 -248 -58q-227 0 -381.5 152t-154.5 373q0 223 155.5 375.5t383.5 152.5q130 0 245 -57zM270 1329l119 117l211 -176l213 176l123 -117l-336 -270z" />
<glyph glyph-name="Dcaron" unicode="&#x10e;" horiz-adv-x="1370" d="M158 0v1366h391q299 0 489 -158q115 -94 179.5 -232t64.5 -292q0 -152 -65.5 -291t-182.5 -235q-186 -158 -487 -158h-389zM424 231h72q244 0 364 109q70 61 109 153.5t39 190.5q0 209 -148 340q-123 111 -364 111h-72v-904zM262 1776l123 120l223 -182l226 182l127 -120 l-353 -285z" />
<glyph glyph-name="dcaron" unicode="&#x10f;" horiz-adv-x="1058" d="M137 0v1008h299q219 0 361 -117q84 -70 132 -171.5t48 -213.5q0 -238 -182 -391q-141 -115 -359 -115h-299zM379 205h29q164 0 241 71q94 88 94 228q0 141 -96 227q-80 72 -239 72h-29v-598zM180 1329l119 117l211 -176l213 176l121 -117l-334 -270z" />
<glyph glyph-name="Dcroat" unicode="&#x110;" horiz-adv-x="1370" d="M158 784v582h391q299 0 489 -158q115 -94 179.5 -233t64.5 -291q0 -154 -64.5 -292t-183.5 -234q-190 -158 -487 -158h-389v580h-115v204h115zM424 784h291v-204h-291v-349h72q244 0 364 109q147 131 147.5 342t-147.5 342q-68 59 -150.5 85t-213.5 26h-72v-351z" />
<glyph glyph-name="dcroat" unicode="&#x111;" horiz-adv-x="1083" d="M162 604v404h299q217 0 360 -115q180 -152 180 -387q0 -240 -184 -391q-137 -115 -358 -115h-297v403h-86v201h86zM403 604h197v-201h-197v-198h29q164 0 242 71q94 88 94 228q0 141 -96 227q-80 72 -240 72h-29v-199z" />
<glyph glyph-name="Emacron" unicode="&#x112;" horiz-adv-x="1013" d="M913 1135h-489v-304h471v-231h-471v-369h489v-231h-755v1366h755v-231zM195 1706h682v-164h-682v164z" />
<glyph glyph-name="emacron" unicode="&#x113;" horiz-adv-x="864" d="M748 803h-369v-176h356v-205h-356v-217h369v-205h-611v1008h611v-205zM145 1321h594v-164h-594v164z" />
<glyph glyph-name="Edotaccent" unicode="&#x116;" horiz-adv-x="1013" d="M913 1135h-489v-304h471v-231h-471v-369h489v-231h-755v1366h755v-231zM550.5 1810q63.5 0 109 -45t45.5 -108.5t-45.5 -109.5t-108.5 -46q-66 0 -111 46t-45 112q0 61 46 106t109.5 45z" />
<glyph glyph-name="edotaccent" unicode="&#x117;" horiz-adv-x="864" d="M748 803h-369v-176h356v-205h-356v-217h369v-205h-611v1008h611v-205zM454.5 1389q57.5 0 98.5 -41t41 -98.5t-41 -98.5t-98.5 -41t-98.5 41t-41 100q0 55 41 96.5t98.5 41.5z" />
<glyph glyph-name="Eogonek" unicode="&#x118;" horiz-adv-x="1013" d="M913 1135h-489v-304h471v-231h-471v-369h489v-231q-123 -96 -122 -168q0 -35 24.5 -58.5t58.5 -23.5q51 0 115 39l-35 -160q-59 -33 -141 -32q-90 0 -148.5 48t-58.5 124q0 117 164 231h-612v1366h755v-231z" />
<glyph glyph-name="eogonek" unicode="&#x119;" horiz-adv-x="864" d="M748 0h-62q-92 -68 -92 -141q0 -27 20.5 -45.5t49.5 -18.5q45 0 96 27l-27 -137q-55 -35 -123 -35q-82 0 -137 45t-55 112q0 113 110 193h-391v1008h611v-205h-369v-176h356v-205h-356v-217h369v-205z" />
<glyph glyph-name="Ecaron" unicode="&#x11a;" horiz-adv-x="1013" d="M913 1135h-489v-304h471v-231h-471v-369h489v-231h-755v1366h755v-231zM201 1776l123 120l223 -182l225 182l127 -120l-352 -285z" />
<glyph glyph-name="ecaron" unicode="&#x11b;" horiz-adv-x="864" d="M750 803h-371v-176h356v-205h-356v-217h371v-205h-613v1008h613v-205zM137 1329l117 117l213 -176l213 176l121 -117l-334 -270z" />
<glyph glyph-name="Gbreve" unicode="&#x11e;" horiz-adv-x="1560" d="M846 731h624q-2 -158 -18 -249t-59 -173q-88 -164 -238.5 -252t-349.5 -88q-311 0 -514 200t-203 507q0 313 205 517t520 204q389 0 586 -322l-234 -125q-123 203 -354 203q-193 0 -321 -135t-128 -342q0 -201 127 -333t320 -132q145 0 244.5 79t113.5 210h-321v231z M471 1786h172q23 -70 60.5 -99.5t103.5 -29.5q63 0 102 29.5t64 99.5h170q-14 -131 -105.5 -209t-230.5 -78t-230.5 78t-105.5 209z" />
<glyph glyph-name="gbreve" unicode="&#x11f;" horiz-adv-x="1198" d="M1077 768l-203 -115q-84 158 -253 158q-129 0 -214 -89t-85 -222q0 -131 85 -217t218 -86q90 0 150.5 44t76.5 121h-242v205h506v-51q0 -211 -92 -340q-141 -199 -408 -199q-231 0 -382.5 148.5t-151.5 374.5q0 229 153.5 379.5t387.5 150.5q150 0 272.5 -70.5 t181.5 -191.5zM326 1366h155q31 -117 147.5 -117t149.5 117h154q-16 -121 -97 -190.5t-206 -69.5t-206 69.5t-97 190.5z" />
<glyph glyph-name="Gcommaaccent" unicode="&#x122;" horiz-adv-x="1560" d="M846 731h624q-2 -158 -18 -249t-59 -173q-88 -164 -238.5 -252t-349.5 -88q-311 0 -514 200t-203 507q0 313 205 517t520 204q389 0 586 -322l-234 -125q-123 203 -354 203q-193 0 -321 -135t-128 -342q0 -201 127 -333t320 -132q145 0 244.5 79t113.5 210h-321v231z M702 -109l222 -18l-232 -367l-137 15z" />
<glyph glyph-name="gcommaaccent" unicode="&#x123;" horiz-adv-x="1198" d="M1077 768l-203 -115q-84 158 -253 158q-129 0 -214 -89t-85 -222q0 -131 85 -217t218 -86q90 0 150.5 44t76.5 121h-242v205h506v-51q0 -211 -92 -340q-141 -199 -408 -199q-231 0 -382.5 148.5t-151.5 374.5q0 229 153.5 379.5t387.5 150.5q150 0 272.5 -70.5 t181.5 -191.5zM545 -51l207 -19l-193 -307l-131 15z" />
<glyph glyph-name="Imacron" unicode="&#x12a;" horiz-adv-x="579" d="M424 1366v-1366h-266v1366h266zM27 1706h526v-164h-526v164z" />
<glyph glyph-name="imacron" unicode="&#x12b;" horiz-adv-x="516" d="M377 1008v-1008h-242v1008h242zM16 1321h482v-164h-482v164z" />
<glyph glyph-name="Iogonek" unicode="&#x12e;" horiz-adv-x="579" d="M158 1366h266v-1366q-123 -92 -123 -168q0 -35 24.5 -58.5t59.5 -23.5q49 0 115 39l-35 -160q-59 -33 -141 -32q-90 0 -148.5 48t-58.5 124q0 115 164 231h-123v1366z" />
<glyph glyph-name="iogonek" unicode="&#x12f;" horiz-adv-x="516" d="M377 0h-25q-90 -68 -90 -141q0 -27 19.5 -45.5t48.5 -18.5q43 0 96 27l-29 -137q-55 -35 -121 -35q-82 0 -136 45t-54 112q0 109 109 193h-60v1008h242v-1008z" />
<glyph glyph-name="Idotaccent" unicode="&#x130;" horiz-adv-x="579" d="M424 1366v-1366h-266v1366h266zM290.5 1810q63.5 0 108.5 -45t45 -108.5t-45 -109.5t-108 -46q-66 0 -111 46t-45 112q0 61 46 106t109.5 45z" />
<glyph glyph-name="dotlessi" unicode="&#x131;" horiz-adv-x="516" d="M379 1008v-1008h-242v1008h242z" />
<glyph glyph-name="Kcommaaccent" unicode="&#x136;" horiz-adv-x="1304" d="M424 788l502 578h336l-578 -631l608 -735h-350l-485 614l-33 -32v-582h-266v1366h266v-578zM592 -109l221 -18l-229 -367l-140 15z" />
<glyph glyph-name="kcommaaccent" unicode="&#x137;" horiz-adv-x="1021" d="M428 383l-49 -55v-328h-242v1008h242v-398l330 398h274l-410 -461l443 -547h-283zM436 -51l209 -19l-194 -307l-132 15z" />
<glyph glyph-name="Lacute" unicode="&#x139;" horiz-adv-x="870" d="M424 1366v-1135h420v-231h-686v1366h266zM606 1724l-342 -233l-108 100l280 273z" />
<glyph glyph-name="lacute" unicode="&#x13a;" horiz-adv-x="698" d="M379 1008v-803h293v-205h-535v1008h242zM596 1294l-326 -221l-104 94l266 260z" />
<glyph glyph-name="Lcommaaccent" unicode="&#x13b;" horiz-adv-x="870" d="M424 1366v-1135h420v-231h-686v1366h266zM424 -109l221 -18l-231 -367l-138 15z" />
<glyph glyph-name="lcommaaccent" unicode="&#x13c;" horiz-adv-x="698" d="M379 1008v-803h293v-205h-535v1008h242zM346 -51l209 -19l-195 -307l-131 15z" />
<glyph glyph-name="Lcaron" unicode="&#x13d;" horiz-adv-x="870" d="M424 1366v-1135h420v-231h-686v1366h266zM639 1372l221 -18l-229 -367l-139 14z" />
<glyph glyph-name="lcaron" unicode="&#x13e;" horiz-adv-x="698" d="M379 1008v-803h293v-205h-535v1008h242zM530 1008l207 -19l-164 -307l-131 12z" />
<glyph glyph-name="Lslash" unicode="&#x141;" horiz-adv-x="870" d="M420 1366v-444l252 170v-236l-252 -168v-457h424v-231h-690v545l-146 -101v236l146 98v588h266z" />
<glyph glyph-name="lslash" unicode="&#x142;" horiz-adv-x="700" d="M379 498v-293h295v-205h-537v346l-98 -61v219l98 61v443h242v-289l180 110v-221z" />
<glyph glyph-name="Nacute" unicode="&#x143;" horiz-adv-x="1595" d="M158 0v1397h184l832 -951v920h266v-1393h-185l-831 951v-924h-266zM1094 1724l-342 -233l-111 100l283 273z" />
<glyph glyph-name="nacute" unicode="&#x144;" horiz-adv-x="1222" d="M137 0v1030h176l533 -641v619h241v-1026h-176l-532 641v-623h-242zM909 1294l-325 -221l-105 94l266 260z" />
<glyph glyph-name="Ncommaaccent" unicode="&#x145;" horiz-adv-x="1595" d="M158 0v1397h184l832 -951v920h266v-1393h-185l-831 951v-924h-266zM735 -109l221 -18l-231 -367l-137 15z" />
<glyph glyph-name="ncommaaccent" unicode="&#x146;" horiz-adv-x="1222" d="M137 0v1030h176l533 -641v619h241v-1026h-176l-532 641v-623h-242zM553 -51l209 -19l-195 -307l-131 15z" />
<glyph glyph-name="Ncaron" unicode="&#x147;" horiz-adv-x="1595" d="M158 0v1397h184l832 -951v920h266v-1393h-185l-831 951v-924h-266zM451 1776l122 120l224 -182l223 182l129 -120l-352 -285z" />
<glyph glyph-name="ncaron" unicode="&#x148;" horiz-adv-x="1222" d="M137 0v1030h176l533 -641v619h241v-1026h-176l-532 641v-623h-242zM301 1329l119 117l211 -176l213 176l121 -117l-334 -270z" />
<glyph glyph-name="Omacron" unicode="&#x14c;" horiz-adv-x="1636" d="M821 1397q305 0 516 -207t211 -508q0 -303 -213 -508t-524 -205q-307 0 -515 208t-208 515q0 293 215 499t518 206zM817 1153q-186 0 -320.5 -137t-134.5 -328q0 -199 133.5 -337t323.5 -138q188 0 321.5 138t133.5 333t-133.5 332t-323.5 137zM477 1706h682v-164h-682 v164z" />
<glyph glyph-name="omacron" unicode="&#x14d;" horiz-adv-x="1236" d="M621 1030q225 0 379.5 -152.5t154.5 -373.5q0 -223 -155.5 -375t-385.5 -152q-225 0 -378.5 154t-153.5 379q0 215 158 367.5t381 152.5zM618 811q-121 0 -208.5 -89t-87.5 -214q0 -131 86 -221t210 -90q123 0 210 90t87 217t-87 217t-210 90zM322 1321h593v-164h-593 v164z" />
<glyph glyph-name="Ohungarumlaut" unicode="&#x150;" horiz-adv-x="1636" d="M821 1397q305 0 516 -207t211 -508q0 -303 -213 -508t-524 -205q-307 0 -515 208t-208 515q0 293 215 499t518 206zM817 1153q-186 0 -320.5 -137t-134.5 -328q0 -199 133.5 -337t323.5 -138q188 0 321.5 138t133.5 333t-133.5 332t-323.5 137zM934 1724l-322 -233 l-88 96l258 275zM1329 1724l-321 -233l-88 96l258 275z" />
<glyph glyph-name="ohungarumlaut" unicode="&#x151;" horiz-adv-x="1236" d="M621 1030q225 0 379.5 -152.5t154.5 -373.5q0 -223 -155.5 -375t-385.5 -152q-225 0 -378.5 154t-153.5 379q0 215 158 367.5t381 152.5zM618 811q-121 0 -208.5 -89t-87.5 -214q0 -131 86 -221t210 -90q123 0 210 90t87 217t-87 217t-210 90zM750 1323l-246 -248 l-105 74l187 278zM1063 1323l-246 -248l-102 74l184 278z" />
<glyph glyph-name="OE" unicode="&#x152;" horiz-adv-x="2123" d="M2023 1135h-479v-306h459v-231h-459v-367h479v-231h-741v184q-190 -215 -475 -215q-301 0 -510 207t-209 504t209 507t504 210q190 0 342 -92q66 -43 139 -123v184h741v-231zM799 1153q-180 0 -308.5 -137t-128.5 -328q0 -203 126 -339t313 -136q193 0 323.5 135 t130.5 334q0 193 -134 332t-322 139z" />
<glyph glyph-name="oe" unicode="&#x153;" horiz-adv-x="1642" d="M915 0v63q-143 -86 -299 -86q-225 0 -379.5 152t-154.5 371q0 223 155.5 376.5t380.5 153.5q164 0 297 -86v64h611v-205h-369v-176h356v-205h-356v-217h369v-205h-611zM618 811q-121 0 -208.5 -90t-87.5 -215q0 -129 86 -219t210 -90q123 0 210 90t87 217t-87 217 t-210 90z" />
<glyph glyph-name="Racute" unicode="&#x154;" horiz-adv-x="1177" d="M725 575l430 -575h-328l-368 549h-35v-549h-266v1366h395q233 0 348 -96q135 -113 135 -307q0 -201 -129 -308q-73 -60 -182 -80zM424 737h78q127 0 193.5 54.5t66.5 154.5q0 205 -256 205h-82v-414zM850 1724l-342 -233l-109 100l281 273z" />
<glyph glyph-name="racute" unicode="&#x155;" horiz-adv-x="958" d="M657 377l273 -377h-271l-235 352h-45v-352h-242v1008h332q178 0 270 -80q106 -94 107 -250q0 -106 -50.5 -187t-138.5 -114zM379 557h82q145 0 145 121q0 68 -35.5 96.5t-119.5 28.5h-72v-246zM745 1294l-325 -221l-105 94l267 260z" />
<glyph glyph-name="Rcommaaccent" unicode="&#x156;" horiz-adv-x="1177" d="M725 575l430 -575h-328l-368 549h-35v-549h-266v1366h395q233 0 348 -96q135 -113 135 -307q0 -201 -129 -308q-73 -60 -182 -80zM424 737h78q127 0 193.5 54.5t66.5 154.5q0 205 -256 205h-82v-414zM524 -109l221 -18l-231 -367l-137 15z" />
<glyph glyph-name="rcommaaccent" unicode="&#x157;" horiz-adv-x="958" d="M657 377l273 -377h-271l-235 352h-45v-352h-242v1008h332q178 0 270 -80q106 -94 107 -250q0 -106 -50.5 -187t-138.5 -114zM379 557h82q145 0 145 121q0 68 -35.5 96.5t-119.5 28.5h-72v-246zM420 -51l209 -19l-195 -307l-131 15z" />
<glyph glyph-name="Rcaron" unicode="&#x158;" horiz-adv-x="1177" d="M725 575l430 -575h-328l-368 549h-35v-549h-266v1366h395q233 0 348 -96q135 -113 135 -307q0 -201 -129 -308q-73 -60 -182 -80zM424 737h78q127 0 193.5 54.5t66.5 154.5q0 205 -256 205h-82v-414zM193 1776l124 120l224 -182l223 182l127 -120l-352 -285z" />
<glyph glyph-name="rcaron" unicode="&#x159;" horiz-adv-x="958" d="M657 377l273 -377h-271l-235 352h-45v-352h-242v1008h332q178 0 270 -80q106 -94 107 -250q0 -106 -50.5 -187t-138.5 -114zM379 557h82q145 0 145 121q0 68 -35.5 96.5t-119.5 28.5h-72v-246zM147 1329l117 117l211 -176l213 176l123 -117l-336 -270z" />
<glyph glyph-name="Sacute" unicode="&#x15a;" horiz-adv-x="1089" d="M965 1237l-140 -182q-98 111 -221 110q-82 0 -137 -44t-55 -107q0 -55 43 -91t163 -81q197 -72 273 -137q121 -102 121 -287q0 -201 -131 -326t-344 -125q-289 0 -469 260l172 166q96 -182 286 -182q92 0 151.5 54t59.5 138q0 88 -80 142q-49 31 -184 78 q-184 68 -260 150.5t-76 217.5q0 172 121 285t305 113q228 0 402 -152zM874 1724l-342 -233l-110 100l283 273z" />
<glyph glyph-name="sacute" unicode="&#x15b;" horiz-adv-x="874" d="M788 893l-129 -170q-57 61 -89.5 78.5t-86 17.5t-89.5 -25.5t-36 -64.5q0 -33 27 -52.5t113 -47.5q150 -51 215 -101q100 -72 100 -211q0 -150 -104.5 -245t-270.5 -95q-223 0 -362 193l-15 20l162 158q37 -66 56 -86q61 -66 155 -65q61 0 100 31.5t39 82.5 q0 49 -33.5 75t-138.5 56q-152 47 -217 111.5t-65 167.5q0 129 97 216t243 87q96 0 170.5 -29.5t158.5 -101.5zM768 1294l-326 -221l-104 94l268 260z" />
<glyph glyph-name="Scedilla" unicode="&#x15e;" horiz-adv-x="1089" d="M965 1237l-140 -182q-98 111 -221 110q-82 0 -137 -44t-55 -107q0 -55 43 -91t163 -81q197 -72 273 -137q121 -102 121 -287q0 -201 -131 -326t-344 -125q-289 0 -469 260l172 166q96 -182 286 -182q92 0 151.5 54t59.5 138q0 88 -80 142q-49 31 -184 78 q-184 68 -260 150.5t-76 217.5q0 172 121 285t305 113q228 0 402 -152zM668 -190l-250 -263l-129 82l205 285z" />
<glyph glyph-name="scedilla" unicode="&#x15f;" horiz-adv-x="874" d="M788 893l-129 -170q-57 61 -89.5 78.5t-86 17.5t-89.5 -25.5t-36 -64.5q0 -33 27 -52.5t113 -47.5q150 -51 215 -101q100 -72 100 -211q0 -150 -104.5 -245t-270.5 -95q-223 0 -362 193l-15 20l162 158q37 -66 56 -86q61 -66 155 -65q61 0 100 31.5t39 82.5 q0 49 -33.5 75t-138.5 56q-152 47 -217 111.5t-65 167.5q0 129 97 216t243 87q96 0 170.5 -29.5t158.5 -101.5zM600 -131l-238 -256l-122 72l200 272z" />
<glyph glyph-name="Scaron" unicode="&#x160;" horiz-adv-x="1089" d="M965 1237l-140 -182q-98 111 -221 110q-82 0 -137 -44t-55 -107q0 -55 43 -91t163 -81q197 -72 273 -137q121 -102 121 -287q0 -201 -131 -326t-344 -125q-289 0 -469 260l172 166q96 -182 286 -182q92 0 151.5 54t59.5 138q0 88 -80 142q-49 31 -184 78 q-184 68 -260 150.5t-76 217.5q0 172 121 285t305 113q228 0 402 -152zM223 1776l125 120l223 -182l224 182l127 -120l-353 -285z" />
<glyph glyph-name="scaron" unicode="&#x161;" horiz-adv-x="874" d="M788 893l-129 -170q-57 61 -89.5 78.5t-86 17.5t-89.5 -25.5t-36 -64.5q0 -33 27 -52.5t113 -47.5q150 -51 215 -101q100 -72 100 -211q0 -150 -104.5 -245t-270.5 -95q-223 0 -362 193l-15 20l162 158q37 -66 56 -86q61 -66 155 -65q61 0 100 31.5t39 82.5 q0 49 -33.5 75t-138.5 56q-152 47 -217 111.5t-65 167.5q0 129 97 216t243 87q96 0 170.5 -29.5t158.5 -101.5zM143 1329l119 117l211 -176l213 176l121 -117l-334 -270z" />
<glyph glyph-name="Tcommaaccent" unicode="&#x162;" horiz-adv-x="907" d="M586 0h-267v1135h-305v231h879v-231h-307v-1135zM362 -109l222 -18l-232 -367l-137 15z" />
<glyph glyph-name="tcommaaccent" unicode="&#x163;" horiz-adv-x="724" d="M483 0h-241v803h-213v205h669v-205h-215v-803zM301 -51l207 -19l-193 -307l-131 15z" />
<glyph glyph-name="Tcaron" unicode="&#x164;" horiz-adv-x="907" d="M586 0h-267v1135h-305v231h879v-231h-307v-1135zM104 1776l123 120l224 -182l225 182l127 -120l-352 -285z" />
<glyph glyph-name="tcaron" unicode="&#x165;" horiz-adv-x="724" d="M483 0h-241v803h-213v205h669v-205h-215v-803zM37 1329l117 117l211 -176l213 176l122 -117l-335 -270z" />
<glyph glyph-name="Umacron" unicode="&#x16a;" horiz-adv-x="1411" d="M424 1366v-782q0 -104 8 -151.5t35 -92.5q35 -59 99.5 -93t140 -34t140 34t99.5 93q27 45 35 92t8 152v782h266v-836q0 -231 -100 -364q-72 -92 -190.5 -144.5t-258 -52.5t-258 52.5t-190.5 144.5q-100 133 -100 364v836h266zM365 1706h684v-164h-684v164z" />
<glyph glyph-name="umacron" unicode="&#x16b;" horiz-adv-x="1081" d="M371 1008v-582q0 -113 26 -156q43 -74 144 -73q98 0 141 73q27 43 27 156v582h241v-611q0 -174 -76 -270q-111 -150 -333 -150q-225 0 -336 150q-76 96 -76 270v611h242zM244 1321h594v-164h-594v164z" />
<glyph glyph-name="Uring" unicode="&#x16e;" horiz-adv-x="1411" d="M424 1366v-782q0 -104 8 -151.5t35 -92.5q35 -59 99.5 -93t140 -34t140 34t99.5 93q27 45 35 92t8 152v782h266v-836q0 -231 -100 -364q-72 -92 -190.5 -144.5t-258 -52.5t-258 52.5t-190.5 144.5q-100 133 -100 364v836h266zM707 1886q82 0 138 -56t56 -136 q0 -82 -56.5 -138.5t-138 -56.5t-138 57.5t-56.5 139.5q0 78 57.5 134t137.5 56zM706.5 1769q-32.5 0 -55 -22.5t-22.5 -52.5q0 -33 22.5 -55.5t55 -22.5t55 22.5t22.5 55.5q0 31 -22.5 53t-55 22z" />
<glyph glyph-name="uring" unicode="&#x16f;" horiz-adv-x="1081" d="M371 1008v-582q0 -113 26 -156q43 -74 144 -73q98 0 141 73q27 43 27 156v582h241v-611q0 -174 -76 -270q-111 -150 -333 -150q-225 0 -336 150q-76 96 -76 270v611h242zM547 1436q82 0 138 -56.5t56 -138.5q0 -80 -56 -137t-136 -57q-82 0 -138.5 57t-56.5 139 q0 78 57.5 135.5t135.5 57.5zM549 1319q-33 0 -55.5 -22.5t-22.5 -53.5q0 -33 22.5 -56.5t55.5 -23.5q31 0 53.5 22.5t22.5 55.5t-22.5 55.5t-53.5 22.5z" />
<glyph glyph-name="Uhungarumlaut" unicode="&#x170;" horiz-adv-x="1411" d="M424 1366v-782q0 -104 8 -151.5t35 -92.5q35 -59 99.5 -93t140 -34t140 34t99.5 93q27 45 35 92t8 152v782h266v-836q0 -231 -100 -364q-72 -92 -190.5 -144.5t-258 -52.5t-258 52.5t-190.5 144.5q-100 133 -100 364v836h266zM803 1724l-322 -233l-88 96l256 275z M1198 1724l-321 -233l-89 96l259 275z" />
<glyph glyph-name="uhungarumlaut" unicode="&#x171;" horiz-adv-x="1081" d="M371 1008v-582q0 -113 26 -156q43 -74 144 -73q98 0 141 73q27 43 27 156v582h241v-611q0 -174 -76 -270q-111 -150 -333 -150q-225 0 -336 150q-76 96 -76 270v611h242zM641 1323l-246 -248l-104 74l186 278zM954 1323l-245 -248l-105 74l187 278z" />
<glyph glyph-name="Uogonek" unicode="&#x172;" horiz-adv-x="1411" d="M158 1366h266v-782q0 -104 8 -151.5t35 -92.5q35 -59 99.5 -93t140 -34t140 34t99.5 93q27 45 35 92t8 152v782h266v-836q0 -162 -39.5 -259t-140.5 -183q-141 -123 -141 -215q0 -35 24.5 -58.5t59.5 -23.5q51 0 115 39l-35 -160q-59 -33 -142 -32q-88 0 -147 48t-59 119 q0 100 94 177q-72 -12 -131 -13q-143 0 -263 52.5t-192 144.5q-100 133 -100 364v836z" />
<glyph glyph-name="uogonek" unicode="&#x173;" horiz-adv-x="1081" d="M811 -178l-29 -137q-55 -35 -123 -35q-82 0 -137 45t-55 112q0 94 82 170h-12q-92 -4 -185.5 38t-146.5 112q-76 96 -76 270v611h242v-582q0 -113 26 -156q43 -74 144 -73q98 0 141 73q27 43 27 156v582h241v-611q0 -176 -76 -270q-23 -31 -108 -100q-121 -98 -121 -168 q0 -27 20.5 -45.5t49.5 -18.5q43 0 96 27z" />
<glyph glyph-name="Ydieresis" unicode="&#x178;" horiz-adv-x="1193" d="M461 627l-471 739h315l295 -475l289 475h317l-479 -739v-627h-266v627zM383 1810q61 0 104 -43t43 -104t-43 -104t-104 -43t-104 43t-43 106q0 59 44 102t103 43zM813 1810q61 0 104.5 -43t43.5 -104t-43.5 -104t-104.5 -43t-104 43t-43 106q0 59 44 102t103 43z" />
<glyph glyph-name="Zacute" unicode="&#x179;" horiz-adv-x="1196" d="M485 231h629v-231h-1071l668 1135h-564v231h1004zM946 1724l-342 -233l-110 100l282 273z" />
<glyph glyph-name="zacute" unicode="&#x17a;" horiz-adv-x="925" d="M410 205h442v-205h-825l491 803h-397v205h778zM811 1294l-326 -221l-104 94l266 260z" />
<glyph glyph-name="Zdotaccent" unicode="&#x17b;" horiz-adv-x="1196" d="M485 231h629v-231h-1071l668 1135h-564v231h1004zM653.5 1810q63.5 0 108.5 -45t45 -108.5t-45 -109.5t-109 -46q-66 0 -110.5 46t-44.5 112q0 61 46 106t109.5 45z" />
<glyph glyph-name="zdotaccent" unicode="&#x17c;" horiz-adv-x="925" d="M410 205h442v-205h-825l491 803h-397v205h778zM518 1389q59 0 99 -41t40 -98.5t-41 -98.5t-98 -41t-98 41t-41 100q0 55 41 96.5t98 41.5z" />
<glyph glyph-name="Zcaron" unicode="&#x17d;" horiz-adv-x="1196" d="M485 231h629v-231h-1071l668 1135h-564v231h1004zM289 1776l123 120l223 -182l225 182l127 -120l-352 -285z" />
<glyph glyph-name="zcaron" unicode="&#x17e;" horiz-adv-x="925" d="M410 205h442v-205h-825l491 803h-397v205h778zM186 1329l117 117l213 -176l213 176l121 -117l-334 -270z" />
<glyph glyph-name="florin" unicode="&#x192;" d="M741 911h217l-22 -131h-217l-98 -547q-33 -180 -75 -278t-114 -160q-113 -96 -330 -96q-31 0 -104 6l41 229q70 -4 72 -4q121 0 174 68t90 272l90 510h-121l18 131h127l41 230q63 362 381 362q88 0 170 -37l-39 -221q-59 31 -116 31q-61 0 -96 -43t-56 -150z" />
<glyph glyph-name="Scommaaccent" unicode="&#x218;" horiz-adv-x="1089" d="M965 1237l-140 -182q-98 111 -221 110q-82 0 -137 -44t-55 -107q0 -55 43 -91t163 -81q197 -72 273 -137q121 -102 121 -287q0 -201 -131 -326t-344 -125q-289 0 -469 260l172 166q96 -182 286 -182q92 0 151.5 54t59.5 138q0 88 -80 142q-49 31 -184 78 q-184 68 -260 150.5t-76 217.5q0 172 121 285t305 113q228 0 402 -152zM459 -109l221 -18l-231 -367l-138 15z" />
<glyph glyph-name="scommaaccent" unicode="&#x219;" horiz-adv-x="874" d="M788 893l-129 -170q-57 61 -89.5 78.5t-86 17.5t-89.5 -25.5t-36 -64.5q0 -33 27 -52.5t113 -47.5q150 -51 215 -101q100 -72 100 -211q0 -150 -104.5 -245t-270.5 -95q-223 0 -362 193l-15 20l162 158q37 -66 56 -86q61 -66 155 -65q61 0 100 31.5t39 82.5 q0 49 -33.5 75t-138.5 56q-152 47 -217 111.5t-65 167.5q0 129 97 216t243 87q96 0 170.5 -29.5t158.5 -101.5zM375 -51l207 -19l-193 -307l-131 15z" />
<glyph glyph-name="circumflex" unicode="&#x2c6;" horiz-adv-x="800" d="M731 1190l-117 -117l-213 174l-213 -174l-120 117l333 268z" />
<glyph glyph-name="caron" unicode="&#x2c7;" horiz-adv-x="800" d="M68 1329l116 117l213 -176l213 176l121 -117l-334 -270z" />
<glyph glyph-name="breve" unicode="&#x2d8;" horiz-adv-x="741" d="M68 1366h153q33 -117 149.5 -117t147.5 117h156q-16 -121 -97 -190.5t-206 -69.5t-206 69.5t-97 190.5z" />
<glyph glyph-name="dotaccent" unicode="&#x2d9;" horiz-adv-x="415" d="M207 1389q59 0 99 -41t40 -98.5t-41 -98.5t-98 -41t-98 41t-41 100q0 55 41 96.5t98 41.5z" />
<glyph glyph-name="ring" unicode="&#x2da;" horiz-adv-x="524" d="M260 1436q82 0 138.5 -56.5t56.5 -138.5q0 -80 -56.5 -137t-136.5 -57q-82 0 -138 57t-56 139q0 78 57 135.5t135 57.5zM262 1319q-33 0 -55.5 -22.5t-22.5 -53.5q0 -33 22.5 -56.5t55.5 -23.5q31 0 53.5 22.5t22.5 55.5t-22.5 55.5t-53.5 22.5z" />
<glyph glyph-name="ogonek" unicode="&#x2db;" horiz-adv-x="479" d="M188 8h158q-102 -78 -102 -149q0 -27 20.5 -45.5t48.5 -18.5q43 0 97 27l-29 -137q-55 -35 -121 -35q-82 0 -137 45t-55 112q-1 113 120 201z" />
<glyph glyph-name="tilde" unicode="&#x2dc;" horiz-adv-x="749" d="M182 1130h-114q14 106 62 169t120 63q47 0 133 -37q84 -35 109 -35q23 0 38 14.5t33 55.5h117q-18 -109 -71.5 -171.5t-127.5 -62.5q-41 0 -119 35q-76 35 -112 35q-43 0 -68 -66z" />
<glyph glyph-name="hungarumlaut" unicode="&#x2dd;" horiz-adv-x="1024" d="M588 1323l-246 -248l-104 74l184 278zM901 1323l-246 -248l-104 74l186 278z" />
<glyph glyph-name="endash" unicode="&#x2013;" d="M154 573h852v-206h-852v206z" />
<glyph glyph-name="emdash" unicode="&#x2014;" horiz-adv-x="1378" d="M0 573h1378v-206h-1378v206z" />
<glyph glyph-name="quoteleft" unicode="&#x2018;" horiz-adv-x="624" d="M315 821l-227 27l289 545l158 -21z" />
<glyph glyph-name="quoteright" unicode="&#x2019;" horiz-adv-x="595" d="M266 1393l228 -27l-289 -545l-158 21z" />
<glyph glyph-name="quotesinglbase" unicode="&#x201a;" horiz-adv-x="595" d="M266 283l228 -27l-289 -543l-158 19z" />
<glyph glyph-name="quotedblleft" unicode="&#x201c;" horiz-adv-x="1009" d="M702 821l-229 27l289 545l158 -21zM315 821l-227 27l289 545l158 -21z" />
<glyph glyph-name="quotedblright" unicode="&#x201d;" horiz-adv-x="1009" d="M307 1393l228 -27l-289 -545l-158 21zM692 1393l228 -27l-289 -545l-158 21z" />
<glyph glyph-name="quotedblbase" unicode="&#x201e;" horiz-adv-x="1009" d="M307 283l228 -27l-289 -543l-158 19zM692 283l228 -27l-289 -543l-158 19z" />
<glyph glyph-name="dagger" unicode="&#x2020;" d="M463 1534h235v-328h324v-211h-324v-1323h-235v1323h-324v211h324v328z" />
<glyph glyph-name="daggerdbl" unicode="&#x2021;" d="M463 1493h235v-328h324v-211h-324v-438h324v-211h-324v-674h-235v674h-324v211h324v438h-324v211h324v328z" />
<glyph glyph-name="bullet" unicode="&#x2022;" horiz-adv-x="1366" d="M690 977q113 0 196 -84t83 -199q0 -119 -83 -201.5t-200 -82.5t-201 82.5t-84 199.5q0 119 84 202t205 83z" />
<glyph glyph-name="ellipsis" unicode="&#x2026;" horiz-adv-x="1738" d="M289 293q68 0 115 -47t47 -113q0 -68 -47.5 -115t-112.5 -47q-68 0 -115 47.5t-47 114.5q0 66 47 113t113 47zM868 293q68 0 115 -47t47 -113q0 -68 -47 -115t-113 -47q-68 0 -114.5 47.5t-46.5 114.5q0 66 46.5 113t112.5 47zM1448 293q68 0 115 -47t47 -113 q0 -68 -47 -115t-113 -47q-68 0 -115 47.5t-47 114.5q0 66 47 113t113 47z" />
<glyph glyph-name="perthousand" unicode="&#x2030;" horiz-adv-x="2394" d="M409.5 1382q149.5 0 248 -91t98.5 -230q0 -141 -99.5 -233.5t-250.5 -92.5q-150 0 -247.5 92.5t-97.5 235.5q0 137 99.5 228t249 91zM408 1235q-72 0 -124.5 -51t-52.5 -123q0 -76 52.5 -128t126.5 -52q72 0 124 52t52 126q0 72 -52 124t-126 52zM1145 1411l108 -61 l-813 -1407l-108 63zM1182 625q147 0 245.5 -92.5t98.5 -229.5q0 -139 -99.5 -231t-249 -92t-246.5 92t-97 235q0 135 99 226.5t249 91.5zM1180 479q-72 0 -124 -51t-52 -123q0 -76 51 -128t125 -52q72 0 124 52t52 126q0 72 -51 124t-125 52zM1986.5 625q149.5 0 248 -91.5 t98.5 -230.5t-99.5 -231t-251.5 -92q-150 0 -247 92t-97 235q0 135 99.5 226.5t249 91.5zM1985 479q-72 0 -124.5 -51t-52.5 -123q0 -76 51.5 -128t127.5 -52q72 0 124 52t52 126q0 72 -52 124t-126 52z" />
<glyph glyph-name="guilsinglleft" unicode="&#x2039;" horiz-adv-x="649" d="M297 444l250 -329l-146 -105l-319 434l319 439l144 -101z" />
<glyph glyph-name="guilsinglright" unicode="&#x203a;" horiz-adv-x="649" d="M354 444l-250 338l144 101l319 -439l-319 -434l-146 105z" />
<glyph glyph-name="fraction" unicode="&#x2044;" horiz-adv-x="292" d="M500 1411l108 -61l-813 -1407l-108 63z" />
<glyph glyph-name="Euro" unicode="&#x20ac;" d="M453 883h487l-61 -158h-465q-2 -16 -2 -47q0 -23 4 -72h430l-62 -157h-321q57 -117 169.5 -189t239.5 -72q57 0 170 31v-233q-123 -25 -186 -25q-217 0 -405.5 139.5t-257.5 348.5h-162l61 157h70q-4 25 -4 70q0 31 2 49h-129l61 158h94q66 229 256.5 373.5t425.5 144.5 q102 0 258 -45l-84 -215q-92 29 -163 28q-141 0 -255 -76.5t-171 -209.5z" />
<glyph glyph-name="trademark" unicode="&#x2122;" horiz-adv-x="1476" d="M336 1212v-624h-174v624h-168v154h510v-154h-168zM532 588l140 792h127l190 -473l201 473h127l125 -792h-174l-60 428l-186 -438h-68l-180 438l-67 -428h-175z" />
<glyph glyph-name="partialdiff" unicode="&#x2202;" horiz-adv-x="1024" d="M115 1130l32 232q385 -43 590 -219q260 -223 260 -592q0 -258 -137 -413.5t-366 -155.5q-199 0 -337.5 137t-138.5 332q0 184 122 309t302 125q152 0 248 -92q-59 141 -210.5 231t-364.5 106zM500 662q-90 0 -148.5 -61.5t-58.5 -156.5q0 -96 59.5 -159.5t147.5 -63.5 q90 0 149.5 63.5t59.5 158t-59.5 157t-149.5 62.5z" />
<glyph glyph-name="uni2206" unicode="&#x2206;" horiz-adv-x="1366" d="M33 0l499 1366h289l510 -1366h-1298zM414 242h530l-266 800z" />
<glyph glyph-name="summation" unicode="&#x2211;" horiz-adv-x="1366" d="M1270 1536v-506h-238l-28 266h-660l510 -749l-510 -819h678l16 272h252v-512h-1247v266l500 793l-500 723v266h1227z" />
<glyph glyph-name="minus" unicode="&#x2212;" d="M123 764h915v-164h-915v164z" />
<glyph glyph-name="radical" unicode="&#x221a;" horiz-adv-x="1366" d="M1366 1694v-240h-365l-337 -1454h-355l-116 553h-193v240h414l37 -175q27 -174 26 -296h23q4 92 30.5 277t57.5 316l180 779h598z" />
<glyph glyph-name="notequal" unicode="&#x2260;" horiz-adv-x="1024" d="M535 963l112 221l168 -88l-70 -133h209v-240h-317l-68 -135h385v-240h-493l-101 -196l-167 86l57 110h-182v240h288l72 135h-360v240h467z" />
<glyph glyph-name="lessequal" unicode="&#x2264;" horiz-adv-x="1024" d="M954 1372v-250l-606 -288l604 -287l2 -250l-886 426v223zM954 240v-240h-886v240h886z" />
<glyph glyph-name="greaterequal" unicode="&#x2265;" horiz-adv-x="1024" d="M68 297v250l606 289l-604 286l-2 250l886 -426v-223zM68 0v240h886v-240h-886z" />
<glyph glyph-name="lozenge" unicode="&#x25ca;" horiz-adv-x="1366" d="M684 1419l530 -735l-530 -737l-532 737zM684 1061l-274 -377l274 -377l272 377z" />
<glyph glyph-name="uniF6C3" unicode="&#xf6c3;" horiz-adv-x="460" d="M184 -51l207 -19l-192 -307l-131 15z" />
<glyph glyph-name="sfthyphen" horiz-adv-x="460" d="M0 573h461v-206h-461v206z" />
</font>
</defs>
</svg>
