<?xml version="1.0" standalone="no"?>
<!DOCTYPE svg PUBLIC "-//W3C//DTD SVG 1.1//EN" "http://www.w3.org/Graphics/SVG/1.1/DTD/svg11.dtd" >
<svg xmlns="http://www.w3.org/2000/svg">
<metadata>
This is a custom SVG webfont generated by Font Squirrel.
</metadata>
<defs>
<font id="webfontDxcO1ZC2" horiz-adv-x="1536" >
<font-face units-per-em="4096" ascent="3277" descent="-819" />
<missing-glyph horiz-adv-x="921" />
<glyph unicode=" "  horiz-adv-x="921" />
<glyph unicode="&#x09;" horiz-adv-x="921" />
<glyph unicode="&#xa0;" horiz-adv-x="921" />
<glyph unicode="!" horiz-adv-x="1241" d="M1159 2527l-614 -1704q-12 -45 -78 -45q-80 0 -80 59q0 11 2 23l205 1806q17 181 242 181q184 0 276 -99q62 -67 62 -143q0 -38 -15 -78zM557 172q0 -106 -78 -182q-77 -76 -180 -76t-180 76q-78 76 -78 182t78 182q77 76 180 76t180 -76q78 -76 78 -182z" />
<glyph unicode="&#x22;" horiz-adv-x="1761" d="M1835 2650q0 -26 -16 -74l-402 -880q-12 -24 -44 -24q-11 0 -25 3q-38 5 -62 21q-24 17 -20 37l53 966q5 70 65 125q61 55 156 55q56 0 86 -8q103 -24 156 -88t53 -133zM1049 2650q0 -40 -17 -74l-401 -880q-12 -24 -42 -24q-11 0 -24 3q-86 8 -86 58l53 966q5 70 66 125 t160 55q52 0 82 -8q102 -24 155 -88q54 -65 54 -133z" />
<glyph unicode="#" horiz-adv-x="2985" d="M2834 1929q0 -127 -57 -127h-684l-229 -794h614q45 0 45 -127t-57 -127h-684l-242 -815q-12 -41 -143 -41q-37 0 -62 4q-31 5 -45 14q-17 11 -12 23l246 815h-594l-242 -815q-17 -41 -143 -41q-36 0 -60 4q-29 5 -45 14q-19 11 -14 23l246 815h-578q-45 0 -45 127 q0 48 17 88q16 39 36 39h643l238 794h-577q-50 0 -50 127q0 48 17 88q17 39 41 39h643l254 848q8 41 143 41q17 0 45 -2q21 -1 39 -6q20 -5 27 -12q9 -9 4 -21l-250 -848h590l254 848q8 41 139 41q21 0 49 -2q21 -1 39 -6q19 -5 29 -12q11 -8 6 -21l-254 -848h618 q45 0 45 -127zM1835 1802h-594l-233 -794h594z" />
<glyph unicode="$" horiz-adv-x="2187" d="M1966 2490q-40 -352 -45 -651q0 -33 -74 -33q-65 0 -65 33q-24 426 -279 545l-53 -205l-115 -418l-57 -205q5 -5 10 -9.5l25 -23.5l51 -48l96 -93l84 -88q64 -69 84 -102l66 -105q42 -64 59 -120q14 -46 31 -127q14 -69 14 -148q0 -344 -268 -561q-267 -216 -715 -221 l-49 -168q-4 -30 -54 -30q-11 0 -24 1q-27 4 -49 17q-21 12 -16 37l45 155q-109 17 -295 76q-191 61 -312 68q63 503 70 712q7 33 82 33q61 0 61 -33q66 -593 439 -692l258 942q-3 3 -8 7.5l-28.5 27l-62.5 59.5l-110 107q-29 29 -90 98q-70 79 -92 119l-64 110 q-41 70 -53 138t-12 137q0 308 239 528q241 221 645 221q53 0 74 -4l57 205q3 30 42 30q16 0 36 -5q66 -8 66 -49l-58 -197q36 -5 187 -37q136 -28 227 -33zM1364 2425q-30 0 -45 -4q-328 -12 -328 -365q0 -188 168 -377zM1282 508q0 192 -192 397l-230 -835q197 0 309 118 q113 119 113 320z" />
<glyph unicode="%" horiz-adv-x="3850" d="M3543 1036q0 -427 -301 -776q-302 -350 -719 -350q-238 0 -391 164q-154 165 -154 422q0 422 299 772t717 350q242 0 395 -162q154 -163 154 -420zM2806 2523l-1762 -2670q-12 -13 -30 -13q-28 0 -72 29q-77 49 -53 82l1511 2294q-259 -140 -524 -140q-98 0 -201 25 q13 -67 13 -139q-4 -420 -304 -768q-298 -346 -712 -346q-244 0 -396 161q-153 162 -153 420q0 423 301 770q302 348 715 348q323 0 467 -254q147 -57 290 -57q407 0 754 356q12 15 30 15q27 0 68 -31q79 -45 58 -82zM3113 1286q0 176 -127 176q-124 0 -260 -198 q-138 -200 -229 -488q-93 -294 -93 -534q0 -176 127 -176q124 0 260 200q141 207 230 490q92 291 92 530zM1257 2241v40q-101 61 -151 140q-120 -21 -250 -221q-130 -201 -219 -480q-88 -277 -88 -512q0 -180 127 -180q123 0 260 199q138 200 229 485q92 288 92 529z" />
<glyph unicode="&#x26;" horiz-adv-x="3260" d="M3445 2085q0 -279 -207 -465t-502 -186q-102 0 -184 36q0 -639 -395 -1097q-396 -459 -977 -459q-446 0 -742 266q-295 265 -295 676q0 454 342 774q338 316 813 316h13l61 135q123 263 123 409q0 47 -61 197q-62 153 -62 246q0 121 70 205q68 81 176 81q124 0 190 -81 q68 -83 68 -222q0 -153 -229 -635l-811 -1728q225 -147 458 -147q205 0 385 57q179 57 342 182q161 124 260 352q100 229 107 539q-253 172 -377 172q-151 0 -151 -135q0 -74 98 -141t98 -162q0 -78 -63 -133q-64 -56 -150 -56q-113 0 -196 86q-82 85 -82 242q0 242 211 444 q212 203 497 203q157 0 393 -151q238 -152 316 -152q168 0 168 135q0 76 -98 144q-99 69 -99 163q0 86 64 148q62 61 161 61q107 0 187 -86t80 -233zM1151 1610q-94 20 -175 20q-194 0 -317 -110q-176 -156 -176 -435q0 -220 222 -434z" />
<glyph unicode="'" horiz-adv-x="966" d="M1049 2650q0 -40 -17 -74l-401 -880q-12 -24 -42 -24q-11 0 -24 3q-86 8 -86 58l53 966q5 70 66 125t160 55q52 0 82 -8q102 -24 155 -88q54 -65 54 -133z" />
<glyph unicode="(" d="M1917 2884q8 -24 8 -42q0 -27 -20 -40q-561 -386 -869 -998q-307 -611 -307 -1226q0 -628 348 -1049q21 -21 -28 -78q-39 -48 -63 -48q-6 0 -11 3q-359 236 -561 592q-201 354 -201 756q0 676 465 1271q466 597 1186 908q2 1 5 1q9 0 23 -14q19 -19 25 -36z" />
<glyph unicode=")" d="M1167 1585q0 -675 -465 -1274q-464 -597 -1181 -909q-3 -1 -5 -1q-11 0 -24 13q-17 17 -24 37q-8 24 -8 42q0 27 20 40q560 388 868 999q307 610 307 1229t-348 1045q-20 20 25 78q15 19 43 36q23 14 31 14q3 0 4 -1q354 -235 557 -592q200 -352 200 -756z" />
<glyph unicode="*" horiz-adv-x="1572" d="M1581 2241q-24 -94 -139 -127q-47 -15 -147 -15q-36 0 -81 2q-56 3 -99 3q-86 0 -128 -11q50 -45 199 -111q150 -66 198 -114q70 -64 70 -139q0 -18 -4 -37q-16 -50 -41 -74q-54 -54 -118 -54q-19 0 -38 5q-46 12 -98 57q-48 48 -125 193q-76 143 -121 188q-5 -27 -5 -72 q0 -60 9 -151q8 -81 8 -138t-8 -90q-21 -83 -75 -122q-41 -30 -89 -30q-20 0 -40 5q-74 17 -107 78q-20 38 -20 82q0 29 8 61q17 69 104 203q88 136 105 203q-63 -22 -193 -117q-131 -96 -196 -117q-61 -16 -119 -4q-87 21 -115 111q-7 24 -7 50q0 18 3 36q24 94 139 127 q45 14 142 14q39 0 88 -2t88 -2q95 0 137 14q-52 47 -199 109t-198 108q-70 70 -70 145q0 18 4 36q12 39 41 73q54 54 115 54q18 0 37 -5q50 -12 102 -57q49 -49 125 -192q77 -145 121 -189q5 27 5 73q0 61 -9 153q-8 82 -8 139t8 90q22 80 75 119q39 29 88 29q20 0 41 -5 q74 -17 107 -78q20 -38 20 -82q0 -29 -8 -61q-17 -69 -104 -203q-89 -136 -105 -198q71 22 197 114q129 94 192 115q56 16 119 4q87 -21 115 -110q7 -24 7 -50q0 -18 -3 -36z" />
<glyph unicode="+" horiz-adv-x="1740" d="M1528 905q-16 -127 -70 -127h-573l-94 -569q-17 -53 -152 -53q-59 0 -98 20q-40 21 -33 41l94 561h-536q-41 0 -41 75q0 23 4 52q16 127 69 127h566l90 570q8 53 155 53q47 0 90 -19q42 -18 37 -43l-90 -561h545q41 0 41 -75q0 -23 -4 -52z" />
<glyph unicode="," horiz-adv-x="1126" d="M647 193q0 -157 -69 -304t-168 -249q-103 -106 -209 -185q-109 -81 -189 -121q-77 -38 -110 -43h-4q-19 0 -39 35q-23 40 -23 64q0 11 74 61l160 109q88 62 159 159q74 101 74 203q0 25 -24 25q-10 0 -25 -4t-29 -4q-87 0 -139 61q-53 62 -53 152q0 148 100 249 q101 103 232 103q126 0 204 -86t78 -225z" />
<glyph unicode="-" horiz-adv-x="1449" d="M1163 905q0 -143 -53 -143h-995q-54 0 -54 143q0 144 54 144h995q53 0 53 -144z" />
<glyph unicode="." horiz-adv-x="1126" d="M631 209q0 -119 -88 -207t-207 -88q-120 0 -205 88q-86 89 -86 207t86 207q85 88 205 88q119 0 207 -88t88 -207z" />
<glyph unicode="/" horiz-adv-x="1396" d="M1688 2839l-1717 -2925q-9 -19 -33 -19q-32 0 -90 35q-79 41 -79 76q0 10 6 19l1712 2928q12 17 36 17q34 0 91 -33q78 -47 78 -83q0 -8 -4 -15z" />
<glyph unicode="0" horiz-adv-x="2097" d="M1827 1204q0 -480 -336 -885t-811 -405q-275 0 -449 203t-174 501q0 480 336 885q337 406 811 406q275 0 449 -203q174 -202 174 -502zM1348 1516q0 229 -177 229q-137 0 -288 -238q-148 -234 -248 -575q-98 -334 -98 -621q0 -233 172 -233q139 0 290 237 q150 235 250 578q99 341 99 623z" />
<glyph unicode="1" horiz-adv-x="1761" d="M1638 1790q0 -30 -16 -59q-17 -31 -33 -31q-222 -24 -286 -66q-95 -62 -140 -266l-221 -917q-24 -99 -24 -156q0 -65 40 -102q42 -39 84 -46q52 -9 150 -20q19 -4 33 -4q20 -4 20 -53q0 -31 -14 -62q-15 -33 -31 -33q-64 0 -301 13q-219 12 -321 12t-314 -12 q-229 -13 -293 -13q-20 0 -20 54q0 87 49 94q228 24 279 61q97 60 147 267l217 917q25 103 25 156q0 26 -4 45q-4 20 -15 35q-11 16 -20 26q-13 14 -31 21q-18 6 -33 14q-12 6 -45 12q-9 2 -19 4l-17 3.5t-11 1.5q-10 1 -55 6q-48 5 -58 8q-20 0 -20 49q0 31 14 63 q15 35 31 35q82 0 301 -12t322 -12q102 0 315 12t295 12q20 0 20 -57z" />
<glyph unicode="2" horiz-adv-x="1990" d="M1626 565q-156 -307 -258 -594q-133 29 -684 29q-631 0 -754 -25q-15 -4 -26 17q-10 20 -10 45q0 29 12 33l233 178l246 188l207 170q133 111 196 182l138 162q79 95 108 176q31 85 31 164q0 116 -61 193q-62 78 -189 78q-209 0 -422 -230q-16 -16 -41 -16t-59 28 q-35 29 -35 46q0 6 8 24q406 496 811 496q228 0 375 -142q145 -141 145 -329q0 -247 -272 -500q-275 -255 -788 -561l598 8q128 5 190 49q65 47 166 180q25 25 74 9q22 -7 45 -25q17 -13 17 -27q0 -3 -1 -6z" />
<glyph unicode="3" horiz-adv-x="1777" d="M1475 1438q0 -183 -187 -367q-185 -182 -481 -289q237 -21 381 -178q143 -156 143 -387q0 -294 -231 -567q-230 -271 -549 -422q-318 -150 -592 -150q-189 0 -297 66t-108 176q0 98 69 158q68 59 172 59q91 0 148 -63q54 -59 102 -127q46 -64 98 -64q234 0 451 256 t217 555q0 205 -113 301q-114 97 -280 97q-81 0 -160 -50q-20 -11 -59 17q-39 29 -39 69q0 46 28 58q344 174 549 372q209 201 209 357q0 107 -57 176q-58 70 -168 70q-212 0 -377 -177q-23 -16 -41 -16q-29 0 -63 37t-19 57q158 190 359 320q197 127 395 127 q232 0 366 -140t134 -331z" />
<glyph unicode="4" horiz-adv-x="2138" d="M1868 176q0 -66 -27 -121t-59 -55h-447l-200 -836q-4 -37 -82 -61q-81 -25 -172 -25q-70 0 -133 11q-64 11 -91 30q-30 21 -26 45l200 836h-1064q-37 0 -37 41q0 53 45 98l1773 1688q68 65 135 65q37 0 64 -18t22 -43l-380 -1577h446q33 0 33 -78zM1118 1204l-983 -950 h750z" />
<glyph unicode="5" horiz-adv-x="1777" d="M1679 1896q0 -103 -157 -327q-158 -226 -256 -226q-340 0 -631 111l-111 -233q-16 -32 -16 -66q0 -53 86 -98q309 -123 483 -350q176 -229 176 -519q0 -423 -415 -766q-416 -344 -973 -344q-25 0 -25 74q0 23 13 49q13 25 24 25q361 0 610 239q250 240 250 576 q0 241 -162 426q-162 184 -391 262q-37 16 -37 70q0 23 13 49l491 1007q38 62 74 62q13 0 109 -27q88 -25 245 -53q150 -27 285 -27q126 0 184 115q16 21 70 21q25 0 43 -15t18 -35z" />
<glyph unicode="6" horiz-adv-x="2109" d="M2105 2695q0 -33 -24 -45q-1499 -712 -1499 -2118q0 -454 266 -454q192 0 344 315q151 314 151 709q0 254 -180 254q-76 0 -155 -53q-30 -25 -70 36q-38 53 -16 74q156 156 372 156q238 0 389 -174q152 -175 152 -465q0 -389 -322 -703q-320 -313 -727 -313 q-293 0 -501 203q-207 203 -207 559q0 332 129 639q128 305 332 538q201 229 469 426q267 196 528 320q265 126 516 194q1 1 3 1q11 0 30 -31q20 -33 20 -68z" />
<glyph unicode="7" horiz-adv-x="1789" d="M1794 1815q0 -10 -4 -19t-4 -14l-1606 -2691q-25 -54 -155 -54q-51 0 -91 21q-31 16 -31 34q0 5 3 11l1442 2253h-738q-246 0 -381 -307q-12 -33 -77 -33q-63 0 -70 37q115 292 237 827q116 -29 701 -29q627 0 733 25q17 5 29 -16t12 -45z" />
<glyph unicode="8" horiz-adv-x="2023" d="M1958 2212q0 -241 -152 -416q-153 -175 -454 -338q254 -410 254 -700q0 -331 -269 -588q-268 -256 -653 -256q-246 0 -451 166q-204 165 -204 448q0 479 741 848q-266 410 -266 688q0 300 235 514q236 215 576 215q266 0 454 -178q189 -179 189 -403zM1614 2261 q0 167 -74 268t-205 101q-143 0 -233 -99t-90 -254q0 -107 43 -233q43 -125 84 -203l131 -231q344 230 344 651zM1106 590q0 154 -59 291q-61 142 -187 348q-459 -258 -459 -721q0 -204 93 -318q91 -112 235 -112q173 0 275 141t102 371z" />
<glyph unicode="9" horiz-adv-x="2097" d="M1815 1122q0 -364 -185 -714q-186 -353 -475 -609q-293 -260 -620 -444q-333 -188 -650 -277q-1 -1 -3 -1q-11 0 -27 30q-19 35 -19 70q0 33 21 45q341 163 594 344q247 178 452 428q201 246 307 575q105 327 105 738q0 438 -254 438q-189 0 -326 -283t-137 -663 q0 -109 47 -176q47 -66 125 -66q99 0 168 57q8 8 31 -4q24 -13 35 -32q37 -57 12 -82q-152 -160 -381 -160q-237 0 -383 164t-146 454q0 390 289 672q291 283 678 283q337 0 539 -219q203 -220 203 -568z" />
<glyph unicode=":" horiz-adv-x="1130" d="M922 1405q0 -119 -86 -205t-205 -86q-118 0 -207 86q-88 85 -88 205q0 119 88 207t207 88q120 0 205 -88q86 -89 86 -207zM528 209q0 -118 -86 -207q-85 -88 -204 -88q-124 0 -209 88q-86 89 -86 207t86 207q85 88 209 88q119 0 204 -88q86 -89 86 -207z" />
<glyph unicode=";" horiz-adv-x="1130" d="M881 1405q0 -119 -86 -205t-205 -86q-118 0 -207 86q-88 85 -88 205q0 119 88 207t207 88q120 0 205 -88q86 -89 86 -207zM545 193q0 -155 -70 -304q-69 -147 -168 -249q-103 -106 -209 -185q-111 -83 -188 -121t-111 -43h-4q-19 0 -39 35q-22 38 -22 64q0 12 73 61 l160 109q90 63 160 159q74 101 74 203q0 25 -25 25q-10 0 -26 -4t-31 -4q-83 0 -135 63q-54 65 -54 150q0 146 101 249t231 103q127 0 205 -86t78 -225z" />
<glyph unicode="&#x3c;" horiz-adv-x="2072" d="M1962 1667l-1577 -741l1167 -697q18 -12 18 -40q0 -36 -30 -99q-22 -47 -53 -74q-23 -20 -38 -20q-6 0 -11 4l-1372 807q-54 29 -54 123t54 123l1781 843q5 2 10 2q18 0 41 -22q31 -29 52 -70q28 -49 28 -94t-16 -45z" />
<glyph unicode="=" horiz-adv-x="1941" d="M1761 1212q0 -127 -53 -127h-1397q-21 0 -37 39q-16 38 -16 88q0 131 53 131h1397q53 0 53 -131zM1528 598q0 -127 -53 -127h-1397q-20 0 -37 39q-16 38 -16 88q0 131 53 131h1397q53 0 53 -131z" />
<glyph unicode="&#x3e;" horiz-adv-x="2072" d="M1864 967q0 -98 -54 -123l-1781 -844q-6 -2 -12 -2q-42 0 -95 92q-32 64 -32 100q0 28 20 39l1577 742l-1163 696q-22 15 -22 44q0 36 34 95q22 47 53 74q23 20 38 20q6 0 11 -4l1372 -806q54 -29 54 -123z" />
<glyph unicode="?" horiz-adv-x="1695" d="M1757 2216q0 -197 -108 -350q-107 -152 -265 -252q-157 -99 -311 -184q-153 -84 -264 -195q-109 -109 -109 -236q0 -147 136 -147q46 0 98 25q44 21 82 49q33 24 37 24q21 0 45 -37t24 -65q0 -37 -129 -94q-131 -58 -243 -58q-221 0 -344 131t-123 308q0 175 114 327 t281 260l330 207q166 100 278 217q115 120 115 246q0 123 -66 207t-176 84q-262 0 -262 -361q0 -114 -72 -186t-174 -72q-111 0 -180 72q-70 73 -70 195q0 192 205 354q206 162 479 162q303 0 488 -191q184 -190 184 -440zM606 172q0 -106 -76 -182t-178 -76q-106 0 -182 76 t-76 182t76 182t182 76q102 0 178 -76t76 -182z" />
<glyph unicode="@" horiz-adv-x="3158" d="M3023 1638q0 -432 -281 -718q-280 -285 -649 -285q-241 0 -352 117q-71 75 -71 190q0 65 22 143q-122 -196 -291 -307q-166 -110 -324 -110q-115 0 -184 80q-70 81 -70 215q0 215 185 489q186 274 434 459q250 186 430 186q143 0 176 -102l37 94q24 45 192 45 q47 0 88 -10q45 -11 66 -25q22 -15 18 -26l-397 -906q-42 -106 -42 -178q0 -47 18 -80q45 -82 172 -82q265 0 460 228t195 583q0 451 -315 727q-316 277 -865 277q-544 0 -870 -361t-326 -913q0 -531 328 -889q326 -356 856 -356q568 0 954 287q25 22 66 -41q40 -61 12 -82 q-451 -377 -1048 -377q-662 0 -1104 434q-441 434 -441 1061q0 593 445 1038t1128 445q610 0 979 -348t369 -902zM1970 1843q0 86 -61 86q-173 0 -432 -336q-260 -337 -260 -544q0 -127 102 -127q127 0 389 376t262 545z" />
<glyph unicode="A" horiz-adv-x="3153" d="M2761 70q0 -34 -15 -64q-16 -31 -34 -31q-122 0 -351 13q-211 12 -321 12q-124 0 -367 -12q-263 -13 -383 -13q-20 0 -20 54q0 30 16 59q17 31 33 35q259 17 332 88q75 73 82 264l36 512h-790l-377 -471q-127 -167 -127 -254q0 -127 221 -139q21 0 21 -53q0 -34 -15 -64 q-16 -31 -34 -31q-106 0 -277 13q-157 12 -268 12q-91 0 -248 -12q-171 -13 -256 -13q-20 0 -20 54q0 87 45 94q239 21 393 119q157 99 319 290l1934 2323q12 33 90 33q90 0 90 -37l-119 -2347q-1 -19 -1 -37q0 -179 69 -244q76 -72 321 -100q21 -7 21 -53zM1831 2056 l-721 -905h668z" />
<glyph unicode="B" horiz-adv-x="2781" d="M2634 2187q0 -257 -207 -446q-208 -190 -555 -230q295 -37 463 -211t168 -415q0 -403 -330 -656q-331 -254 -846 -254q-118 0 -389 13q-250 12 -377 12t-356 -12q-249 -13 -369 -13q-20 0 -20 54q0 29 18 59q18 31 39 35q254 29 326 96q71 67 112 248l443 1868 q24 107 24 139q0 94 -63 137q-64 44 -269 68q-20 4 -20 53q0 28 18 61t35 33q135 0 336 -12t324 -12t303 12t319 12q417 0 645 -174t228 -465zM2048 2216q0 213 -92 328q-92 114 -268 114h-50q-192 0 -237 -192l-213 -893h246q290 0 452 172q162 173 162 471zM1872 852 q0 299 -125 430t-387 131h-213l-225 -946q-18 -75 -18 -132q0 -71 28 -114q51 -78 231 -78q312 0 510 203q199 204 199 506z" />
<glyph unicode="C" horiz-adv-x="2920" d="M2789 2847q-48 -302 -106 -811q0 -37 -74 -37t-74 37q-37 659 -491 659q-484 0 -889 -532q-405 -533 -405 -1291q0 -373 194 -585q195 -213 522 -213q590 0 926 790q12 37 82 37q28 0 49 -12q22 -12 17 -25q-94 -346 -201 -827q-469 -127 -930 -127q-559 0 -907 311 q-350 312 -350 828q0 494 266 913q265 418 770 672t1147 254q238 0 454 -41z" />
<glyph unicode="D" horiz-adv-x="3354" d="M3183 1696q0 -689 -553 -1200q-554 -512 -1332 -512q-73 0 -335 8t-345 8q-197 0 -774 -25q-24 0 -24 45q0 31 20 64q21 35 37 39q249 28 326 98q75 67 116 246l443 1860q20 86 20 139q0 94 -63 137q-64 44 -268 68q-21 7 -21 53t16 72q16 27 41 22q76 -4 697 -4 q94 0 325 6t322 6q637 0 995 -305q357 -305 357 -825zM2572 1790q0 423 -196 647q-193 221 -571 221h-15l-135 -8q-103 -5 -166 -51q-63 -47 -96 -186l-480 -2016q-14 -60 -14 -104q0 -55 23 -82q40 -46 143 -51l213 -8q300 0 551 151q252 151 409 391t246 527 q88 285 88 569z" />
<glyph unicode="E" horiz-adv-x="2752" d="M2626 2826q-26 -233 -33 -409q0 -12 -0.5 -36t-1 -68.5t-0.5 -82.5t-0.5 -82.5t-1 -68t-0.5 -35.5q0 -33 -78 -33q-70 0 -70 33q-17 270 -162 432t-395 162h-196q-242 0 -299 -242l-205 -868h340q200 0 307 74q105 73 188 303q12 32 74 32q31 0 55 -8q23 -8 19 -24 l-60 -234l-59 -233q-27 -104 -61 -285q-31 -163 -50 -248q-12 -33 -73 -33q-36 0 -58 11q-20 10 -16 22q10 80 10 144q0 148 -53 217q-76 98 -264 98h-340l-213 -897q-21 -90 -21 -139q0 -164 189 -164h385q279 0 514 192q234 191 317 463q0 17 49 17q32 0 68 -19 q35 -19 31 -35q-119 -396 -201 -807q-781 25 -1208 25q-428 0 -1209 -25q-24 0 -24 54q0 29 18 59q18 31 39 35q255 29 328 96t114 248l443 1868q24 107 24 139q0 94 -63 137q-64 44 -268 68q-21 5 -21 53q0 26 19 61q18 33 34 33q426 -24 1057 -24q656 0 1082 24z" />
<glyph unicode="F" horiz-adv-x="2580" d="M2634 2826q-17 -304 -17 -332q-4 -154 -4 -270t4 -196q0 -33 -73 -33q-74 0 -74 33q-24 273 -178 442q-153 168 -424 168h-180q-242 0 -299 -242l-209 -885h323q198 0 305 76q109 77 191 305q17 33 74 33q31 0 57 -8q25 -8 20 -25l-61 -235l-61 -236q-23 -103 -54 -260 q-31 -158 -57 -272q-12 -33 -74 -33q-37 0 -57 10q-22 11 -17 23q8 74 8 135q0 158 -53 229q-74 99 -258 99h-323l-213 -885q-21 -90 -21 -139q0 -90 68 -135q70 -46 272 -70q21 -5 21 -53q0 -29 -15 -62t-30 -33q-123 0 -377 13q-234 12 -336 12t-330 -12 q-247 -13 -354 -13q-21 0 -21 54q0 28 17 59t33 35q261 28 340 92q77 62 122 252l447 1868q20 86 20 139q0 90 -67 135q-69 46 -273 70q-20 4 -20 53q0 36 14 64q15 30 35 30q426 -24 1098 -24q635 0 1061 24z" />
<glyph unicode="G" horiz-adv-x="3137" d="M3101 1270q0 -24 -17 -58q-16 -32 -32 -36q-207 -21 -285 -86q-80 -66 -125 -259l-66 -286q-64 -258 -64 -383q0 -27 3 -47q-548 -205 -1135 -205q-533 0 -880 313q-348 313 -348 826q0 369 157 704q157 334 439 588q280 252 692 399q414 148 895 148q353 0 561 -41 q-55 -340 -103 -860q0 -37 -73 -37q-74 0 -74 37q-37 712 -545 712q-238 0 -479 -139q-242 -140 -434 -377q-193 -239 -316 -584q-122 -344 -122 -727q0 -368 192 -583t496 -215q247 0 370 71q124 72 162 228l119 504q12 41 12 77q0 107 -86 154q-87 47 -303 68 q-20 7 -20 53q0 35 14 63q16 31 35 31q145 0 348 -10t336 -10q132 0 319 10t336 10q21 0 21 -53z" />
<glyph unicode="H" horiz-adv-x="3493" d="M3654 2781q0 -23 -21 -61q-20 -36 -37 -41q-259 -29 -327 -94q-70 -67 -115 -250l-442 -1868q-21 -90 -21 -139q0 -94 64 -138q62 -43 268 -67q20 -7 20 -53q0 -29 -18 -62t-39 -33q-125 0 -367 13q-223 12 -325 12t-299 -12q-213 -13 -324 -13q-20 0 -20 54q0 29 18 59 q18 31 39 35q115 12 188 37q69 24 111 78q39 50 55 94q15 40 39 135l201 864h-1167l-201 -864q-25 -86 -25 -139q0 -70 11 -101t71 -59q61 -28 201 -45q20 -4 20 -53q0 -29 -18 -62t-39 -33q-122 0 -340 13q-201 12 -303 12q-104 0 -324 -12q-239 -13 -344 -13q-24 0 -24 54 q0 29 18 59q18 31 39 35q255 29 328 96t114 248l443 1868q24 107 24 139q0 94 -63 137q-64 44 -268 68q-21 5 -21 53q0 27 17 61q17 33 36 33q143 0 367 -12t326 -12t299 12t323 12q21 0 21 -45q0 -23 -21 -61q-20 -36 -37 -41q-110 -12 -186 -37q-72 -24 -113 -76 q-40 -50 -55 -94q-16 -46 -39 -137l-196 -840h1167l201 840q20 86 20 139q0 98 -51 141q-50 43 -232 64q-20 7 -20 53q0 28 18 61t39 33q139 0 340 -12t303 -12q103 0 324 12t344 12q25 0 25 -45z" />
<glyph unicode="I" horiz-adv-x="1961" d="M1995 2781q0 -27 -19 -63q-18 -34 -39 -39q-254 -29 -325 -94q-73 -67 -113 -250l-442 -1868q-25 -111 -25 -139q0 -94 64 -138q62 -43 268 -67q20 -4 20 -53q0 -29 -18 -62t-35 -33q-124 0 -366 13q-223 12 -326 12q-107 0 -326 -12q-237 -13 -346 -13q-20 0 -20 54 q0 29 18 59q18 31 39 35q254 29 326 96q71 67 112 248l447 1868q20 86 20 139q0 94 -63 137q-64 44 -268 68q-21 7 -21 53q0 28 18 61t35 33q144 0 367 -12t326 -12t323 12t348 12q21 0 21 -45z" />
<glyph unicode="J" horiz-adv-x="2379" d="M2335 2666q0 -106 -97 -192t-247 -119q-62 -96 -275 -942h357q24 -5 24 -57q0 -34 -16 -70q-16 -37 -41 -37h-369l-180 -757q-168 -697 -573 -1156q-404 -458 -971 -458q-214 0 -393 118q-181 119 -181 312q0 124 76 203t211 79q116 0 199 -73t118 -162q33 -86 91 -162 q56 -74 125 -74q365 0 647 1188q94 393 270 942h-414q-24 0 -24 62q0 29 18 63t39 39h434q190 566 418 881q-73 -37 -205 -37q-130 0 -342 162q-210 161 -313 161q-108 0 -164 -55q-57 -55 -57 -125q0 -57 112 -157q113 -101 113 -191q0 -118 -72 -190t-207 -72 q-114 0 -194 84q-80 85 -80 203q0 299 258 559t606 260q141 0 246 -49q106 -49 162 -111q62 -69 127 -131q74 -71 137 -94q62 163 168 270q107 107 229 107q106 0 168 -62t62 -160z" />
<glyph unicode="K" horiz-adv-x="3162" d="M3256 2773q0 -86 -41 -94q-186 -21 -305 -74q-113 -51 -256 -172l-938 -799l705 -1241q140 -259 540 -344q25 -8 25 -57q0 -42 -18 -70q-14 -22 -30 -22q-4 0 -9 2q-407 73 -955 73l-618 1160q-55 98 -105 145q-46 43 -116 43l-205 -856q-21 -90 -21 -139q0 -94 64 -138 q62 -43 268 -67q21 -7 21 -53q0 -27 -19 -62q-18 -33 -39 -33q-124 0 -366 13q-224 12 -326 12q-104 0 -324 -12q-239 -13 -348 -13q-20 0 -20 54q0 29 18 59q18 31 39 35q255 29 326 94t116 250l443 1868q20 86 20 139q0 94 -63 137q-64 44 -268 68q-21 7 -21 53 q0 26 19 61q18 33 38 33q145 0 365 -12t328 -12q102 0 311 12t336 12q20 0 20 -45q0 -25 -20 -61t-37 -41q-233 -24 -305 -96q-73 -73 -113 -248l-196 -824q139 0 258 107l897 782q98 82 98 156q0 94 -234 123q-24 7 -24 53q0 30 14 61q15 33 31 33q98 0 268 -12t281 -12 t252 12t219 12q20 0 20 -53z" />
<glyph unicode="L" horiz-adv-x="2670" d="M2474 844q-149 -363 -283 -869q-781 25 -1142 25q-424 0 -1205 -25q-24 0 -24 54q0 29 18 59q18 31 39 35q254 29 326 96q71 66 116 248l443 1868q20 86 20 139q0 94 -63 137q-64 44 -268 68q-21 7 -21 53q0 28 21 61t36 33q145 0 365 -12t324 -12q102 0 325 12t346 12 q25 0 25 -45q0 -23 -21 -61q-21 -37 -36 -41q-255 -29 -326 -94q-72 -66 -117 -250l-434 -1835q-33 -144 -33 -172q0 -164 193 -164h303q287 0 534 205q249 207 392 524q4 16 65 16q38 0 64 -22q20 -17 20 -33q0 -5 -2 -10z" />
<glyph unicode="M" horiz-adv-x="4120" d="M4133 2773q0 -87 -45 -94q-270 -29 -354 -96t-117 -248l-258 -1868q-14 -86 -14 -144q0 -15 1 -28q5 -71 86 -111t275 -61q20 -4 20 -53q0 -31 -14 -62q-15 -33 -31 -33q-116 0 -360 13q-225 12 -348 12t-348 -12q-244 -13 -365 -13q-25 0 -25 54q0 28 17 59t33 35 q261 28 350 98q88 68 112 246l267 1843l-1348 -2367q-17 -33 -94 -33q-74 0 -86 33l-328 2285l-565 -1761q-37 -83 -37 -144q0 -54 29 -90q61 -77 340 -110q20 -7 20 -53q0 -30 -16 -62q-16 -33 -33 -33q-92 0 -279 13q-172 12 -270 12q-102 0 -278 -12q-190 -13 -271 -13 q-20 0 -20 54q0 87 49 94q284 33 381 104q99 72 156 240l647 1868q25 82 25 142q0 68 -33 106q-62 72 -336 96q-21 5 -21 53q0 34 15 64t34 30q49 0 244 -12t256 -12q69 0 225 12t242 12l307 -1986l1147 1986q102 0 270 -12t234 -12q83 0 242 12t249 12q21 0 21 -53z" />
<glyph unicode="N" horiz-adv-x="3321" d="M3473 2773q0 -87 -49 -94q-221 -24 -301 -101q-79 -76 -112 -243l-459 -2384q-8 -41 -82 -41q-65 0 -98 33l-1434 2142l-315 -1618q-17 -66 -17 -119q0 -75 35 -121q61 -80 272 -104q21 -5 21 -53q0 -31 -14 -62q-15 -33 -31 -33q-73 0 -248 13q-162 12 -244 12 q-86 0 -245 -12q-172 -13 -230 -13q-24 0 -24 54q0 30 16 59q17 31 33 35q226 24 317 102q93 79 133 242l394 1802q16 51 16 115q0 246 -393 291q-21 7 -21 53q0 27 17 61q16 33 32 33q65 0 176 -6t160 -6q45 0 162 6t240 6l1347 -1999l266 1512q8 46 8 85q0 94 -48 150 q-70 80 -291 109q-25 8 -25 53q0 36 14 64q15 30 35 30q82 0 238 -12t250 -12q90 0 241 12t238 12q20 0 20 -53z" />
<glyph unicode="O" horiz-adv-x="3149" d="M2978 1769q0 -742 -524 -1300q-525 -559 -1213 -559q-443 0 -766 289t-323 833q0 742 522 1299t1210 557q203 0 395 -68t351 -197t254 -350q94 -219 94 -504zM2376 2028q0 700 -496 700q-299 0 -563 -291q-265 -292 -416 -741t-151 -922q0 -700 495 -700q299 0 563 291 q265 292 416 741q152 451 152 922z" />
<glyph unicode="P" horiz-adv-x="2691" d="M2675 2064q0 -384 -348 -641q-347 -256 -799 -256q-210 0 -418 41l-176 -741q-25 -86 -25 -139q0 -90 68 -135q70 -46 272 -70q21 -5 21 -53q0 -34 -15 -64q-15 -31 -34 -31q-119 0 -373 13q-234 12 -336 12t-330 -12q-247 -13 -354 -13q-21 0 -21 54q0 28 17 59t33 35 q151 16 235 39q83 22 131 76q49 55 60 90q12 39 36 139l447 1868q20 86 20 139q0 90 -67 135q-69 46 -273 70q-20 4 -20 53q0 30 14 61q15 33 31 33q143 0 328 -12t282 -12q102 0 291 12t332 12q467 0 719 -198t252 -564zM2048 2146q0 247 -104 379q-105 133 -269 133 q-143 0 -196 -53q-55 -55 -95 -221l-208 -889q-7 -32 -7 -56q0 -49 27 -71q40 -33 180 -33q303 0 488 230q184 229 184 581z" />
<glyph unicode="Q" horiz-adv-x="2985" d="M4567 -561q0 -283 -338 -514q-339 -232 -833 -232q-238 0 -492 78t-457 185q-203 106 -438 282q-226 169 -381 301l-342 309l-254 246q-314 -160 -586 -160q-168 0 -286 82q-119 83 -119 222q0 176 192 315q191 139 459 139q340 0 639 -237q397 237 666 620 q268 382 268 846q0 353 -190 561q-191 209 -510 209q-366 0 -615 -233q-250 -234 -250 -603q0 -266 127 -421q127 -156 349 -156q180 0 282 84q103 85 103 207q0 65 -56 106q-58 43 -125 60q-70 18 -125 73t-55 146q0 103 76 172t182 69q152 0 242 -124q90 -125 90 -330 q0 -324 -229 -535t-549 -211q-331 0 -549 203q-217 202 -217 485q0 518 418 861q419 344 1019 344q536 0 854 -279t318 -692q0 -451 -336 -834q-335 -382 -1032 -751q94 -76 350 -305l432 -375q195 -161 436 -334q239 -171 488 -268q242 -94 465 -94q467 0 467 208 q0 65 -52 146q-51 80 -51 149q0 116 76 193q76 78 199 78q126 0 198 -86t72 -205zM897 213q-191 184 -397 184q-111 0 -181 -47q-69 -46 -69 -121q0 -57 57 -96t160 -39q204 0 430 119z" />
<glyph unicode="R" horiz-adv-x="3059" d="M2810 -12q0 -37 -21 -64q-18 -23 -38 -23q-3 0 -7 1q-378 73 -893 73l-475 1147q-33 79 -90 107q-56 28 -164 28l-192 -790q-21 -90 -21 -139q0 -95 68 -140q66 -44 256 -65q20 -4 20 -53q0 -36 -14 -64q-15 -31 -35 -31q-120 0 -364 13q-225 12 -328 12q-102 0 -332 -12 q-249 -13 -352 -13q-25 0 -25 54q0 28 17 59t33 35q117 11 202 37q73 22 123 41q45 17 74 71q32 59 37 80l30 115l443 1868q24 83 24 139q0 90 -67 135q-69 46 -277 70q-20 7 -20 53q0 29 16 61q16 33 33 33q144 0 336 -12t291 -12q102 0 299 12t340 12q499 0 727 -168 q227 -167 227 -504q0 -290 -260 -520t-571 -291l434 -942q69 -147 190 -225q124 -80 309 -131q17 -5 17 -57zM2081 2187q0 471 -410 471q-135 0 -188 -47t-86 -186l-238 -1008h189q331 0 532 228t201 542z" />
<glyph unicode="S" horiz-adv-x="2359" d="M2167 2785q-56 -561 -62 -717q0 -32 -77 -32q-70 0 -70 32q-8 309 -141 484q-134 176 -347 176q-182 0 -288 -115q-105 -114 -105 -315q0 -156 94 -299q92 -140 228 -264q142 -130 264 -254q131 -133 225 -318q94 -184 94 -397q0 -370 -294 -612q-297 -244 -775 -244 q-202 0 -458 82t-389 94q79 612 86 778q8 33 86 33q61 0 61 -33q78 -790 639 -790q233 0 362 137q130 138 130 367q0 145 -97 294q-97 148 -231 275l-273 260q-139 136 -233 305q-96 172 -96 361q0 335 252 575t702 240q171 0 383 -49q214 -49 330 -54z" />
<glyph unicode="T" horiz-adv-x="2859" d="M3043 2859q-77 -461 -106 -864q0 -33 -74 -33t-74 33q-21 304 -157 473q-137 170 -387 170h-70q-85 0 -129 -33q-43 -32 -64 -119l-479 -2019q-24 -107 -24 -139q0 -90 73 -135q75 -46 283 -70q25 -8 25 -53q0 -28 -17 -62q-17 -33 -33 -33q-118 0 -380 13 q-242 12 -345 12q-101 0 -331 -12q-249 -13 -357 -13q-20 0 -20 54q0 30 16 59q17 31 33 35q271 29 344 90q74 62 119 254l483 2019q21 90 -8 121t-131 31h-123q-233 0 -455 -187q-221 -187 -323 -432q-8 -41 -78 -41q-30 0 -53 13q-18 10 -18 23q0 2 1 5q134 439 226 840 q286 -57 1343 -57q995 0 1290 57z" />
<glyph unicode="U" horiz-adv-x="3117" d="M3391 2773q0 -87 -49 -94q-286 -33 -379 -103t-133 -241l-299 -1262q-274 -1163 -1188 -1163q-605 0 -847 326q-159 214 -159 516q0 159 44 342l295 1241q20 86 20 139q0 91 -65 135q-68 46 -275 70q-20 7 -20 53q0 29 16 61q16 33 33 33q143 0 373 -12t332 -12t333 12 t355 12q20 0 20 -53q0 -87 -49 -94q-191 -21 -281 -64q-92 -43 -120 -96q-29 -53 -62 -184l-311 -1311q-54 -227 -54 -395q0 -177 60 -287q117 -215 469 -215q672 0 897 946l303 1262q21 90 21 139q0 89 -70 135q-71 46 -274 70q-25 8 -25 53q0 36 14 64q15 30 35 30 q91 0 250 -12t258 -12t252 12t256 12q24 0 24 -53z" />
<glyph unicode="V" horiz-adv-x="3137" d="M3478 2773q0 -86 -50 -94q-220 -21 -342 -107q-119 -84 -284 -303l-1762 -2326q-24 -33 -90 -33q-34 0 -61 14q-29 15 -29 27l-123 2347q-7 199 -92 278t-309 103q-21 7 -21 53q0 27 17 61q16 33 33 33q139 0 337 -12t310 -12q127 0 364 12t377 12q25 0 25 -53 q0 -23 -17 -57q-16 -33 -32 -37q-255 -17 -324 -90q-63 -67 -63 -227q0 -17 1 -35l58 -1602l1155 1561q110 155 110 241q0 136 -253 152q-21 5 -21 53q0 36 14 64q15 30 35 30q119 0 293 -12t285 -12q91 0 215 12t223 12q21 0 21 -53z" />
<glyph unicode="W" horiz-adv-x="4366" d="M4686 2773q0 -87 -49 -94q-169 -12 -269 -96q-97 -81 -272 -314l-1720 -2326q-16 -33 -90 -33q-34 0 -62 16q-29 17 -29 29l-159 1032l-774 -1044q-24 -33 -95 -33q-29 0 -57 16q-29 17 -29 29l-417 2343q-33 194 -97 278q-63 82 -239 103q-21 7 -21 53q0 27 17 61 q16 33 32 33q140 0 269 -12t239 -12q106 0 273 12t268 12q20 0 20 -53q0 -31 -14 -59q-15 -31 -31 -35q-119 -8 -143 -76q-9 -26 -9 -71q0 -76 25 -205l312 -1704l426 618l-168 1073q-33 197 -84 275t-170 90q-21 7 -21 53q0 34 15 64t34 30q71 0 234 -12t242 -12 q91 0 254 12t258 12q20 0 20 -53q0 -25 -16 -57t-33 -37q-122 -7 -156 -78q-17 -36 -17 -107q0 -62 13 -151l78 -516l307 459q85 121 113 194q16 40 16 73q0 31 -14 56q-29 54 -131 70q-13 5 -25 53q0 94 45 94q95 0 224 -12t194 -12q49 0 172 12t229 12q17 0 25 -53 q0 -87 -45 -94q-175 -12 -299 -113q-123 -100 -270 -297l-500 -688l160 -967l1175 1672q91 124 113 202q7 25 7 47q0 48 -32 82q-47 50 -170 62q-20 7 -20 53q0 36 14 64q15 30 35 30q127 0 248 -12t207 -12q81 0 198 12t215 12q21 0 21 -53z" />
<glyph unicode="X" horiz-adv-x="3207" d="M3330 2773q0 -87 -49 -94q-200 -21 -322 -92q-125 -72 -309 -252l-790 -787l512 -1081l41 -88l16 -35.5l12 -28t6 -12.5q6 -11 35 -53t51 -49q21 -7 68 -29q44 -20 100 -31t133 -18q25 -8 25 -53q0 -30 -16 -62q-17 -33 -33 -33q-81 0 -299 13q-201 12 -295 12 q-86 0 -340 -12q-275 -13 -401 -13q-25 0 -25 54q0 30 16 59q17 31 33 35q165 17 219 53q56 38 56 107q0 57 -54 184l-319 680l-639 -680q-111 -114 -111 -193q0 -65 56 -100t190 -51q21 -7 21 -53q0 -34 -15 -64q-15 -31 -35 -31q-135 0 -301 13q-153 12 -231 12 q-69 0 -225 -12q-169 -13 -283 -13q-21 0 -21 54q0 86 46 94q210 24 323 88q107 61 307 256l840 844l-487 1024q-83 176 -179 248t-301 96q-20 4 -20 53q0 30 14 61q15 33 31 33q98 0 317 -12t318 -12q110 0 352 12t381 12q25 0 25 -53q0 -23 -17 -57q-16 -32 -33 -37 q-282 -29 -282 -180q0 -66 49 -164l291 -623l590 623q114 123 114 192q0 123 -266 152q-20 4 -20 53q0 36 14 64q15 30 35 30q127 0 286 -12t263 -12q70 0 223 12t293 12q16 0 16 -53z" />
<glyph unicode="Y" horiz-adv-x="3084" d="M3342 2376v-5q0 -26 -37 -61q-74 -41 -86 -12q-99 246 -421 246q-336 0 -641 -449q-307 -452 -465 -1124l-119 -500q-21 -95 -21 -139q0 -94 68 -139q70 -46 272 -70q21 0 21 -49q0 -33 -15 -66t-34 -33q-125 0 -375 13q-231 12 -334 12t-332 -12q-249 -13 -352 -13 q-25 0 -25 58q0 24 17 55t33 35q269 28 346 92q76 62 121 256l139 586q107 470 107 781q0 177 -35 304q-96 348 -433 348q-259 0 -495 -278q-25 -25 -82 37q-26 31 -26 52q0 10 5 17q139 233 365 402q225 168 483 168q315 0 535 -265q219 -264 219 -694q0 -42 -8 -164 q220 487 522 805q301 318 588 318q204 0 344 -158q139 -157 151 -354z" />
<glyph unicode="Z" horiz-adv-x="2924" d="M2843 2765q0 -16 -13 -29l-2101 -2572h692q377 0 607 180q229 180 376 520q17 29 70 29q39 0 63 -19q22 -18 15 -38q-214 -653 -254 -877q-182 41 -1131 41q-997 0 -1175 -37q-24 -5 -43 19t-19 55q0 9 9 29l2109 2572h-635q-602 0 -876 -631q-12 -29 -62 -29 q-35 0 -63 17q-26 16 -19 37q169 530 221 811q182 -41 1065 -41q948 0 1102 37q24 5 43 -19t19 -55z" />
<glyph unicode="[" horiz-adv-x="1888" d="M2195 2888q6 -17 6 -32q0 -28 -22 -50q-247 -238 -586 -238q-77 0 -143 12q-156 -587 -348 -1396q-200 -832 -320 -1409q99 12 111 12q365 0 508 -233q25 -25 -21 -78q-45 -66 -69 -49q-195 73 -492 73q-153 0 -379 -41t-247 -41q-30 0 -30 31q0 6 1 14l209 832 q178 699 200 795q4 24 -12 40q-17 17 -61 29q-62 17 -86 21q-51 10 -111 16q-32 7 -20 61q5 20 20 41q17 25 29 25q306 37 323 107l164 749l160 721q17 45 49 45q16 0 225 -39t414 -39q117 0 275 25q148 23 204 49q12 5 27 -12q14 -15 22 -41z" />
<glyph unicode="\" horiz-adv-x="2592" d="M2621 1659q0 -42 -28 -86q-29 -45 -53 -45l-414 12l-352 -1053q-45 -119 -45 -184t45 -65q90 0 268 157q179 158 186 158q33 0 68 -35t35 -55q0 -28 -140 -162q-139 -133 -346 -262t-342 -129q-147 0 -227 78t-80 213q0 98 45 233l164 475q-677 -999 -1098 -999 q-122 0 -194 82t-72 209q0 98 45 233l377 1102l-316 -8q-41 0 -41 82q0 40 29 86q29 45 53 45h344l152 442q12 28 111 49t168 21q32 0 67 -4q26 -3 78 -13q40 -8 63 -22q25 -16 21 -31l-152 -442h652l151 442q7 28 107 49q99 21 168 21q33 0 69 -4q29 -3 80 -13 q42 -8 64 -22q24 -15 20 -31l-156 -442h385q41 0 41 -82zM1630 1536l-659 4l-348 -1028q-45 -123 -45 -193q0 -53 36 -53q114 0 467 449q352 447 549 821z" />
<glyph unicode="]" horiz-adv-x="1888" d="M1610 2904q-26 -110 -209 -831q-191 -753 -201 -795q-5 -24 12 -41t62 -29q50 -13 86 -20q66 -12 110 -17q33 -8 21 -61q-5 -17 -21 -41q-17 -25 -28 -25q-308 -38 -324 -106l-164 -750l-159 -720q-17 -46 -50 -46q-17 0 -225 39t-414 39q-122 0 -274 -24 q-148 -24 -201 -49q-11 -4 -26 12q-16 17 -23 41q-5 19 -5 34q0 32 22 48q237 237 581 237q75 0 144 -12q154 578 348 1397q192 800 319 1409q-107 -13 -110 -13q-357 0 -508 234q-21 21 20 78q49 66 74 49q190 -74 487 -74q153 0 379 41t248 41q30 0 30 -31q0 -6 -1 -14z " />
<glyph unicode="^" horiz-adv-x="1564" d="M1663 2179q-4 -32 -39 -65q-34 -33 -68 -33q-25 0 -45 16l-475 344l-712 -344q-20 -16 -50 -16q-26 0 -49 26q-21 23 -21 50q0 5 1 10q0 25 28 49l787 627q32 32 78 32t69 -32l488 -627q9 -16 9 -28q0 -5 -1 -9z" />
<glyph unicode="_" horiz-adv-x="1974" d="M1790 -127q0 -127 -49 -127h-1995q-53 0 -53 127t53 127h1995q49 0 49 -127z" />
<glyph unicode="`" d="M1290 2154q0 -28 -41 -63t-61 -35q-11 0 -29 8l-643 451q-49 33 -49 94q0 90 78 168t176 78q61 0 94 -45l467 -623q8 -8 8 -33z" />
<glyph unicode="a" horiz-adv-x="2138" d="M2052 1761l-553 -1274q-65 -149 -65 -200q0 -49 36 -49q62 0 195 139t141 139q29 0 56 -33q26 -32 26 -53q0 -37 -119 -162q-118 -124 -292 -241t-297 -117q-275 0 -275 221q0 165 127 406q-165 -268 -389 -447q-225 -180 -418 -180q-148 0 -233 106q-86 107 -86 287 q0 214 145 477q144 262 355 477q212 216 448 361q240 147 420 147q84 0 147 -36q65 -37 82 -99l62 148q33 61 254 61q61 0 118 -12q56 -12 91 -31q26 -14 26 -28q0 -4 -2 -7zM1401 1466q0 111 -78 111q-144 0 -369 -213q-223 -211 -397 -494q-172 -280 -172 -456 q0 -88 31 -127q30 -37 104 -37q111 0 326 244q218 247 385 538q170 296 170 434z" />
<glyph unicode="b" horiz-adv-x="2048" d="M1888 1413q0 -327 -225 -684q-225 -356 -563 -588q-338 -231 -645 -231q-231 0 -344 110q-115 112 -115 308q0 177 94 422l594 1560q45 118 45 184q0 75 -197 99q-32 7 -32 69t32 62q163 28 408 98q242 69 350 119q50 29 90 29q37 0 37 -45q0 -55 -24 -107l-562 -1462 q360 479 742 479q315 0 315 -422zM1401 1348q0 168 -135 168q-131 0 -326 -228q-197 -230 -336 -522q-141 -296 -141 -483q0 -148 106 -148q160 0 361 236q202 237 336 524q135 289 135 453z" />
<glyph unicode="c" horiz-adv-x="1683" d="M1593 1499q0 -90 -65 -149q-66 -60 -160 -60q-82 0 -135 53t-76 115q-23 63 -63 115q-41 53 -103 53q-53 0 -129 -82q-73 -79 -153 -223q-79 -143 -134 -369t-55 -481q0 -278 217 -278q100 0 238 98q141 100 225 209q8 13 33 -4t41 -45t8 -45q-62 -136 -293 -316 t-461 -180q-216 0 -374 170t-158 436q0 282 168 590q167 306 438 518q269 211 537 211q189 0 321 -104q133 -105 133 -232z" />
<glyph unicode="d" horiz-adv-x="2191" d="M2454 2925q0 -33 -21 -107l-811 -2245q-74 -198 -74 -254q0 -65 41 -65q61 0 178 147q118 148 121 148q30 0 58 -33q28 -32 28 -53q0 -42 -94 -170q-94 -129 -250 -256q-155 -127 -291 -127q-262 0 -262 258q0 145 103 381q-164 -279 -375 -459t-416 -180 q-185 0 -299 135q-115 136 -115 356q0 324 205 664q206 341 504 555q299 215 561 215q196 0 279 -115l205 590q45 118 45 184q0 75 -197 99q-33 7 -33 69t33 62q465 85 750 217q50 29 86 29q41 0 41 -45zM1446 1499q0 160 -152 160q-172 0 -362 -195q-191 -196 -318 -491 q-127 -296 -127 -563q0 -193 131 -193q140 0 343 270q203 271 344 578t141 434z" />
<glyph unicode="e" horiz-adv-x="1671" d="M1503 1462q0 -266 -282 -485t-705 -219q-16 -99 -16 -213q0 -336 233 -336q268 0 492 311q8 13 32 -4q26 -18 43 -43q18 -27 11 -43q-85 -180 -307 -350q-221 -170 -447 -170q-246 0 -403 166q-158 167 -158 387q0 329 182 653q184 327 440 522q259 197 484 197 q210 0 305 -104q96 -105 96 -269zM1106 1442q0 155 -127 155q-140 0 -264 -202q-125 -204 -170 -477q258 0 409 178q152 179 152 346z" />
<glyph unicode="f" horiz-adv-x="1413" d="M2257 2687q0 -115 -78 -197t-192 -82q-77 0 -136 48q-57 47 -86 104q-28 57 -79 106q-52 50 -117 50q-95 0 -162 -37q-68 -38 -117 -103t-92 -192q-44 -129 -78 -268l-88 -371q-3 -15 -12 -57h450q37 0 37 -82q0 -46 -22 -86q-23 -41 -47 -41l-463 12l-336 -1409 q-151 -622 -451 -926q-298 -303 -647 -303q-203 0 -354 107q-150 106 -150 241q0 111 70 181q69 69 193 69q87 0 155 -55q69 -56 107 -119q38 -64 90 -119t110 -55q118 0 179 115q58 110 116 397l394 1827q7 49 -41 49h-328q-37 0 -37 65q0 58 45 66q426 50 438 127 q118 481 480 870q360 387 815 387q189 0 311 -94q123 -94 123 -225z" />
<glyph unicode="g" horiz-adv-x="1904" d="M1999 1528q-5 -54 -31 -113q-27 -59 -55 -59l-266 8q8 -78 8 -115q0 -343 -275 -594q-273 -249 -692 -249q-94 0 -141 -29t-47 -62q0 -57 114 -102q112 -44 277 -90q144 -40 323 -103q165 -58 277 -167q115 -112 115 -259q0 -282 -308 -512q-307 -229 -704 -229 q-422 0 -678 150t-256 366q0 163 164 303t438 209q-262 111 -262 250q0 111 121 205t301 139q-287 156 -287 479q0 356 277 619q275 262 641 262q352 0 508 -242l413 17q30 0 30 -42q0 -17 -5 -40zM1196 1466q0 205 -147 205q-145 0 -297 -278q-154 -281 -154 -623 q0 -86 39 -143q40 -58 113 -58q176 0 311 281q135 280 135 616zM1192 -618q0 82 -51 145q-52 64 -168 113q-105 44 -228 81q-113 33 -307 78q-164 -41 -288 -153q-125 -113 -125 -260q0 -173 149 -271q148 -98 424 -98q247 0 420 106q174 107 174 259z" />
<glyph unicode="h" horiz-adv-x="2220" d="M1999 1372q0 -336 -168 -682q-167 -345 -420 -563q-251 -217 -481 -217q-83 0 -156 55q-74 56 -74 146q0 81 58 139q57 57 147 57q77 0 137 -63q61 -64 80 -64q103 0 232 373q129 372 129 741q0 201 -144 201q-192 0 -481 -391q-288 -390 -485 -1075q-7 -27 -101 -49 q-92 -21 -153 -21q-63 0 -148 21q-78 19 -78 44q0 3 1 5l716 2281q41 108 41 184q0 75 -200 99q-37 7 -37 69t32 62q157 28 400 98q236 68 346 119q38 29 86 29q41 0 41 -45q0 -38 -25 -107l-499 -1577q393 594 831 594q163 0 268 -125q105 -124 105 -338z" />
<glyph unicode="i" horiz-adv-x="1355" d="M1405 2572q0 -120 -88 -209q-89 -90 -211 -90q-124 0 -213 88q-90 89 -90 211q0 124 88 213q89 90 215 90q122 0 211 -90q88 -89 88 -213zM1102 1573q0 -139 -74 -287l-381 -799q-69 -151 -69 -204q0 -45 36 -45q66 0 215 155q150 156 162 156q29 0 56 -33q26 -32 26 -53 q0 -38 -127 -168q-130 -133 -321 -258q-194 -127 -334 -127q-132 0 -197 65t-65 168q0 104 82 275l417 856q66 135 66 201q0 49 -41 49q-57 0 -219 -172t-174 -172q-31 0 -54 32q-24 33 -24 54q0 42 121 176q123 137 305 264q184 129 315 129q135 0 207 -72t72 -190z" />
<glyph unicode="j" horiz-adv-x="1355" d="M1380 2576q0 -122 -90 -211q-89 -88 -213 -88t-213 88q-90 89 -90 211q0 123 90 213t213 90t213 -90t90 -213zM1143 1573q0 -93 -62 -287l-417 -1200q-217 -641 -523 -938q-304 -295 -657 -295q-204 0 -358 107t-154 241q0 110 70 183q68 71 192 71q88 0 156 -55 q69 -56 110 -119q40 -62 97 -119q55 -55 112 -55q61 0 105 64q42 61 112 260l643 1843q41 120 41 196q0 58 -45 58q-59 0 -243 -199t-191 -199q-29 0 -57 33q-29 34 -29 54q0 38 133 184t332 291q197 143 342 143q291 0 291 -262z" />
<glyph unicode="k" horiz-adv-x="2162" d="M1966 1434q0 -222 -246 -418t-651 -234q40 -175 225 -370q184 -195 308 -195q98 0 98 98q0 45 -39 84t-39 43q0 28 31 62q30 33 55 33q61 0 127 -80q66 -79 66 -170q0 -161 -121 -269q-122 -108 -334 -108q-246 0 -481 213q-237 214 -371 553l-221 -647q-7 -28 -103 -49 q-94 -21 -155 -21q-62 0 -146 21q-76 19 -76 44q0 3 1 5l749 2281q41 108 41 184q0 75 -201 99q-37 7 -37 69t33 62q157 28 400 98q236 68 346 119q50 29 86 29q41 0 41 -45q0 -50 -21 -107l-479 -1401q357 418 733 418q180 0 281 -115q100 -113 100 -286zM1466 1376 q0 156 -131 156q-181 0 -405 -227q-225 -228 -225 -351q0 -90 122 -90q299 0 469 158t170 354z" />
<glyph unicode="l" horiz-adv-x="1253" d="M1430 2925q0 -38 -25 -107l-815 -2286q-74 -222 -74 -233q0 -41 37 -41q78 0 211 143q134 144 145 144q29 0 54 -31q23 -29 28 -55q0 -37 -119 -168q-121 -133 -303 -256q-185 -125 -323 -125q-254 0 -254 258q0 112 49 250l664 1892q45 118 45 184q0 75 -197 99 q-33 7 -33 69t29 62q159 28 405 98q241 69 349 119q50 29 86 29q41 0 41 -45z" />
<glyph unicode="m" horiz-adv-x="3297" d="M3088 1528q0 -119 -57 -242l-381 -799q-70 -154 -70 -208q0 -41 37 -41q66 0 217 155q152 156 164 156q30 0 54 -33t24 -53q0 -38 -127 -168q-130 -133 -321 -258q-194 -127 -334 -127q-131 0 -197 63q-65 62 -65 166q0 116 82 279l405 839q53 108 53 168q0 82 -78 82 q-127 0 -335 -274q-209 -275 -549 -840l-164 -348q-45 -86 -266 -86q-73 0 -133 12q-61 12 -91 33q-29 21 -22 41l577 1212q54 110 54 164q0 86 -82 86q-135 0 -359 -282q-215 -272 -546 -832l-160 -348q-16 -37 -99 -61q-86 -25 -172 -25q-69 0 -129 12q-59 12 -88 33 q-22 16 -22 32q0 4 2 9l569 1229q62 145 62 196q0 54 -45 54q-57 0 -213 -172t-168 -172q-30 0 -58 32t-28 54q0 42 121 176q122 136 301 264q180 129 311 129q144 0 211 -72q67 -71 67 -186q0 -117 -73 -279l-58 -122q188 293 418 477q228 182 442 182q152 0 224 -88 q71 -87 71 -215q0 -116 -61 -238l-49 -110q180 291 399 471t420 180q157 0 236 -88t79 -219z" />
<glyph unicode="n" horiz-adv-x="2195" d="M1999 414q0 -74 -264 -289q-265 -215 -469 -215q-262 0 -262 196q0 122 77 312l308 733q57 135 57 221q0 115 -90 115q-119 0 -344 -330q-228 -334 -410 -706l-147 -422q-7 -27 -101 -49q-92 -21 -161 -21q-34 0 -70 4q-43 5 -82 12q-40 7 -68 23q-23 13 -23 26q0 3 1 5 l414 1245q53 145 53 205q0 45 -37 45q-52 0 -174 -140q-121 -139 -137 -139q-29 0 -56 33q-26 32 -26 53q0 42 100 160q101 119 262 231q163 113 293 113q135 0 213 -72t78 -194q0 -89 -41 -209l-90 -250q173 287 414 508q236 217 458 217q128 0 223 -82q97 -83 97 -217 q0 -138 -86 -352l-287 -697q-70 -170 -70 -200q0 -49 37 -49q70 0 193 129t135 129q32 0 57 -31t25 -51z" />
<glyph unicode="o" horiz-adv-x="1945" d="M1745 1180q0 -475 -338 -873q-337 -397 -805 -397q-266 0 -436 180q-170 181 -170 471q0 479 338 877q337 397 801 397q266 0 438 -182t172 -473zM1278 1466q0 108 -33 154q-33 47 -110 47q-140 0 -299 -229q-162 -234 -267 -559q-106 -328 -106 -600q0 -205 139 -205 t301 231q161 230 268 561q107 332 107 600z" />
<glyph unicode="p" horiz-adv-x="2105" d="M1905 1225q0 -309 -156 -613q-157 -306 -418 -503q-264 -199 -545 -199q-229 0 -319 172l-246 -725q-28 -81 -28 -143q0 -78 63 -107q62 -28 190 -49q21 0 21 -33t-21 -74t-40 -41q-457 37 -1106 37q-21 0 -21 58q0 24 21 57t36 33q292 21 377 262l693 2040 q-110 -51 -263 -135q-8 -5 -24 10q-18 16 -25 39q-29 74 17 98q175 123 372 213l193 561q12 28 110 49q99 21 164 21q70 0 156 -21q43 -11 62.5 -23t15.5 -26l-135 -393q135 45 258 45q269 0 434 -154q164 -153 164 -456zM1384 1307q0 299 -225 299q-101 0 -184 -33 l-332 -979q-61 -179 -61 -307q0 -104 55 -156q56 -53 129 -53q213 0 416 389q202 388 202 840z" />
<glyph unicode="q" horiz-adv-x="2125" d="M2134 1819l-958 -2462q-33 -83 -33 -148q0 -53 39 -86q38 -32 73 -43q31 -10 117 -22q21 0 21 -49q0 -28 -19 -64q-18 -35 -35 -35q-457 37 -1110 37q-16 0 -16 58q0 30 16 59q17 31 37 31q303 21 402 262l409 1020q-393 -467 -737 -467q-159 0 -272 119t-113 336 q0 314 238 665t577 578t627 227q119 0 227 -84t158 -84q60 0 100 31q38 29 105 125q21 28 86 28q25 0 45 -10q17 -8 17 -18q0 -2 -1 -4zM1483 1491q0 164 -119 164q-176 0 -391 -242q-216 -243 -359 -549q-143 -305 -143 -499q0 -164 131 -164q136 0 348 239 q217 244 373 551q160 314 160 500z" />
<glyph unicode="r" horiz-adv-x="1744" d="M1802 1548q0 -128 -73 -205t-181 -77q-93 0 -159 84t-127 84q-131 0 -371 -422q-239 -420 -453 -983q-12 -28 -98 -49t-156 -21q-29 0 -65 4q-43 5 -82 12q-41 8 -66 23q-21 13 -21 26q0 3 1 5l418 1245q53 161 53 205q0 45 -41 45q-52 0 -174 -140q-121 -139 -137 -139 q-29 0 -56 33q-26 32 -26 53q0 42 100 160q101 119 262 231q163 113 293 113q135 0 215 -72t80 -194q0 -81 -45 -209l-98 -266q197 366 362 553q166 188 338 188q131 0 219 -78t88 -209z" />
<glyph unicode="s" horiz-adv-x="1486" d="M1397 1540q0 -102 -51 -164q-51 -61 -138 -61q-86 0 -217 162q-130 161 -213 161q-119 0 -119 -127q0 -94 211 -440t211 -518q0 -251 -196 -447t-512 -196q-197 0 -355 102q-157 102 -157 221q0 96 55 152q56 57 150 57q78 0 145 -88q69 -90 143 -176q76 -88 170 -88 q144 0 144 201q0 87 -99 246q-82 131 -196 346q-99 186 -99 342q0 233 189 422q188 188 479 188q197 0 326 -90t129 -205z" />
<glyph unicode="t" horiz-adv-x="1437" d="M1466 1659q0 -41 -30 -86t-56 -45l-409 12l-361 -1053q-41 -132 -41 -184q0 -65 45 -65q88 0 267 157q181 158 188 158q33 0 68 -35q34 -34 34 -55q0 -29 -141 -162q-140 -133 -346 -262t-340 -129q-147 0 -225 78t-78 213q0 115 45 233l377 1102l-316 -8q-41 0 -41 82 q0 40 29 86q29 45 53 45h344l152 442q12 28 109 49q96 21 165 21q33 0 68 -4q26 -3 78 -13q40 -8 63 -22q25 -16 21 -31l-152 -442h385q45 0 45 -82z" />
<glyph unicode="u" horiz-adv-x="2228" d="M2060 1724l-422 -1249q-53 -161 -53 -205q0 -49 41 -49q52 0 174 137q123 138 133 138q32 0 60 -31q26 -29 26 -51q0 -38 -100 -156q-102 -121 -262 -233q-163 -115 -293 -115t-213 72q-82 72 -82 190q0 100 49 238l107 303q-197 -333 -437 -568q-239 -235 -464 -235 q-124 0 -218 84t-94 219q0 136 82 352l291 701q70 170 70 200q0 50 -33 50q-74 0 -199 -136q-125 -135 -133 -135q-28 0 -55 33t-27 53q0 40 115 160q112 117 295 231q181 113 319 113q267 0 267 -193q0 -124 -82 -315l-308 -729q-57 -135 -57 -225q0 -115 90 -115 q119 0 350 340q235 347 412 721l143 405q12 33 103 54q86 20 160 20q33 0 69 -4q48 -5 84 -14q44 -11 70 -25q23 -13 23 -26q0 -3 -1 -5z" />
<glyph unicode="v" horiz-adv-x="2273" d="M2122 1495q0 -363 -224 -743q-224 -381 -526 -611q-303 -231 -549 -231q-208 0 -325 131t-117 336q0 245 170 561q169 313 379 504q-74 -33 -156 -33q-62 0 -160 43t-151 43q-119 0 -180 -43q-62 -44 -62 -113q0 -37 66 -106q65 -68 65 -139q0 -78 -45 -125t-127 -47 q-70 0 -131 63q-61 62 -61 191q0 213 205 436t397 223q86 0 198 -33t170 -33q61 0 156 19q90 18 98 18q29 0 50 -22q20 -21 20 -47q0 -37 -72 -131l-155 -205q-84 -111 -156 -314t-72 -428q0 -143 74 -235t205 -92q295 0 475 248t180 575q0 131 -69 250q-70 120 -70 180 q0 103 72 176q72 74 178 74q111 0 180 -92q70 -93 70 -248z" />
<glyph unicode="w" horiz-adv-x="3182" d="M3027 1495q0 -311 -191 -684q-191 -374 -483 -637q-293 -264 -551 -264q-144 0 -250 78t-147 209q-313 -287 -578 -287q-212 0 -329 131t-117 336q0 240 170 559q168 314 379 506q-74 -33 -152 -33q-63 0 -162 43t-153 43q-119 0 -180 -43q-62 -44 -62 -113 q0 -36 68 -106q67 -68 67 -139q0 -79 -49 -125q-50 -47 -127 -47q-70 0 -131 63q-61 62 -61 191q0 213 205 436t397 223q87 0 201 -33t167 -33q65 0 160 19q90 18 99 18q29 0 47 -22t18 -47q0 -37 -72 -131l-155 -203q-84 -108 -156 -309t-72 -426q0 -148 76 -242t203 -94 q121 0 221 65q-8 48 -8 148q0 475 211 882q212 408 465 408q107 0 168 -84q61 -83 61 -231q0 -445 -491 -1033q89 -155 307 -155q262 0 446 237q185 238 185 578q0 125 -70 248t-70 182q0 104 70 182q69 76 176 76q111 0 180 -92q70 -93 70 -248zM2015 1425q0 111 -90 111 q-119 0 -209 -172t-90 -455q0 -130 33 -241q160 185 258 391q98 205 98 366z" />
<glyph unicode="x" horiz-adv-x="2195" d="M2109 1552q0 -115 -65 -196q-66 -82 -164 -82q-61 0 -100 33t-51 71t-35 72q-22 33 -56 33q-57 0 -186 -164q-131 -166 -244 -361l58 -315q78 -434 229 -434q90 0 117 94q26 91 26 270q0 29 50 29q65 0 77 -29q33 -78 33 -163q0 -226 -137 -363t-326 -137 q-369 0 -516 659q-359 -659 -643 -659q-102 0 -188 78t-86 200q0 123 67 205t174 82q67 0 107 -43q43 -46 69 -86q28 -43 70 -43q111 0 385 463l-65 340q-78 426 -222 426q-49 0 -79 -27q-31 -28 -41 -90q-12 -71 -13 -104q-2 -54 -2 -140q0 -28 -49 -28q-66 0 -78 28 q-32 55 -32 164q0 227 129 363q129 137 309 137q202 0 342 -182q141 -183 186 -490q191 322 350 498q157 174 310 174q131 0 211 -78q79 -78 79 -205z" />
<glyph unicode="y" horiz-adv-x="1990" d="M1839 1716q0 -203 -199 -676q-196 -466 -479 -958q-280 -486 -629 -858q-348 -371 -610 -371q-196 0 -315 86t-119 201q0 106 66 174t180 68q94 0 203 -132q108 -131 186 -131q52 0 129 74q72 69 151 207q77 134 129 356q54 230 54 482q0 369 -37 647q-38 284 -90 420 q-53 137 -111 137q-61 0 -121 -84q-57 -80 -98 -168q-39 -84 -51 -84q-32 0 -70 29q-37 28 -37 49q0 163 197 407t397 244q205 0 342 -293q137 -294 137 -936q0 -236 -8 -385q357 611 447 1446q12 94 61 131t98 37q70 0 134 -35q63 -34 63 -84z" />
<glyph unicode="z" horiz-adv-x="1908" d="M1810 1679q0 -24 -24 -51q-26 -29 -90 -80q-70 -55 -107 -90l-1118 -1032q37 45 168 45q99 0 328 -141q231 -142 311 -142q74 0 74 74q0 32 -68 109q-67 76 -67 149q0 92 55 148q56 57 158 57q90 0 151 -78q61 -77 61 -205q0 -164 -180 -348t-430 -184q-106 0 -356 90 t-348 90q-78 0 -127 -45t-84 -90t-72 -45q-52 0 -108 47t-56 109q0 13 10 30t35 39l49 41l64 51l67 56l1102 1040q-49 -49 -172 -49q-104 0 -311 104q-209 105 -299 105q-86 0 -86 -74q0 -49 109 -119q108 -69 108 -151q0 -79 -59 -131q-62 -54 -146 -54q-99 0 -168 84 t-69 215q0 213 186 398q185 184 395 184q104 0 340 -109q234 -108 328 -108q78 0 129 55q50 55 86 109q35 53 72 53q53 0 106 -47t53 -109z" />
<glyph unicode="{" horiz-adv-x="1585" d="M1741 2871q-12 -57 -49 -73q-173 -38 -265 -152q-93 -116 -133 -319l-159 -701q-61 -298 -504 -393q331 -79 331 -301q0 -41 -12 -88l-221 -877q-20 -83 -20 -147q0 -67 22 -115q43 -93 191 -143q33 -7 16 -70q-21 -74 -49 -74q-352 0 -541 189q-138 138 -138 316 q0 66 19 138l209 828q7 26 7 51q0 66 -46 127q-63 83 -219 100q-16 4 -22 27q-2 9 -2 18q0 11 4 21q12 58 49 65q148 17 260 99t133 180l164 725q62 303 326 473q265 170 632 170q24 0 24 -31q0 -17 -7 -43z" />
<glyph unicode="|" horiz-adv-x="4796" d="M4571 1409q0 -337 -168 -680q-168 -344 -418 -561t-479 -217q-86 0 -160 53q-73 52 -73 148q0 82 57 137q56 55 148 55q78 0 139 -63q62 -64 82 -64q102 0 231 373q129 372 129 741q0 201 -143 201q-194 0 -484 -395t-487 -1080q-7 -28 -100 -49q-87 -20 -154 -20 q-70 0 -151 20q-43 11 -62.5 23t-15.5 26l762 2401q-264 -238 -664 -238q-257 0 -471 74l-442 -1823q-21 -95 -21 -143q0 -90 74 -135q76 -46 282 -70q21 0 21 -49q0 -35 -14 -66q-15 -33 -31 -33q-123 0 -383 13q-240 12 -342 12q-103 0 -332 -12q-249 -13 -356 -13 q-21 0 -21 58q0 24 17 55t32 35q272 29 345 90q72 60 122 258l467 1962q-299 78 -544 78q-259 0 -400 -96t-141 -248q0 -128 65 -189q66 -62 142 -69q73 -7 141 -60q66 -51 66 -161q0 -86 -70 -156t-156 -70q-188 0 -323 135t-135 353q0 368 331 653t754 285q271 0 866 -144 q591 -143 793 -143q240 0 459 106t376 263q28 28 62 28q6 1 11 1q29 0 50 -21q25 -25 25 -66q0 -32 -12 -82l-496 -1552q385 594 831 594q160 0 265 -123q104 -122 104 -340z" />
<glyph unicode="}" horiz-adv-x="1585" d="M1294 1130q-12 -57 -53 -65q-149 -17 -260 -98q-112 -82 -133 -181l-160 -725q-61 -303 -328 -473q-266 -170 -634 -170q-13 0 -19 25q-2 10 -2 20q0 15 4 29q12 58 49 74q174 38 265 151q93 115 133 320l159 700q61 299 504 393q-331 83 -331 303q0 41 12 87l221 876 q23 82 23 147q0 63 -21 111q-43 98 -195 148q-24 7 -16 69q21 74 53 74q354 0 539 -188q136 -138 136 -317q0 -66 -19 -138l-209 -827q-7 -26 -7 -51q0 -67 46 -128q63 -83 223 -100q23 -5 23 -38q0 -12 -3 -28z" />
<glyph unicode="~" horiz-adv-x="1699" d="M1458 1217q-52 -279 -164 -392q-103 -104 -264 -104h-22l-537 29h-19q-119 0 -200 -50q-84 -52 -150 -180q-11 -20 -41 -20q-37 0 -67 24q-24 20 -24 51q0 7 1 15q69 264 189 401q109 124 301 124q17 0 35 -1l499 -29h22q118 0 187 43q75 47 127 158q12 17 45 17 q36 0 64 -23q20 -17 20 -45q0 -8 -2 -18z" />
<glyph unicode="&#xa1;" horiz-adv-x="1155" d="M881 1470q0 -103 -76 -180q-77 -78 -182 -78q-107 0 -183 78q-75 76 -75 180q0 105 75 181q76 78 183 78q105 0 182 -78q76 -77 76 -181zM532 782l-204 -1802q-16 -184 -242 -184q-180 0 -274 98q-64 67 -64 145q0 37 14 76l615 1704q12 45 78 45q80 0 80 -59 q0 -10 -3 -23z" />
<glyph unicode="&#xa2;" horiz-adv-x="1691" d="M1618 1499q0 -85 -66 -147q-67 -62 -163 -62q-83 0 -129 45q-50 49 -89 129q-42 88 -61 109l-401 -1372q1 0 4 -0.5t8 -1t10 -0.5q24 -2 31 -2q99 0 237 98q143 101 226 205q8 12 30 -4q23 -17 41 -45q18 -29 11 -41q-51 -125 -263 -297q-211 -171 -421 -195l-62 -205 q0 -33 -52 -33q-10 0 -22 1q-26 5 -34 8q-16 5 -25 14q-10 10 -10 27l57 196q-197 33 -336 195q-139 161 -139 399q0 388 322 803q321 414 706 496l78 254q4 33 56 33q10 0 22 -1q27 -6 33 -8q13 -5 22 -14q10 -10 10 -27l-65 -221h20q177 -17 295 -117q119 -101 119 -219z M971 1614q-143 -68 -293 -387q-150 -318 -150 -752q0 -113 50 -192z" />
<glyph unicode="&#xa3;" horiz-adv-x="2883" d="M2949 -467q0 -181 -166 -317q-168 -138 -424 -138q-274 0 -506 119q-228 117 -380 287q-153 171 -275 336q-121 163 -250 286q-125 119 -248 119q-100 -141 -237 -225q-140 -86 -283 -86q-237 0 -237 168q0 156 174 252q176 97 428 121q78 169 147 458l-405 -8 q-49 0 -49 107q0 106 49 106l450 -12q84 320 176 555q90 232 230 457q140 226 342 344t457 118q250 0 434 -141t184 -309q0 -119 -63 -188q-64 -70 -175 -70q-130 0 -186 86q-55 85 -55 190q0 106 -39 191q-39 86 -133 86q-134 0 -219 -62t-131 -194q-49 -140 -76 -275 l-78 -372q-50 -232 -111 -416l545 12q45 0 45 -106q0 -107 -45 -107l-610 13q-85 -241 -283 -455h49q182 -5 355 -131q177 -129 305 -305l252 -357q125 -184 247 -303q128 -125 238 -125q180 0 180 127q0 54 -30 111q-31 59 -31 102q0 96 59 156q60 61 150 61q106 0 168 -69 q61 -68 61 -197z" />
<glyph unicode="&#xa4;" horiz-adv-x="2560" d="M2638 2572q0 -120 -88 -209q-88 -90 -211 -90q-127 0 -215 88t-88 211q0 127 88 215t215 88q123 0 211 -88t88 -215zM1409 2572q0 -119 -90 -209t-213 -90q-122 0 -211 90q-88 89 -88 209q0 127 88 215t211 88q124 0 213 -88q90 -89 90 -215zM2400 1569q0 -97 -61 -287 l-414 -1200q-217 -644 -522 -936q-305 -293 -662 -293q-205 0 -358 105q-154 106 -154 243q0 111 72 183q71 71 195 71q87 0 155 -55q70 -57 109 -119q41 -66 94 -119q55 -55 113 -55q60 0 106 64q45 63 111 260l643 1843q45 130 45 196q0 58 -49 58q-123 0 -549 -721 q-265 -446 -494 -672q-228 -225 -489 -225q-258 0 -258 237q0 120 82 271l413 856q70 149 70 201q0 53 -41 53q-57 0 -219 -172t-174 -172q-28 0 -55 33t-27 53q0 37 123 172q124 136 307 264q184 129 315 129q135 0 207 -72t72 -190q0 -123 -78 -291l-377 -795 q-73 -146 -73 -208q0 -41 40 -41q74 0 203 170q130 171 326 497q298 483 504 705q209 225 458 225q291 0 291 -266z" />
<glyph unicode="&#xa5;" horiz-adv-x="2523" d="M2732 2146q0 -33 -37 -61q-66 -45 -78 -17q-45 110 -114 160q-68 49 -205 49q-208 0 -393 -225q-184 -224 -328 -627h602q45 0 45 -57q0 -38 -20 -65q-21 -29 -45 -29h-631q-58 -205 -82 -311h635q41 0 41 -62q0 -33 -21 -61q-21 -29 -45 -29h-643l-82 -373 q-16 -96 -16 -131q0 -87 57 -127q56 -40 230 -61q20 -7 20 -49q0 -31 -14 -62q-15 -33 -31 -33q-98 0 -324 13q-209 12 -303 12q-90 0 -291 -12q-218 -13 -307 -13q-20 0 -20 54q0 83 45 90q226 24 287 84q62 60 102 235l82 373h-635q-37 0 -37 57q0 36 19 66q18 29 43 29 h639q16 55 16 94q20 93 41 217h-615q-45 0 -45 61q0 33 21 62q21 28 45 28h614q17 147 17 267q0 536 -344 536q-131 0 -211 -57t-174 -180q-21 -21 -74 32q-24 30 -24 54q0 8 3 16q291 516 701 516q266 0 430 -231q164 -232 164 -617q0 -103 -8 -164q185 443 424 727 q240 285 485 285q167 0 272 -139q105 -140 117 -324z" />
<glyph unicode="&#xa7;" horiz-adv-x="2473" d="M2302 2638q0 -119 -68 -199t-174 -80q-68 0 -131 58q-61 57 -96 123q-33 63 -92 122q-58 58 -123 58q-340 0 -340 -402q0 -146 84 -329q84 -184 205 -361l241 -364q120 -183 205 -398q84 -212 84 -399q0 -394 -188 -645q-190 -253 -561 -404q-85 -261 -351 -442 q-264 -180 -575 -180q-217 0 -350 88t-133 219q0 117 71 195q72 79 195 79q94 0 157 -86l125 -172q62 -86 148 -86q164 0 256 101t92 297q0 181 -127 417q-134 249 -276 435q-149 196 -277 460q-127 263 -127 494q0 364 191 635q191 270 551 422q90 267 348 463 q257 196 565 196q213 0 342 -90t129 -225zM1671 135q0 192 -117 438q-118 248 -262 447q-146 201 -276 438q-132 240 -156 410q-2 25 -2 50q0 82 19 159q-287 -140 -287 -504q0 -200 108 -440q105 -234 244 -428q135 -190 268 -416q133 -227 166 -391q19 -103 19 -185 q0 -46 -6 -86q282 156 282 508z" />
<glyph unicode="&#xa8;" d="M1655 2400q0 -118 -84 -202t-203 -84q-115 0 -201 86t-86 200q0 120 84 205q84 86 203 86t203 -86q84 -85 84 -205zM836 2400q0 -118 -84 -202t-203 -84t-205 84t-86 202q0 119 86 205t205 86t203 -86q84 -85 84 -205z" />
<glyph unicode="&#xa9;" horiz-adv-x="3297" d="M3121 1401q0 -619 -436 -1055t-1051 -436q-618 0 -1054 436q-437 437 -437 1055q0 613 437 1050t1054 437q614 0 1051 -437q436 -436 436 -1050zM2990 1401q0 561 -397 958q-398 398 -959 398q-560 0 -960 -398t-400 -958q0 -561 400 -961q399 -399 960 -399 q562 0 959 399q397 398 397 961zM2388 1077q-24 -100 -90 -463q-73 0 -281 -34q-215 -35 -321 -35q-467 0 -715 248t-248 600q0 357 268 610q269 254 715 254q115 0 295 -21q171 -20 250 -20q17 -201 57 -459q4 -7 -12 -12q-18 -8 -37 -8q-30 0 -37 20q-38 161 -184 277 t-340 116q-274 0 -424 -208q-149 -207 -149 -549q0 -329 149 -533q150 -205 412 -205q421 0 606 422q12 17 45 17q41 0 41 -17z" />
<glyph unicode="&#xaa;" horiz-adv-x="1351" d="M1495 2843l-332 -766q-37 -81 -37 -119q0 -25 17 -25q46 0 119 82l73 86q24 0 51 -28q27 -29 27 -50q0 -53 -153 -174q-151 -120 -293 -120q-172 0 -172 135q0 72 53 180q-208 -315 -463 -315q-90 0 -145 67q-56 68 -56 178q0 262 299 572q299 309 529 309q118 0 147 -86 l37 90q16 37 156 37q34 0 71 -8q31 -7 56 -21q17 -10 17 -20q0 -2 -1 -4zM1081 2638q0 65 -49 65q-128 0 -340 -249q-213 -250 -213 -414q0 -90 78 -90q107 0 315 276q209 277 209 412z" />
<glyph unicode="&#xab;" horiz-adv-x="1753" d="M1618 1462l-434 -610l155 -610q5 -29 -34 -68t-68 -39q-12 0 -16 4l-471 688q-13 13 -13 33q0 28 21 49l762 652q8 8 20 8q24 0 62 -41q24 -26 24 -46q0 -11 -8 -20zM905 1462l-438 -610l156 -610q8 -29 -31 -68t-72 -39q-12 0 -16 4l-471 688q-8 8 -8 33q0 29 20 49 l758 652q18 8 20 8q24 0 62 -41q25 -27 25 -49q0 -9 -5 -17z" />
<glyph unicode="&#xac;" horiz-adv-x="2355" d="M2531 2925q0 -41 -24 -107l-815 -2286q-74 -198 -74 -233q0 -45 37 -45q78 0 211 145q134 146 141 146q29 0 57 -33q29 -34 29 -53q0 -37 -119 -168q-121 -133 -303 -256q-185 -125 -323 -125q-254 0 -254 258q0 102 45 233l20 58q-218 -213 -485 -379 q-274 -170 -424 -170q-258 0 -258 258q0 114 53 246l655 1896q50 115 50 184q0 82 -201 99q-33 0 -33 69q0 58 33 66q148 23 399 94q238 67 355 123q34 25 86 25q41 0 41 -45q0 -38 -25 -107l-815 -2286q-70 -204 -70 -229q0 -49 33 -49q112 0 354 190q243 190 367 351 l528 1515q45 118 45 184q0 83 -196 99q-33 0 -33 69q0 58 33 66q148 23 399 94q235 67 354 123q42 25 86 25q41 0 41 -45z" />
<glyph unicode="&#xad;" horiz-adv-x="1449" d="M1163 905q0 -143 -53 -143h-995q-54 0 -54 143q0 144 54 144h995q53 0 53 -144z" />
<glyph unicode="&#xae;" horiz-adv-x="3293" d="M3121 1401q0 -619 -436 -1055t-1051 -436q-618 0 -1054 436q-437 437 -437 1055q0 613 437 1050t1054 437q614 0 1051 -437q436 -436 436 -1050zM2990 1401q0 561 -397 958q-398 398 -959 398q-560 0 -960 -398t-400 -958q0 -561 400 -961q399 -399 960 -399 q562 0 959 399q397 398 397 961zM2638 639q0 -49 -21 -49q-57 0 -151 10t-131 10q-50 0 -137 -10t-138 -10l-311 553q-68 112 -121 151q-50 37 -158 37v-401q0 -120 43 -172q44 -53 187 -74q20 0 20 -49t-20 -49q-70 0 -201 8t-217 8q-89 0 -227 -8t-207 -8q-21 0 -21 49 t21 49q159 24 203 76q43 50 43 182v897q0 132 -43 182q-44 52 -203 76q-21 0 -21 49q0 45 21 45q67 0 221 -8t238 -8q75 0 211 6t219 6q287 0 444 -106q158 -107 158 -299q0 -124 -94 -228q-92 -102 -254 -165l323 -500q61 -97 119 -139q58 -41 188 -62q17 0 17 -49z M1942 1769q0 308 -291 308q-99 0 -140 -35t-41 -137v-463q96 -8 123 -8q191 0 269 75q80 77 80 260z" />
<glyph unicode="&#xaf;" d="M1593 2413q0 -60 -20 -101q-21 -43 -49 -43h-1114q-30 0 -48 45t-18 99q0 53 18 100t48 47h1114q28 0 49 -47q20 -44 20 -100z" />
<glyph unicode="&#xb0;" horiz-adv-x="1232" d="M1348 2470q0 -172 -127 -299t-320 -127t-321 127q-129 127 -129 299q0 168 129 293q130 125 321 125q192 0 320 -125q127 -124 127 -293zM1147 2470q0 113 -70 192q-69 78 -176 78q-102 0 -174 -78t-72 -192q0 -118 70 -197q69 -78 176 -78t176 78q70 79 70 197z" />
<glyph unicode="&#xb1;" horiz-adv-x="3088" d="M3117 1659q0 -40 -29 -86q-28 -45 -53 -45l-414 12l-356 -1053q-41 -132 -41 -184q0 -65 45 -65q87 0 266 157q181 158 189 158q27 0 65 -35q37 -34 37 -55q0 -33 -141 -164q-143 -132 -348 -260q-207 -129 -342 -129q-143 0 -223 78t-80 213q0 94 45 229l377 1106 l-312 -8q-45 0 -45 82q0 40 29 86q28 45 53 45h344l225 651q21 66 21 74q-152 -193 -418 -193q-87 0 -256 25q-162 24 -260 24q-270 0 -270 -266q0 -145 110 -258q114 -41 187 -127q71 -84 71 -172q0 -90 -65 -149q-66 -60 -160 -60q-82 0 -135 53t-76 115q-23 63 -63 115 q-41 53 -103 53q-53 0 -129 -82q-73 -79 -153 -223q-79 -143 -134 -369t-55 -481q0 -278 217 -278q100 0 238 98q141 100 225 209q8 13 33 -4t41 -45q16 -29 12 -45q-66 -140 -297 -318q-230 -178 -461 -178q-216 0 -374 170t-158 436q0 439 362 870q364 433 777 445 q-222 148 -222 381q0 168 136 287q134 118 356 118q119 0 373 -63q258 -64 364 -64q258 0 320 140q28 69 110 69q141 0 273 -71q133 -72 133 -138q0 -37 -12 -55l-41 -57q-31 -42 -54 -113l-180 -524h385q41 0 41 -82z" />
<glyph unicode="&#xb2;" horiz-adv-x="1990" d="M1626 565q-156 -307 -258 -594q-133 29 -684 29q-631 0 -754 -25q-15 -4 -26 17q-10 20 -10 45q0 29 12 33l233 178l246 188l207 170q133 111 196 182l138 162q79 95 108 176q31 85 31 164q0 116 -61 193q-62 78 -189 78q-209 0 -422 -230q-16 -16 -41 -16t-59 28 q-35 29 -35 46q0 6 8 24q406 496 811 496q228 0 375 -142q145 -141 145 -329q0 -247 -272 -500q-275 -255 -788 -561l598 8q128 5 190 49q65 47 166 180q25 25 74 9q22 -7 45 -25q17 -13 17 -27q0 -3 -1 -6z" />
<glyph unicode="&#xb3;" horiz-adv-x="1777" d="M1475 1438q0 -183 -187 -367q-185 -182 -481 -289q237 -21 381 -178q143 -156 143 -387q0 -294 -231 -567q-230 -271 -549 -422q-318 -150 -592 -150q-189 0 -297 66t-108 176q0 98 69 158q68 59 172 59q91 0 148 -63q54 -59 102 -127q46 -64 98 -64q234 0 451 256 t217 555q0 205 -113 301q-114 97 -280 97q-81 0 -160 -50q-20 -11 -59 17q-39 29 -39 69q0 46 28 58q344 174 549 372q209 201 209 357q0 107 -57 176q-58 70 -168 70q-212 0 -377 -177q-23 -16 -41 -16q-29 0 -63 37t-19 57q158 190 359 320q197 127 395 127 q232 0 366 -140t134 -331z" />
<glyph unicode="&#xb4;" d="M1393 2621q0 -84 -62 -122l-704 -435q-12 -12 -29 -12q-11 0 -47 31q-35 30 -35 55q0 28 21 45l536 635q33 45 103 45q82 0 149 -78q68 -79 68 -164z" />
<glyph unicode="&#xb5;" horiz-adv-x="4247" d="M4309 1552q0 -126 -72 -204t-182 -78q-94 0 -160 84t-127 84q-131 0 -366 -418q-240 -427 -457 -983q-12 -33 -96 -51q-89 -19 -154 -19q-32 0 -67 4q-20 2 -82 13q-44 8 -70 22q-26 15 -22 31l413 1212q41 125 41 185q0 61 -41 61h-606l-340 -1401q-83 -343 -209 -586 q-128 -247 -282 -382q-158 -138 -318 -199q-163 -62 -342 -62q-417 0 -627 222q-264 -222 -561 -222q-203 0 -354 107q-150 106 -150 242q0 109 68 182q68 72 190 72q86 0 156 -56q69 -56 107 -119q37 -62 90 -118t110 -56q118 0 178 113q60 112 117 383l393 1835 q17 45 -41 45h-327q-33 0 -33 61q0 62 45 70q414 50 438 127q135 498 490 846q353 346 833 346q148 0 293 -57q143 -56 228 -144q267 267 696 267q187 0 311 -95q123 -94 123 -229q0 -111 -78 -195t-192 -84q-76 0 -135 48q-58 47 -86 106q-29 60 -80 107q-52 47 -117 47 q-221 0 -313 -195q-95 -202 -228 -784q-6 -37 -8 -45h827q71 0 158 20q91 21 113 21q86 0 86 -86q0 -49 -29 -127l-160 -426q194 363 361 557q163 188 340 188q136 0 221 -76q86 -77 86 -211zM2073 2355q-159 328 -402 328q-237 0 -358 -205t-256 -786h737l16 61 q77 321 263 602zM1749 1495h-733l-336 -1405q-84 -364 -246 -655q33 -153 168 -238q136 -86 287 -86q174 0 280 101q104 100 170 411z" />
<glyph unicode="&#xb6;" horiz-adv-x="2818" d="M3043 2732q-21 -74 -45 -74h-401l-893 -3760q-8 -33 -90 -33q-24 0 -53 9q-25 8 -21 24l893 3760h-246l-770 -3244q-66 -267 -250 -424t-438 -157q-212 0 -348 125q-135 124 -135 329q0 189 133 328t326 139q130 0 206 -73t76 -193t-63 -205q-63 -86 -191 -86 q-164 0 -164 152q0 83 78 129t78 88q0 37 -53 37q-119 0 -191 -92q-71 -90 -71 -224q0 -295 348 -295q166 0 307 109q138 107 188 313l246 1041h-242q-405 0 -698 299t-293 688q0 573 469 966q471 394 1084 394h1204q16 0 22 -25q2 -10 2 -20q0 -12 -4 -25z" />
<glyph unicode="&#xb7;" horiz-adv-x="1105" d="M872 1384q0 -118 -86 -204t-204 -86t-207 86q-88 85 -88 204t88 207t207 88t204 -88q86 -89 86 -207z" />
<glyph unicode="&#xb8;" d="M860 -520q0 -161 -149 -268q-151 -109 -359 -109q-114 0 -184 47t-70 113q0 41 33 80t82 39q56 0 135 -62q77 -61 127 -61q103 0 103 131q0 126 -246 254q-37 16 -37 61q0 29 8 37l234 360h200l-127 -204q-12 -12 -12 -37q0 -33 41 -62q221 -140 221 -319z" />
<glyph unicode="&#xb9;" horiz-adv-x="1761" d="M1638 1790q0 -30 -16 -59q-17 -31 -33 -31q-222 -24 -286 -66q-95 -62 -140 -266l-221 -917q-24 -99 -24 -156q0 -65 40 -102q42 -39 84 -46q52 -9 150 -20q19 -4 33 -4q20 -4 20 -53q0 -31 -14 -62q-15 -33 -31 -33q-64 0 -301 13q-219 12 -321 12t-314 -12 q-229 -13 -293 -13q-20 0 -20 54q0 87 49 94q228 24 279 61q97 60 147 267l217 917q25 103 25 156q0 26 -4 45q-4 20 -15 35q-11 16 -20 26q-13 14 -31 21q-18 6 -33 14q-12 6 -45 12q-9 2 -19 4l-17 3.5t-11 1.5q-10 1 -55 6q-48 5 -58 8q-20 0 -20 49q0 31 14 63 q15 35 31 35q82 0 301 -12t322 -12q102 0 315 12t295 12q20 0 20 -57z" />
<glyph unicode="&#xba;" horiz-adv-x="1277" d="M1356 2499q0 -291 -207 -531q-206 -239 -494 -239q-168 0 -272 110t-104 287q0 289 204 524q206 238 492 238q167 0 274 -107t107 -282zM1057 2638q0 119 -86 119q-126 0 -260 -269q-133 -267 -133 -506q0 -118 86 -118q126 0 260 270q133 269 133 504z" />
<glyph unicode="&#xbb;" horiz-adv-x="1753" d="M1487 844q0 -28 -17 -53l-761 -652q-18 -8 -21 -8q-23 0 -61 41t-21 70l438 610l-155 610q-8 29 31 66q38 37 71 37q13 0 17 -4l471 -689q8 -8 8 -28zM774 844q0 -33 -20 -53l-762 -652q-8 -8 -21 -8q-23 0 -61 41q-24 26 -24 47q0 13 8 23l438 610l-160 610q-4 28 35 66 q38 37 67 37q13 0 17 -4l471 -689q12 -12 12 -28z" />
<glyph unicode="&#xbc;" horiz-adv-x="4087" d="M3818 176q0 -66 -27 -121t-59 -55h-447l-200 -836q-4 -37 -82 -61q-81 -25 -172 -25q-70 0 -133 11q-64 11 -91 30q-30 21 -26 45l200 836h-1064q-37 0 -37 41q0 53 45 98l1773 1688q68 65 135 65q37 0 64 -18t22 -43l-380 -1577h446q33 0 33 -78zM3068 1204l-983 -950 h750zM2814 2843l-1913 -2929q-11 -19 -30 -19q-23 0 -56 27q-51 28 -51 55q0 9 6 19l1917 2933q10 14 28 14q23 0 58 -23q46 -30 46 -58q0 -10 -5 -19zM1638 1790q0 -30 -16 -59q-17 -31 -33 -31q-222 -24 -286 -66q-95 -62 -140 -266l-221 -917q-24 -99 -24 -156 q0 -65 40 -102q42 -39 84 -46q52 -9 150 -20q19 -4 33 -4q20 -4 20 -53q0 -31 -14 -62q-15 -33 -31 -33q-64 0 -301 13q-219 12 -321 12t-314 -12q-229 -13 -293 -13q-20 0 -20 54q0 87 49 94q228 24 279 61q97 60 147 267l217 917q25 103 25 156q0 26 -4 45q-4 20 -15 35 q-11 16 -20 26q-13 14 -31 21q-18 6 -33 14q-12 6 -45 12q-9 2 -19 4l-17 3.5t-11 1.5q-10 1 -55 6q-48 5 -58 8q-20 0 -20 49q0 31 14 63q15 35 31 35q82 0 301 -12t322 -12q102 0 315 12t295 12q20 0 20 -57z" />
<glyph unicode="&#xbd;" horiz-adv-x="3940" d="M3576 565q-156 -307 -258 -594q-133 29 -684 29q-631 0 -754 -25q-15 -4 -26 17q-10 20 -10 45q0 29 12 33l233 178l246 188l207 170q133 111 196 182l138 162q79 95 108 176q31 85 31 164q0 116 -61 193q-62 78 -189 78q-209 0 -422 -230q-16 -16 -41 -16t-59 28 q-35 29 -35 46q0 6 8 24q406 496 811 496q228 0 375 -142q145 -141 145 -329q0 -247 -272 -500q-275 -255 -788 -561l598 8q128 5 190 49q65 47 166 180q25 25 74 9q22 -7 45 -25q17 -13 17 -27q0 -3 -1 -6zM2814 2843l-1913 -2929q-11 -19 -30 -19q-23 0 -56 27 q-51 28 -51 55q0 9 6 19l1917 2933q10 14 28 14q23 0 58 -23q46 -30 46 -58q0 -10 -5 -19zM1638 1790q0 -30 -16 -59q-17 -31 -33 -31q-222 -24 -286 -66q-95 -62 -140 -266l-221 -917q-24 -99 -24 -156q0 -65 40 -102q42 -39 84 -46q52 -9 150 -20q19 -4 33 -4 q20 -4 20 -53q0 -31 -14 -62q-15 -33 -31 -33q-64 0 -301 13q-219 12 -321 12t-314 -12q-229 -13 -293 -13q-20 0 -20 54q0 87 49 94q228 24 279 61q97 60 147 267l217 917q25 103 25 156q0 26 -4 45q-4 20 -15 35q-11 16 -20 26q-13 14 -31 21q-18 6 -33 14q-12 6 -45 12 q-9 2 -19 4l-17 3.5t-11 1.5q-10 1 -55 6q-48 5 -58 8q-20 0 -20 49q0 31 14 63q15 35 31 35q82 0 301 -12t322 -12q102 0 315 12t295 12q20 0 20 -57z" />
<glyph unicode="&#xbe;" horiz-adv-x="4104" d="M3834 176q0 -66 -27 -121t-59 -55h-447l-200 -836q-4 -37 -82 -61q-81 -25 -172 -25q-70 0 -133 11q-64 11 -91 30q-30 21 -26 45l200 836h-1064q-37 0 -37 41q0 53 45 98l1773 1688q68 65 135 65q37 0 64 -18t22 -43l-380 -1577h446q33 0 33 -78zM3084 1204l-983 -950 h750zM2831 2843l-1913 -2929q-11 -19 -30 -19q-23 0 -56 27q-51 28 -51 55q0 9 6 19l1917 2933q10 14 28 14q23 0 58 -23q46 -30 46 -58q0 -10 -5 -19zM1475 1438q0 -183 -187 -367q-185 -182 -481 -289q237 -21 381 -178q143 -156 143 -387q0 -294 -231 -567 q-230 -271 -549 -422q-318 -150 -592 -150q-189 0 -297 66t-108 176q0 98 69 158q68 59 172 59q91 0 148 -63q54 -59 102 -127q46 -64 98 -64q234 0 451 256t217 555q0 205 -113 301q-114 97 -280 97q-81 0 -160 -50q-20 -11 -59 17q-39 29 -39 69q0 46 28 58 q344 174 549 372q209 201 209 357q0 107 -57 176q-58 70 -168 70q-212 0 -377 -177q-23 -16 -41 -16q-29 0 -63 37t-19 57q158 190 359 320q197 127 395 127q232 0 366 -140t134 -331z" />
<glyph unicode="&#xbf;" horiz-adv-x="1675" d="M1327 1470q0 -106 -76 -182t-182 -76q-102 0 -180 78t-78 180q0 103 78 181t180 78q106 0 182 -76t76 -183zM1139 508q0 -175 -115 -328q-114 -152 -281 -260q-175 -115 -331 -207q-169 -100 -281 -217q-115 -120 -115 -246q0 -121 68 -206q68 -84 178 -84q262 0 262 364 q0 119 70 189q69 69 176 69q111 0 180 -74q70 -75 70 -196q0 -192 -207 -354t-477 -162q-304 0 -488 188t-184 443q0 195 109 352q108 156 264 252l311 184q156 89 264 195q109 107 109 233q0 148 -135 148q-47 0 -99 -25q-41 -20 -81 -49q-34 -25 -37 -25q-25 0 -47 37 q-23 38 -23 66q0 37 129 94t244 57q221 0 344 -131t123 -307z" />
<glyph unicode="&#xc0;" horiz-adv-x="3158" d="M2564 3166q0 -28 -43 -65t-63 -37q-7 0 -25 8l-696 487q-49 28 -49 103q0 90 79 172t179 82q69 0 102 -45l508 -668q8 -8 8 -37zM2761 70q0 -34 -15 -64q-16 -31 -34 -31q-122 0 -351 13q-211 12 -321 12q-124 0 -367 -12q-263 -13 -383 -13q-20 0 -20 54q0 30 16 59 q17 31 33 35q259 17 332 88q75 73 82 264l36 512h-790l-377 -471q-127 -167 -127 -254q0 -127 221 -139q21 0 21 -53q0 -34 -15 -64q-16 -31 -34 -31q-106 0 -277 13q-157 12 -268 12q-91 0 -248 -12q-171 -13 -256 -13q-20 0 -20 54q0 87 45 94q239 21 393 119 q157 99 319 290l1934 2323q12 33 90 33q90 0 90 -37l-119 -2347q-1 -19 -1 -37q0 -179 69 -244q76 -72 321 -100q21 -7 21 -53zM1831 2056l-721 -905h668z" />
<glyph unicode="&#xc1;" horiz-adv-x="3158" d="M3355 3666q0 -94 -66 -131l-741 -463q-18 -8 -29 -8q-15 0 -53 33q-37 33 -37 57q0 33 20 49l566 668q37 45 106 45q90 0 162 -82t72 -168zM2761 70q0 -34 -15 -64q-16 -31 -34 -31q-122 0 -351 13q-211 12 -321 12q-124 0 -367 -12q-263 -13 -383 -13q-20 0 -20 54 q0 30 16 59q17 31 33 35q259 17 332 88q75 73 82 264l36 512h-790l-377 -471q-127 -167 -127 -254q0 -127 221 -139q21 0 21 -53q0 -34 -15 -64q-16 -31 -34 -31q-106 0 -277 13q-157 12 -268 12q-91 0 -248 -12q-171 -13 -256 -13q-20 0 -20 54q0 87 45 94q239 21 393 119 q157 99 319 290l1934 2323q12 33 90 33q90 0 90 -37l-119 -2347q-1 -19 -1 -37q0 -179 69 -244q76 -72 321 -100q21 -7 21 -53zM1831 2056l-721 -905h668z" />
<glyph unicode="&#xc2;" horiz-adv-x="3158" d="M3146 3178q-4 -36 -39 -69t-68 -33q-21 0 -41 16l-483 349l-717 -349q-32 -16 -45 -16q-28 0 -51 29q-23 30 -19 61q0 25 29 49l787 627q41 33 77 33q49 0 70 -33l487 -627q13 -23 13 -37zM2761 70q0 -34 -15 -64q-16 -31 -34 -31q-122 0 -351 13q-211 12 -321 12 q-124 0 -367 -12q-263 -13 -383 -13q-20 0 -20 54q0 30 16 59q17 31 33 35q259 17 332 88q75 73 82 264l36 512h-790l-377 -471q-127 -167 -127 -254q0 -127 221 -139q21 0 21 -53q0 -34 -15 -64q-16 -31 -34 -31q-106 0 -277 13q-157 12 -268 12q-91 0 -248 -12 q-171 -13 -256 -13q-20 0 -20 54q0 87 45 94q239 21 393 119q157 99 319 290l1934 2323q12 33 90 33q90 0 90 -37l-119 -2347q-1 -19 -1 -37q0 -179 69 -244q76 -72 321 -100q21 -7 21 -53zM1831 2056l-721 -905h668z" />
<glyph unicode="&#xc3;" horiz-adv-x="3158" d="M3301 3777q-57 -278 -172 -408q-101 -115 -261 -115q-21 0 -42 2l-635 62q-13 1 -25 1q-251 0 -376 -231q-12 -16 -41 -16q-40 0 -70 25q-28 23 -20 65q137 560 513 560q25 0 52 -3l594 -57q23 -1 45 -1q108 0 172 32q78 39 139 157q8 21 41 21q37 0 66 -27 q22 -21 22 -50q0 -8 -2 -17zM2761 70q0 -34 -15 -64q-16 -31 -34 -31q-122 0 -351 13q-211 12 -321 12q-124 0 -367 -12q-263 -13 -383 -13q-20 0 -20 54q0 30 16 59q17 31 33 35q259 17 332 88q75 73 82 264l36 512h-790l-377 -471q-127 -167 -127 -254q0 -127 221 -139 q21 0 21 -53q0 -34 -15 -64q-16 -31 -34 -31q-106 0 -277 13q-157 12 -268 12q-91 0 -248 -12q-171 -13 -256 -13q-20 0 -20 54q0 87 45 94q239 21 393 119q157 99 319 290l1934 2323q12 33 90 33q90 0 90 -37l-119 -2347q-1 -19 -1 -37q0 -179 69 -244q76 -72 321 -100 q21 -7 21 -53zM1831 2056l-721 -905h668z" />
<glyph unicode="&#xc4;" horiz-adv-x="3158" d="M3236 3432q0 -124 -88 -213q-88 -90 -215 -90q-123 0 -213 90t-90 213q0 126 90 215q91 89 213 89q126 0 215 -89q88 -88 88 -215zM2281 3432q0 -123 -90 -213t-213 -90t-213 90t-90 213q0 126 90 215q91 89 213 89t213 -89q90 -89 90 -215zM2761 70q0 -34 -15 -64 q-16 -31 -34 -31q-122 0 -351 13q-211 12 -321 12q-124 0 -367 -12q-263 -13 -383 -13q-20 0 -20 54q0 30 16 59q17 31 33 35q259 17 332 88q75 73 82 264l36 512h-790l-377 -471q-127 -167 -127 -254q0 -127 221 -139q21 0 21 -53q0 -34 -15 -64q-16 -31 -34 -31 q-106 0 -277 13q-157 12 -268 12q-91 0 -248 -12q-171 -13 -256 -13q-20 0 -20 54q0 87 45 94q239 21 393 119q157 99 319 290l1934 2323q12 33 90 33q90 0 90 -37l-119 -2347q-1 -19 -1 -37q0 -179 69 -244q76 -72 321 -100q21 -7 21 -53zM1831 2056l-721 -905h668z" />
<glyph unicode="&#xc5;" horiz-adv-x="3153" d="M2904 3195q0 -171 -125 -301t-313 -137l-115 -2253q-1 -19 -1 -37q0 -179 69 -244q76 -72 321 -100q21 -7 21 -53q0 -34 -15 -64q-16 -31 -34 -31q-122 0 -351 13q-211 12 -321 12q-124 0 -367 -12q-263 -13 -383 -13q-20 0 -20 54q0 30 16 59q17 31 33 35q259 17 332 88 q75 73 82 264l36 512h-790l-377 -471q-127 -167 -127 -254q0 -127 221 -139q21 0 21 -53q0 -34 -15 -64q-16 -31 -34 -31q-106 0 -277 13q-157 12 -268 12q-91 0 -248 -12q-171 -13 -256 -13q-20 0 -20 54q0 87 45 94q239 21 393 119q157 99 319 290l1889 2274 q-121 54 -189 157q-69 105 -69 232q0 172 131 301q130 129 327 129t328 -129t131 -301zM2699 3195q0 119 -71 196q-72 78 -183 78q-106 0 -178 -78t-72 -196q0 -123 72 -203t178 -80q111 0 183 80q71 78 71 203zM1831 2056l-721 -905h668z" />
<glyph unicode="&#xc6;" horiz-adv-x="4182" d="M4055 2826q-33 -270 -33 -409q-8 -174 -8 -373q0 -33 -70 -33q-73 0 -73 33q-17 270 -162 432t-395 162h-201q-242 0 -299 -242l-205 -868h340q200 0 309 74t191 303q12 32 74 32q27 0 53 -8q24 -8 20 -24l-65 -254l-58 -213q-15 -63 -53 -258q-34 -172 -57 -275 q-5 -33 -74 -33q-74 0 -74 33q10 80 10 146q0 146 -51 215q-73 98 -262 98h-340l-217 -897q-20 -86 -20 -139q0 -164 188 -164h389q278 0 512 192q233 191 316 463q5 17 49 17q31 0 67 -19q35 -19 31 -35q-135 -476 -201 -807q-781 25 -1204 25q-418 0 -1212 -25 q-21 0 -21 54q0 27 19 59q18 31 39 35q253 28 325 96q72 67 117 248l135 602h-840l-442 -553q-131 -173 -131 -254q0 -127 225 -139q21 0 21 -53q0 -28 -17 -62q-16 -33 -32 -33q-110 0 -281 13q-157 12 -264 12q-91 0 -248 -12q-171 -13 -256 -13q-20 0 -20 54q0 87 45 94 q239 21 393 119q157 99 319 290l1504 1811q69 83 69 151q0 78 -84 127q-86 51 -227 58q-21 7 -21 53q0 26 19 61q18 33 39 33q426 -24 1319 -24q655 0 1081 24zM2249 2580l-1078 -1347h754z" />
<glyph unicode="&#xc7;" horiz-adv-x="2924" d="M2789 2851q-79 -543 -110 -819q0 -37 -74 -37q-67 0 -74 37q-33 659 -491 659q-230 0 -459 -139q-229 -140 -414 -375q-185 -236 -299 -580q-114 -343 -114 -725q0 -376 192 -585t520 -209q602 0 926 790q16 33 82 33q9 0 23 -2q4 -1 10.5 -2.5t7.5 -1.5q8 -2 14 -6 q8 -6 11 -10q5 -6 0 -11q-117 -428 -197 -827q-469 -127 -918 -127l-41 -74q-12 -12 -12 -37q0 -32 41 -61q221 -140 221 -320q0 -160 -151 -268t-361 -108q-114 0 -184 47t-70 112q0 41 33 80t82 39q58 0 135 -61q79 -62 127 -62q103 0 103 131q0 126 -246 254 q-37 16 -37 62q0 29 8 37l156 237q-488 50 -785 354t-297 777q0 761 611 1300t1581 539q242 0 450 -41z" />
<glyph unicode="&#xc8;" horiz-adv-x="2756" d="M2003 3166q0 -28 -43 -65t-64 -37q-10 0 -28 8l-697 487q-49 28 -49 103q0 90 82 172t180 82q66 0 99 -45l508 -668q12 -7 12 -37zM2626 2826q-26 -233 -33 -409q0 -12 -0.5 -36t-1 -68.5t-0.5 -82.5t-0.5 -82.5t-1 -68t-0.5 -35.5q0 -33 -78 -33q-70 0 -70 33 q-17 270 -162 432t-395 162h-196q-242 0 -299 -242l-205 -868h340q200 0 307 74q105 73 188 303q12 32 74 32q31 0 55 -8q23 -8 19 -24l-60 -234l-59 -233q-27 -104 -61 -285q-31 -163 -50 -248q-12 -33 -73 -33q-36 0 -58 11q-20 10 -16 22q10 80 10 144q0 148 -53 217 q-76 98 -264 98h-340l-213 -897q-21 -90 -21 -139q0 -164 189 -164h385q279 0 514 192q234 191 317 463q0 17 49 17q32 0 68 -19q35 -19 31 -35q-119 -396 -201 -807q-781 25 -1208 25q-428 0 -1209 -25q-24 0 -24 54q0 29 18 59q18 31 39 35q255 29 328 96t114 248 l443 1868q24 107 24 139q0 94 -63 137q-64 44 -268 68q-21 5 -21 53q0 26 19 61q18 33 34 33q426 -24 1057 -24q656 0 1082 24z" />
<glyph unicode="&#xc9;" horiz-adv-x="2756" d="M2417 3666q0 -94 -66 -131l-741 -463q-18 -8 -29 -8q-15 0 -53 33q-37 33 -37 57q0 33 16 49l570 668q33 45 106 45q87 0 160 -82q74 -83 74 -168zM2626 2826q-26 -233 -33 -409q0 -12 -0.5 -36t-1 -68.5t-0.5 -82.5t-0.5 -82.5t-1 -68t-0.5 -35.5q0 -33 -78 -33 q-70 0 -70 33q-17 270 -162 432t-395 162h-196q-242 0 -299 -242l-205 -868h340q200 0 307 74q105 73 188 303q12 32 74 32q31 0 55 -8q23 -8 19 -24l-60 -234l-59 -233q-27 -104 -61 -285q-31 -163 -50 -248q-12 -33 -73 -33q-36 0 -58 11q-20 10 -16 22q10 80 10 144 q0 148 -53 217q-76 98 -264 98h-340l-213 -897q-21 -90 -21 -139q0 -164 189 -164h385q279 0 514 192q234 191 317 463q0 17 49 17q32 0 68 -19q35 -19 31 -35q-119 -396 -201 -807q-781 25 -1208 25q-428 0 -1209 -25q-24 0 -24 54q0 29 18 59q18 31 39 35q255 29 328 96 t114 248l443 1868q24 107 24 139q0 94 -63 137q-64 44 -268 68q-21 5 -21 53q0 26 19 61q18 33 34 33q426 -24 1057 -24q656 0 1082 24z" />
<glyph unicode="&#xca;" horiz-adv-x="2756" d="M2482 3178q-4 -36 -39 -69t-67 -33q-21 0 -41 16l-484 349l-716 -349q-32 -16 -50 -16q-28 0 -51 29q-22 28 -18 61q0 21 28 49l791 627q41 33 78 33q48 0 69 -33l488 -627q12 -21 12 -37zM2626 2826q-26 -233 -33 -409q0 -12 -0.5 -36t-1 -68.5t-0.5 -82.5t-0.5 -82.5 t-1 -68t-0.5 -35.5q0 -33 -78 -33q-70 0 -70 33q-17 270 -162 432t-395 162h-196q-242 0 -299 -242l-205 -868h340q200 0 307 74q105 73 188 303q12 32 74 32q31 0 55 -8q23 -8 19 -24l-60 -234l-59 -233q-27 -104 -61 -285q-31 -163 -50 -248q-12 -33 -73 -33q-36 0 -58 11 q-20 10 -16 22q10 80 10 144q0 148 -53 217q-76 98 -264 98h-340l-213 -897q-21 -90 -21 -139q0 -164 189 -164h385q279 0 514 192q234 191 317 463q0 17 49 17q32 0 68 -19q35 -19 31 -35q-119 -396 -201 -807q-781 25 -1208 25q-428 0 -1209 -25q-24 0 -24 54q0 29 18 59 q18 31 39 35q255 29 328 96t114 248l443 1868q24 107 24 139q0 94 -63 137q-64 44 -268 68q-21 5 -21 53q0 26 19 61q18 33 34 33q426 -24 1057 -24q656 0 1082 24z" />
<glyph unicode="&#xcb;" horiz-adv-x="2756" d="M2519 3432q0 -124 -88 -213q-89 -90 -215 -90q-123 0 -213 90t-90 213q0 126 90 215q91 89 213 89q126 0 215 -89q88 -88 88 -215zM1565 3432q0 -123 -90 -213t-213 -90q-124 0 -215 90q-93 91 -93 213t93 213t215 91t213 -89q90 -89 90 -215zM2626 2826 q-26 -233 -33 -409q0 -12 -0.5 -36t-1 -68.5t-0.5 -82.5t-0.5 -82.5t-1 -68t-0.5 -35.5q0 -33 -78 -33q-70 0 -70 33q-17 270 -162 432t-395 162h-196q-242 0 -299 -242l-205 -868h340q200 0 307 74q105 73 188 303q12 32 74 32q31 0 55 -8q23 -8 19 -24l-60 -234l-59 -233 q-27 -104 -61 -285q-31 -163 -50 -248q-12 -33 -73 -33q-36 0 -58 11q-20 10 -16 22q10 80 10 144q0 148 -53 217q-76 98 -264 98h-340l-213 -897q-21 -90 -21 -139q0 -164 189 -164h385q279 0 514 192q234 191 317 463q0 17 49 17q32 0 68 -19q35 -19 31 -35 q-119 -396 -201 -807q-781 25 -1208 25q-428 0 -1209 -25q-24 0 -24 54q0 29 18 59q18 31 39 35q255 29 328 96t114 248l443 1868q24 107 24 139q0 94 -63 137q-64 44 -268 68q-21 5 -21 53q0 26 19 61q18 33 34 33q426 -24 1057 -24q656 0 1082 24z" />
<glyph unicode="&#xcc;" horiz-adv-x="1966" d="M1499 3166q0 -28 -43 -65t-63 -37q-11 0 -29 8l-696 487q-50 29 -50 103q0 90 82 172t181 82q65 0 98 -45l508 -668q12 -7 12 -37zM1995 2781q0 -27 -19 -63q-18 -34 -39 -39q-254 -29 -325 -94q-73 -67 -113 -250l-442 -1868q-25 -111 -25 -139q0 -94 64 -138 q62 -43 268 -67q20 -4 20 -53q0 -29 -18 -62t-35 -33q-124 0 -366 13q-223 12 -326 12q-107 0 -326 -12q-237 -13 -346 -13q-20 0 -20 54q0 29 18 59q18 31 39 35q254 29 326 96q71 67 112 248l447 1868q20 86 20 139q0 94 -63 137q-64 44 -268 68q-21 7 -21 53q0 28 18 61 t35 33q144 0 367 -12t326 -12t323 12t348 12q21 0 21 -45z" />
<glyph unicode="&#xcd;" horiz-adv-x="1966" d="M2085 3666q0 -94 -66 -131l-741 -463q-18 -8 -29 -8q-15 0 -53 33q-37 33 -37 57q0 32 21 49l565 668q37 45 106 45q90 0 162 -82t72 -168zM1995 2781q0 -27 -19 -63q-18 -34 -39 -39q-254 -29 -325 -94q-73 -67 -113 -250l-442 -1868q-25 -111 -25 -139q0 -94 64 -138 q62 -43 268 -67q20 -4 20 -53q0 -29 -18 -62t-35 -33q-124 0 -366 13q-223 12 -326 12q-107 0 -326 -12q-237 -13 -346 -13q-20 0 -20 54q0 29 18 59q18 31 39 35q254 29 326 96q71 67 112 248l447 1868q20 86 20 139q0 94 -63 137q-64 44 -268 68q-21 7 -21 53q0 28 18 61 t35 33q144 0 367 -12t326 -12t323 12t348 12q21 0 21 -45z" />
<glyph unicode="&#xce;" horiz-adv-x="1966" d="M2040 3178q0 -36 -35 -69t-72 -33q-21 0 -41 16l-483 349l-717 -349q-32 -16 -45 -16q-28 0 -51 29q-22 28 -18 61q0 25 28 49l791 627q33 33 78 33t69 -33l488 -627q9 -16 9 -28q0 -5 -1 -9zM1995 2781q0 -27 -19 -63q-18 -34 -39 -39q-254 -29 -325 -94 q-73 -67 -113 -250l-442 -1868q-25 -111 -25 -139q0 -94 64 -138q62 -43 268 -67q20 -4 20 -53q0 -29 -18 -62t-35 -33q-124 0 -366 13q-223 12 -326 12q-107 0 -326 -12q-237 -13 -346 -13q-20 0 -20 54q0 29 18 59q18 31 39 35q254 29 326 96q71 67 112 248l447 1868 q20 86 20 139q0 94 -63 137q-64 44 -268 68q-21 7 -21 53q0 28 18 61t35 33q144 0 367 -12t326 -12t323 12t348 12q21 0 21 -45z" />
<glyph unicode="&#xcf;" horiz-adv-x="1966" d="M2109 3432q0 -123 -90 -213t-217 -90q-123 0 -213 90t-90 213q0 126 90 215q91 89 213 89q126 0 217 -89q90 -89 90 -215zM1151 3432q0 -123 -90 -213t-213 -90t-213 90t-90 213q0 126 90 215q91 89 213 89t213 -89q90 -89 90 -215zM1995 2781q0 -27 -19 -63 q-18 -34 -39 -39q-254 -29 -325 -94q-73 -67 -113 -250l-442 -1868q-25 -111 -25 -139q0 -94 64 -138q62 -43 268 -67q20 -4 20 -53q0 -29 -18 -62t-35 -33q-124 0 -366 13q-223 12 -326 12q-107 0 -326 -12q-237 -13 -346 -13q-20 0 -20 54q0 29 18 59q18 31 39 35 q254 29 326 96q71 67 112 248l447 1868q20 86 20 139q0 94 -63 137q-64 44 -268 68q-21 7 -21 53q0 28 18 61t35 33q144 0 367 -12t326 -12t323 12t348 12q21 0 21 -45z" />
<glyph unicode="&#xd0;" horiz-adv-x="3518" d="M3326 1696q0 -447 -250 -842q-250 -396 -684 -633t-946 -237q-74 0 -338 8t-342 8q-394 0 -778 -25q-25 0 -25 50q0 23 21 61q21 37 36 37q254 29 328 98q74 70 115 250l201 852l-459 -16q-53 0 -53 127t53 127h516l184 774q25 86 25 139q0 93 -64 137t-268 68 q-20 4 -20 53q0 42 16 70t37 24q192 -8 700 -8q79 0 324 8t319 8q640 0 996 -307t356 -831zM2716 1794q0 420 -197 649q-192 223 -567 223h-15l-135 -8q-210 0 -262 -237l-205 -860h406q49 0 49 -127t-49 -127l-463 16l-217 -922q-15 -62 -15 -106q0 -54 23 -82 q40 -48 139 -53l213 -4q300 0 551 151q253 152 410 391q157 240 246 527q88 285 88 569z" />
<glyph unicode="&#xd1;" horiz-adv-x="3325" d="M2793 3777q-57 -278 -172 -408q-101 -115 -261 -115q-21 0 -42 2l-635 62q-13 1 -26 1q-254 0 -379 -231q-4 -16 -41 -16q-40 0 -70 25q-28 24 -16 65q136 559 512 559q24 0 49 -2l598 -57q23 -1 45 -1q108 0 172 32q78 39 139 157q8 21 41 21q37 0 66 -27q28 -26 20 -67 zM3473 2773q0 -87 -49 -94q-221 -24 -301 -101q-79 -76 -112 -243l-459 -2384q-8 -41 -82 -41q-65 0 -98 33l-1434 2142l-315 -1618q-17 -66 -17 -119q0 -75 35 -121q61 -80 272 -104q21 -5 21 -53q0 -31 -14 -62q-15 -33 -31 -33q-73 0 -248 13q-162 12 -244 12 q-86 0 -245 -12q-172 -13 -230 -13q-24 0 -24 54q0 30 16 59q17 31 33 35q226 24 317 102q93 79 133 242l394 1802q16 51 16 115q0 246 -393 291q-21 7 -21 53q0 27 17 61q16 33 32 33q65 0 176 -6t160 -6q45 0 162 6t240 6l1347 -1999l266 1512q8 46 8 85q0 94 -48 150 q-70 80 -291 109q-25 8 -25 53q0 36 14 64q15 30 35 30q82 0 238 -12t250 -12q90 0 241 12t238 12q20 0 20 -53z" />
<glyph unicode="&#xd2;" horiz-adv-x="3149" d="M2179 3166q0 -28 -43 -65t-63 -37q-11 0 -29 8l-696 487q-50 29 -50 103q0 90 82 172t181 82q69 0 102 -45l508 -668q8 -8 8 -37zM2978 1769q0 -742 -524 -1300q-525 -559 -1213 -559q-443 0 -766 289t-323 833q0 742 522 1299t1210 557q203 0 395 -68t351 -197t254 -350 q94 -219 94 -504zM2376 2028q0 700 -496 700q-299 0 -563 -291q-265 -292 -416 -741t-151 -922q0 -700 495 -700q299 0 563 291q265 292 416 741q152 451 152 922z" />
<glyph unicode="&#xd3;" horiz-adv-x="3149" d="M2703 3666q0 -94 -65 -131l-742 -463q-18 -8 -28 -8q-17 0 -56 33q-38 32 -38 57q0 29 20 49l569 668q33 45 107 45q87 0 160 -82t73 -168zM2978 1769q0 -742 -524 -1300q-525 -559 -1213 -559q-443 0 -766 289t-323 833q0 742 522 1299t1210 557q203 0 395 -68t351 -197 t254 -350q94 -219 94 -504zM2376 2028q0 700 -496 700q-299 0 -563 -291q-265 -292 -416 -741t-151 -922q0 -700 495 -700q299 0 563 291q265 292 416 741q152 451 152 922z" />
<glyph unicode="&#xd4;" horiz-adv-x="3149" d="M2687 3178q0 -36 -35 -69q-34 -33 -72 -33q-20 0 -40 16l-480 349l-721 -349q-32 -16 -45 -16q-28 0 -51 29q-22 28 -18 61q0 25 28 49l791 627q33 33 78 33t69 -33l488 -627q12 -21 8 -37zM2978 1769q0 -742 -524 -1300q-525 -559 -1213 -559q-443 0 -766 289t-323 833 q0 742 522 1299t1210 557q203 0 395 -68t351 -197t254 -350q94 -219 94 -504zM2376 2028q0 700 -496 700q-299 0 -563 -291q-265 -292 -416 -741t-151 -922q0 -700 495 -700q299 0 563 291q265 292 416 741q152 451 152 922z" />
<glyph unicode="&#xd5;" horiz-adv-x="3149" d="M2863 3777q-57 -283 -174 -410q-104 -113 -263 -113q-20 0 -42 2l-635 62q-13 1 -25 1q-251 0 -376 -231q-12 -16 -41 -16q-40 0 -70 25q-28 23 -20 65q137 560 513 560q25 0 52 -3l594 -57q23 -1 45 -1q108 0 174 32q80 39 137 157q12 21 41 21q37 0 66 -27 q28 -27 24 -67zM2978 1769q0 -742 -524 -1300q-525 -559 -1213 -559q-443 0 -766 289t-323 833q0 742 522 1299t1210 557q203 0 395 -68t351 -197t254 -350q94 -219 94 -504zM2376 2028q0 700 -496 700q-299 0 -563 -291q-265 -292 -416 -741t-151 -922q0 -700 495 -700 q299 0 563 291q265 292 416 741q152 451 152 922z" />
<glyph unicode="&#xd6;" horiz-adv-x="3149" d="M2847 3432q0 -123 -90 -213t-213 -90q-127 0 -217 90q-91 91 -91 213q0 126 91 215t217 89q122 0 213 -89q90 -89 90 -215zM1892 3432q0 -123 -92 -213t-215 -90t-213 90t-90 213q0 126 90 215q91 89 213 89t215 -91q92 -90 92 -213zM2978 1769q0 -742 -524 -1300 q-525 -559 -1213 -559q-443 0 -766 289t-323 833q0 742 522 1299t1210 557q203 0 395 -68t351 -197t254 -350q94 -219 94 -504zM2376 2028q0 700 -496 700q-299 0 -563 -291q-265 -292 -416 -741t-151 -922q0 -700 495 -700q299 0 563 291q265 292 416 741q152 451 152 922z " />
<glyph unicode="&#xd8;" horiz-adv-x="3149" d="M2978 1774q0 -743 -524 -1301q-525 -559 -1213 -559q-295 0 -557 139l-160 -221q-9 -14 -25 -14q-22 0 -57 26q-53 41 -36 70l159 217q-413 302 -413 901q0 489 239 918q240 430 641 686t852 256q300 0 553 -139l160 221q9 14 24 14q20 0 54 -27q57 -38 37 -69 q-152 -213 -156 -213q422 -303 422 -905zM2269 2519q-119 209 -389 209q-299 0 -563 -291q-265 -292 -416 -741t-151 -918q0 -204 45 -323zM2376 2028q0 208 -45 331l-1479 -2068q128 -213 393 -213q299 0 563 291q265 292 416 741q152 451 152 918z" />
<glyph unicode="&#xd9;" horiz-adv-x="3121" d="M2286 3166q0 -28 -43 -65t-64 -37q-7 0 -25 8l-700 487q-49 28 -49 103q0 90 82 172t180 82q69 0 102 -45l508 -668q9 -9 9 -37zM3391 2773q0 -87 -49 -94q-286 -33 -379 -103t-133 -241l-299 -1262q-274 -1163 -1188 -1163q-605 0 -847 326q-159 214 -159 516 q0 159 44 342l295 1241q20 86 20 139q0 91 -65 135q-68 46 -275 70q-20 7 -20 53q0 29 16 61q16 33 33 33q143 0 373 -12t332 -12t333 12t355 12q20 0 20 -53q0 -87 -49 -94q-191 -21 -281 -64q-92 -43 -120 -96q-29 -53 -62 -184l-311 -1311q-54 -227 -54 -395 q0 -177 60 -287q117 -215 469 -215q672 0 897 946l303 1262q21 90 21 139q0 89 -70 135q-71 46 -274 70q-25 8 -25 53q0 36 14 64q15 30 35 30q91 0 250 -12t258 -12t252 12t256 12q24 0 24 -53z" />
<glyph unicode="&#xda;" horiz-adv-x="3121" d="M2859 3666q0 -94 -66 -131l-741 -463q-18 -8 -29 -8q-15 0 -53 33q-37 33 -37 57q0 32 21 49l565 668q33 45 107 45q89 0 161 -82t72 -168zM3391 2773q0 -87 -49 -94q-286 -33 -379 -103t-133 -241l-299 -1262q-274 -1163 -1188 -1163q-605 0 -847 326q-159 214 -159 516 q0 159 44 342l295 1241q20 86 20 139q0 91 -65 135q-68 46 -275 70q-20 7 -20 53q0 29 16 61q16 33 33 33q143 0 373 -12t332 -12t333 12t355 12q20 0 20 -53q0 -87 -49 -94q-191 -21 -281 -64q-92 -43 -120 -96q-29 -53 -62 -184l-311 -1311q-54 -227 -54 -395 q0 -177 60 -287q117 -215 469 -215q672 0 897 946l303 1262q21 90 21 139q0 89 -70 135q-71 46 -274 70q-25 8 -25 53q0 36 14 64q15 30 35 30q91 0 250 -12t258 -12t252 12t256 12q24 0 24 -53z" />
<glyph unicode="&#xdb;" horiz-adv-x="3121" d="M2839 3178q-4 -36 -39 -69q-34 -33 -68 -33q-21 0 -41 16l-483 349l-717 -349q-39 -16 -49 -16q-28 0 -51 29q-23 30 -19 61q0 20 29 49l790 627q41 33 78 33q49 0 70 -33l487 -627q13 -23 13 -37zM3391 2773q0 -87 -49 -94q-286 -33 -379 -103t-133 -241l-299 -1262 q-274 -1163 -1188 -1163q-605 0 -847 326q-159 214 -159 516q0 159 44 342l295 1241q20 86 20 139q0 91 -65 135q-68 46 -275 70q-20 7 -20 53q0 29 16 61q16 33 33 33q143 0 373 -12t332 -12t333 12t355 12q20 0 20 -53q0 -87 -49 -94q-191 -21 -281 -64q-92 -43 -120 -96 q-29 -53 -62 -184l-311 -1311q-54 -227 -54 -395q0 -177 60 -287q117 -215 469 -215q672 0 897 946l303 1262q21 90 21 139q0 89 -70 135q-71 46 -274 70q-25 8 -25 53q0 36 14 64q15 30 35 30q91 0 250 -12t258 -12t252 12t256 12q24 0 24 -53z" />
<glyph unicode="&#xdc;" horiz-adv-x="3121" d="M2863 3432q0 -123 -90 -213t-213 -90q-127 0 -217 90t-90 213q0 126 90 215q91 89 217 89q122 0 213 -89q90 -89 90 -215zM1909 3432q0 -123 -90 -213t-213 -90q-127 0 -217 90q-91 91 -91 213q0 126 91 215t217 89q122 0 213 -89q90 -89 90 -215zM3391 2773 q0 -87 -49 -94q-286 -33 -379 -103t-133 -241l-299 -1262q-274 -1163 -1188 -1163q-605 0 -847 326q-159 214 -159 516q0 159 44 342l295 1241q20 86 20 139q0 91 -65 135q-68 46 -275 70q-20 7 -20 53q0 29 16 61q16 33 33 33q143 0 373 -12t332 -12t333 12t355 12 q20 0 20 -53q0 -87 -49 -94q-191 -21 -281 -64q-92 -43 -120 -96q-29 -53 -62 -184l-311 -1311q-54 -227 -54 -395q0 -177 60 -287q117 -215 469 -215q672 0 897 946l303 1262q21 90 21 139q0 89 -70 135q-71 46 -274 70q-25 8 -25 53q0 36 14 64q15 30 35 30q91 0 250 -12 t258 -12t252 12t256 12q24 0 24 -53z" />
<glyph unicode="&#xdd;" horiz-adv-x="3084" d="M2654 3666q0 -94 -65 -131l-742 -463q-18 -8 -28 -8q-17 0 -54 33q-36 32 -36 57q0 33 20 49l565 668q33 45 107 45q90 0 162 -82q71 -81 71 -168zM3342 2376v-5q0 -26 -37 -61q-74 -41 -86 -12q-99 246 -421 246q-336 0 -641 -449q-307 -452 -465 -1124l-119 -500 q-21 -95 -21 -139q0 -94 68 -139q70 -46 272 -70q21 0 21 -49q0 -33 -15 -66t-34 -33q-125 0 -375 13q-231 12 -334 12t-332 -12q-249 -13 -352 -13q-25 0 -25 58q0 24 17 55t33 35q269 28 346 92q76 62 121 256l139 586q107 470 107 781q0 177 -35 304q-96 348 -433 348 q-259 0 -495 -278q-25 -25 -82 37q-26 31 -26 52q0 10 5 17q139 233 365 402q225 168 483 168q315 0 535 -265q219 -264 219 -694q0 -42 -8 -164q220 487 522 805q301 318 588 318q204 0 344 -158q139 -157 151 -354z" />
<glyph unicode="&#xde;" horiz-adv-x="2670" d="M2568 1503q0 -369 -332 -612q-333 -244 -798 -244q-178 0 -394 41l-49 -217q-20 -86 -20 -139q0 -94 63 -139q65 -46 269 -70q20 0 20 -49q0 -31 -20 -64q-21 -35 -37 -35q-125 0 -367 13q-223 12 -325 12q-104 0 -324 -12q-239 -13 -348 -13q-21 0 -21 58q0 24 21 57 t37 33q253 28 325 96q73 68 113 252l446 1864q21 90 21 139q0 93 -64 137t-268 68q-20 7 -20 53q0 28 18 61t39 33q145 0 365 -12t327 -12q103 0 324 12t344 12q24 0 24 -45q0 -25 -20 -61t-37 -41q-260 -29 -328 -94q-69 -66 -114 -250l-25 -119q106 8 193 8 q463 0 712 -182q250 -183 250 -539zM1946 1585q0 237 -105 354t-260 117q-139 0 -188 -51q-48 -50 -86 -223l-193 -807q-7 -32 -7 -57q0 -48 26 -70q39 -33 174 -33q295 0 467 211t172 559z" />
<glyph unicode="&#xdf;" horiz-adv-x="2240" d="M2105 2404q0 -114 -84 -237q-86 -126 -184 -215q-96 -87 -184 -207q-84 -114 -84 -213q0 -91 200 -442q201 -352 201 -525q0 -249 -201 -450t-512 -201q-195 0 -335 96t-140 219q0 97 54 156q52 57 147 57q77 0 137 -88q58 -85 127 -176q67 -88 162 -88q143 0 143 217 q0 85 -92 258q-94 176 -186 373q-94 200 -94 356q0 125 77 248t175 215q97 91 174 211t77 236q0 212 -90 368t-245 156q-85 0 -146 -64q-58 -61 -135 -280q-76 -215 -178 -647q-17 -81 -397 -1651q-147 -622 -447 -928q-299 -305 -647 -305q-203 0 -354 107 q-150 106 -150 241q0 115 70 185q69 69 192 69q88 0 156 -55q67 -54 106 -119q38 -64 90 -119t111 -55q106 0 170 109t125 399q38 202 238 1116q190 870 233 1018q140 538 479 897q340 360 652 360q257 0 423 -182t166 -420z" />
<glyph unicode="&#xe0;" horiz-adv-x="2142" d="M2052 1761l-553 -1274q-65 -149 -65 -200q0 -49 36 -49q62 0 195 139t141 139q29 0 56 -33q26 -32 26 -53q0 -37 -119 -162q-118 -124 -292 -241t-297 -117q-275 0 -275 221q0 165 127 406q-165 -268 -389 -447q-225 -180 -418 -180q-148 0 -233 106q-86 107 -86 287 q0 214 145 477q144 262 355 477q212 216 448 361q240 147 420 147q84 0 147 -36q65 -37 82 -99l62 148q33 61 254 61q61 0 118 -12q56 -12 91 -31q26 -14 26 -28q0 -4 -2 -7zM1401 1466q0 111 -78 111q-144 0 -369 -213q-223 -211 -397 -494q-172 -280 -172 -456 q0 -88 31 -127q30 -37 104 -37q111 0 326 244q218 247 385 538q170 296 170 434zM1765 2154q0 -28 -41 -63t-61 -35q-11 0 -29 8l-643 451q-49 33 -49 94q0 90 78 168t176 78q61 0 94 -45l467 -623q8 -8 8 -33z" />
<glyph unicode="&#xe1;" horiz-adv-x="2142" d="M2052 1761l-553 -1274q-65 -149 -65 -200q0 -49 36 -49q62 0 195 139t141 139q29 0 56 -33q26 -32 26 -53q0 -37 -119 -162q-118 -124 -292 -241t-297 -117q-275 0 -275 221q0 165 127 406q-165 -268 -389 -447q-225 -180 -418 -180q-148 0 -233 106q-86 107 -86 287 q0 214 145 477q144 262 355 477q212 216 448 361q240 147 420 147q84 0 147 -36q65 -37 82 -99l62 148q33 61 254 61q61 0 118 -12q56 -12 91 -31q32 -17 24 -35zM1401 1466q0 111 -78 111q-144 0 -369 -213q-223 -211 -397 -494q-172 -280 -172 -456q0 -88 31 -127 q30 -37 104 -37q111 0 326 244q218 247 385 538q170 296 170 434zM2249 2621q0 -84 -62 -122l-704 -435q-12 -12 -29 -12q-11 0 -47 31q-35 30 -35 55q0 28 21 45l536 635q33 45 103 45q82 0 149 -78q68 -79 68 -164z" />
<glyph unicode="&#xe2;" horiz-adv-x="2142" d="M2052 1761l-553 -1274q-65 -149 -65 -200q0 -49 36 -49q62 0 195 139t141 139q29 0 56 -33q26 -32 26 -53q0 -37 -119 -162q-118 -124 -292 -241t-297 -117q-275 0 -275 221q0 165 127 406q-165 -268 -389 -447q-225 -180 -418 -180q-148 0 -233 106q-86 107 -86 287 q0 214 145 477q144 262 355 477q212 216 448 361q240 147 420 147q84 0 147 -36q65 -37 82 -99l62 148q33 61 254 61q61 0 118 -12q56 -12 91 -31q32 -17 24 -35zM1401 1466q0 111 -78 111q-144 0 -369 -213q-223 -211 -397 -494q-172 -280 -172 -456q0 -88 31 -127 q30 -37 104 -37q111 0 326 244q218 247 385 538q170 296 170 434zM2204 2150q-4 -33 -37 -61q-34 -29 -70 -29q-20 0 -37 17l-327 344l-557 -344q-23 -13 -37 -13q-38 0 -62 27q-21 23 -21 49q0 5 1 10q0 18 16 41l664 639q24 33 73 33q54 0 66 -33l324 -647q5 -12 5 -22 q0 -6 -1 -11z" />
<glyph unicode="&#xe3;" horiz-adv-x="2142" d="M2052 1761l-553 -1274q-65 -149 -65 -200q0 -49 36 -49q62 0 195 139t141 139q29 0 56 -33q26 -32 26 -53q0 -37 -119 -162q-118 -124 -292 -241t-297 -117q-275 0 -275 221q0 165 127 406q-165 -268 -389 -447q-225 -180 -418 -180q-148 0 -233 106q-86 107 -86 287 q0 214 145 477q144 262 355 477q212 216 448 361q240 147 420 147q84 0 147 -36q65 -37 82 -99l62 148q33 61 254 61q61 0 118 -12q56 -12 91 -31q32 -17 24 -35zM1401 1466q0 111 -78 111q-144 0 -369 -213q-223 -211 -397 -494q-172 -280 -172 -456q0 -88 31 -127 q30 -37 104 -37q111 0 326 244q218 247 385 538q170 296 170 434zM2302 2712q-52 -279 -164 -392q-100 -101 -253 -101q-17 0 -34 1l-508 25h-19q-119 0 -200 -50q-83 -52 -149 -180q-11 -20 -41 -20q-38 0 -68 24q-24 19 -24 50q0 8 2 16q69 266 188 403q107 123 291 123 q22 0 45 -2l471 -24q20 -1 38 -1q109 0 171 39q75 47 127 158q12 21 45 21q36 0 64 -25q20 -18 20 -46q0 -9 -2 -19z" />
<glyph unicode="&#xe4;" horiz-adv-x="2142" d="M2052 1761l-553 -1274q-65 -149 -65 -200q0 -49 36 -49q62 0 195 139t141 139q29 0 56 -33q26 -32 26 -53q0 -37 -119 -162q-118 -124 -292 -241t-297 -117q-275 0 -275 221q0 165 127 406q-165 -268 -389 -447q-225 -180 -418 -180q-148 0 -233 106q-86 107 -86 287 q0 214 145 477q144 262 355 477q212 216 448 361q240 147 420 147q84 0 147 -36q65 -37 82 -99l62 148q33 61 254 61q61 0 118 -12q56 -12 91 -31q32 -17 24 -35zM1401 1466q0 111 -78 111q-144 0 -369 -213q-223 -211 -397 -494q-172 -280 -172 -456q0 -88 31 -127 q30 -37 104 -37q111 0 326 244q218 247 385 538q170 296 170 434zM2327 2400q0 -118 -84 -202t-203 -84q-115 0 -201 86t-86 200q0 120 84 205q84 86 203 86t203 -86q84 -85 84 -205zM1507 2400q0 -118 -84 -202t-202 -84q-119 0 -205 84t-86 202q0 119 86 205t205 86 q118 0 202 -86q84 -85 84 -205z" />
<glyph unicode="&#xe5;" horiz-adv-x="2142" d="M2052 1761l-553 -1274q-65 -149 -65 -200q0 -49 36 -49q62 0 195 139t141 139q29 0 56 -33q26 -32 26 -53q0 -37 -119 -162q-118 -124 -292 -241t-297 -117q-275 0 -275 221q0 165 127 406q-165 -268 -389 -447q-225 -180 -418 -180q-148 0 -233 106q-86 107 -86 287 q0 214 145 477q144 262 355 477q212 216 448 361q240 147 420 147q84 0 147 -36q65 -37 82 -99l62 148q33 61 254 61q61 0 118 -12q56 -12 91 -31q32 -17 24 -35zM1401 1466q0 111 -78 111q-144 0 -369 -213q-223 -211 -397 -494q-172 -280 -172 -456q0 -88 31 -127 q30 -37 104 -37q111 0 326 244q218 247 385 538q170 296 170 434zM2126 2454q0 -173 -127 -300q-126 -126 -320 -126t-321 126q-129 128 -129 300q0 166 129 294q128 127 321 127t320 -127t127 -294zM1925 2454q0 113 -70 192q-69 78 -176 78q-102 0 -174 -78 q-71 -77 -71 -192q0 -119 69 -197t176 -78t176 78q70 79 70 197z" />
<glyph unicode="&#xe6;" horiz-adv-x="2555" d="M2388 1479q0 -370 -995 -1049q33 -221 229 -221q268 0 492 311q8 12 30 -4q24 -18 41 -43q18 -26 10 -43q-86 -180 -305 -350q-220 -170 -444 -170q-299 0 -467 254q-349 -254 -614 -254q-209 0 -334 119t-125 311q0 251 182 520q184 272 471 483q291 214 672 353 t760 139q206 0 301 -98q96 -99 96 -258zM1991 1442q0 155 -127 155q-169 0 -308 -278q-138 -277 -167 -680q290 212 446 430q156 217 156 373zM1450 1593q-435 -107 -750 -473t-315 -702q0 -234 197 -234q146 0 319 131q-24 69 -24 148q0 311 163 618q162 305 410 512z" />
<glyph unicode="&#xe7;" horiz-adv-x="1683" d="M1597 1495q0 -86 -65 -147q-67 -62 -164 -62q-82 0 -135 53t-74 119q-22 68 -61 119q-41 53 -103 53q-53 0 -129 -82q-73 -79 -153 -223q-77 -139 -133 -369t-56 -481q0 -278 217 -278q99 0 238 100q137 99 221 207q9 9 33 -8q26 -18 43 -43q18 -26 10 -43 q-52 -118 -246 -283q-192 -163 -393 -201l-53 -86q-12 -12 -12 -37q0 -32 41 -61q221 -140 221 -320q0 -160 -150 -268t-358 -108q-114 0 -184 47t-70 112q0 41 33 80t82 39q58 0 135 -61q79 -62 127 -62q102 0 102 131q0 126 -246 254q-36 16 -36 62q0 29 8 37l155 237 q-189 37 -319 199q-131 163 -131 399q0 278 170 588q169 309 442 520q272 211 539 211q187 0 321 -108q133 -108 133 -236z" />
<glyph unicode="&#xe8;" horiz-adv-x="1671" d="M1503 1462q0 -266 -282 -485t-705 -219q-16 -99 -16 -213q0 -336 233 -336q268 0 492 311q8 13 32 -4q26 -18 43 -43q18 -27 11 -43q-85 -180 -307 -350q-221 -170 -447 -170q-246 0 -403 166q-158 167 -158 387q0 329 182 653q184 327 440 522q259 197 484 197 q210 0 305 -104q96 -105 96 -269zM1106 1442q0 155 -127 155q-140 0 -264 -202q-125 -204 -170 -477q258 0 409 178q152 179 152 346zM1364 2154q0 -28 -41 -63t-61 -35q-11 0 -29 8l-643 451q-49 33 -49 94q0 91 77 168q78 78 177 78q61 0 94 -45l467 -623q8 -8 8 -33z" />
<glyph unicode="&#xe9;" horiz-adv-x="1671" d="M1503 1462q0 -266 -282 -485t-705 -219q-16 -99 -16 -213q0 -336 233 -336q268 0 492 311q8 13 32 -4q26 -18 43 -43q18 -27 11 -43q-85 -180 -307 -350q-221 -170 -447 -170q-246 0 -403 166q-158 167 -158 387q0 329 182 653q184 327 440 522q259 197 484 197 q210 0 305 -104q96 -105 96 -269zM1106 1442q0 155 -127 155q-140 0 -264 -202q-125 -204 -170 -477q258 0 409 178q152 179 152 346zM1925 2621q0 -85 -61 -122l-705 -435q-12 -12 -29 -12q-11 0 -47 31q-34 30 -34 55q0 29 20 45l537 635q33 45 102 45q82 0 150 -78 q67 -77 67 -164z" />
<glyph unicode="&#xea;" horiz-adv-x="1671" d="M1503 1462q0 -266 -282 -485t-705 -219q-16 -99 -16 -213q0 -336 233 -336q268 0 492 311q8 13 32 -4q26 -18 43 -43q18 -27 11 -43q-85 -180 -307 -350q-221 -170 -447 -170q-246 0 -403 166q-158 167 -158 387q0 329 182 653q184 327 440 522q259 197 484 197 q210 0 305 -104q96 -105 96 -269zM1106 1442q0 155 -127 155q-140 0 -264 -202q-125 -204 -170 -477q258 0 409 178q152 179 152 346zM1774 2150q-4 -33 -37 -61q-34 -29 -70 -29q-20 0 -37 17l-327 344l-558 -344q-18 -13 -36 -13q-38 0 -62 27q-21 23 -21 49q0 5 1 10 q0 18 16 41l664 639q24 33 73 33q54 0 66 -33l323 -647q6 -14 6 -24q0 -5 -1 -9z" />
<glyph unicode="&#xeb;" horiz-adv-x="1671" d="M1503 1462q0 -266 -282 -485t-705 -219q-16 -99 -16 -213q0 -336 233 -336q268 0 492 311q8 13 32 -4q26 -18 43 -43q18 -27 11 -43q-85 -180 -307 -350q-221 -170 -447 -170q-246 0 -403 166q-158 167 -158 387q0 329 182 653q184 327 440 522q259 197 484 197 q210 0 305 -104q96 -105 96 -269zM1106 1442q0 155 -127 155q-140 0 -264 -202q-125 -204 -170 -477q258 0 409 178q152 179 152 346zM1905 2400q0 -118 -84 -202t-203 -84t-203 86t-84 200q0 120 84 205q84 86 203 86t203 -86q84 -85 84 -205zM1085 2400q0 -118 -84 -202 t-202 -84q-119 0 -205 84t-86 202q0 119 86 205t205 86q118 0 202 -86q84 -85 84 -205z" />
<glyph unicode="&#xec;" horiz-adv-x="1355" d="M1106 1573q0 -132 -78 -291l-377 -790q-69 -156 -69 -209q0 -41 32 -41q70 0 220 153q151 154 161 154q30 0 54 -33t24 -53q0 -38 -127 -168q-131 -134 -319 -256q-193 -125 -332 -125q-131 0 -197 63q-65 62 -65 170t73 275l418 852q66 128 66 196q0 54 -41 54 q-53 0 -215 -170t-174 -170q-29 0 -56 33q-26 32 -26 53q0 38 123 174q125 139 307 266q184 129 315 129q135 0 209 -72t74 -194zM1126 2154q0 -28 -41 -63t-61 -35q-11 0 -29 8l-643 451q-49 33 -49 94q0 90 78 168t176 78q61 0 94 -45l467 -623q8 -8 8 -33z" />
<glyph unicode="&#xed;" horiz-adv-x="1355" d="M1106 1573q0 -132 -78 -291l-377 -790q-69 -156 -69 -209q0 -41 32 -41q70 0 220 153q151 154 161 154q30 0 54 -33t24 -53q0 -38 -127 -168q-131 -134 -319 -256q-193 -125 -332 -125q-131 0 -197 63q-65 62 -65 170t73 275l418 852q66 128 66 196q0 54 -41 54 q-53 0 -215 -170t-174 -170q-29 0 -56 33q-26 32 -26 53q0 38 123 174q125 139 307 266q184 129 315 129q135 0 209 -72t74 -194zM1642 2621q0 -85 -61 -122l-704 -435q-12 -12 -29 -12q-11 0 -47 31q-35 30 -35 55q0 29 20 45l537 635q33 45 102 45q83 0 150 -78 q67 -77 67 -164z" />
<glyph unicode="&#xee;" horiz-adv-x="1355" d="M1106 1573q0 -132 -78 -291l-377 -790q-69 -156 -69 -209q0 -41 32 -41q70 0 220 153q151 154 161 154q30 0 54 -33t24 -53q0 -38 -127 -168q-131 -134 -319 -256q-193 -125 -332 -125q-131 0 -197 63q-65 62 -65 170t73 275l418 852q66 128 66 196q0 54 -41 54 q-53 0 -215 -170t-174 -170q-29 0 -56 33q-26 32 -26 53q0 38 123 174q125 139 307 266q184 129 315 129q135 0 209 -72t74 -194zM1495 2150q-4 -33 -37 -61q-34 -29 -69 -29q-20 0 -37 17l-328 344l-557 -344q-18 -13 -37 -13q-37 0 -61 27q-22 24 -22 50q0 4 1 9 q0 16 17 41l663 639q24 33 74 33q53 0 65 -33l324 -647q5 -12 5 -22q0 -6 -1 -11z" />
<glyph unicode="&#xef;" horiz-adv-x="1355" d="M1106 1573q0 -132 -78 -291l-377 -790q-69 -156 -69 -209q0 -41 32 -41q70 0 220 153q151 154 161 154q30 0 54 -33t24 -53q0 -38 -127 -168q-131 -134 -319 -256q-193 -125 -332 -125q-131 0 -197 63q-65 62 -65 170t73 275l418 852q66 128 66 196q0 54 -41 54 q-53 0 -215 -170t-174 -170q-29 0 -56 33q-26 32 -26 53q0 38 123 174q125 139 307 266q184 129 315 129q135 0 209 -72t74 -194zM1626 2400q0 -118 -84 -202t-203 -84q-118 0 -202 86t-84 200q0 120 84 205q84 86 202 86q119 0 203 -86q84 -85 84 -205zM807 2400 q0 -118 -84 -202t-203 -84q-120 0 -205 84q-86 84 -86 202q0 119 86 205t205 86t203 -86q84 -85 84 -205z" />
<glyph unicode="&#xf0;" horiz-adv-x="1929" d="M1835 2736q0 -25 -16 -29l-426 -245q352 -463 352 -1123q0 -590 -334 -1015q-335 -426 -813 -426q-266 0 -436 180q-170 181 -170 471q0 475 340 872q341 398 803 398q73 0 135 -21q-38 275 -148 508l-504 -295q-4 -4 -16 -4q-36 0 -74 57q-24 40 -24 82q0 17 16 33 l512 295q-178 276 -446 405q-28 16 0 82q23 53 46 53l11 -3q361 -128 623 -402l454 266h9q7 4 12 4q29 0 74 -61q20 -39 20 -82zM1274 1454q0 106 -31 154q-30 47 -108 47q-140 0 -299 -230q-163 -235 -269 -559q-108 -330 -108 -600q0 -110 33 -157q34 -48 110 -48 q140 0 299 230q160 231 266 559q107 332 107 604z" />
<glyph unicode="&#xf1;" horiz-adv-x="2199" d="M1999 414q0 -74 -264 -289q-265 -215 -469 -215q-262 0 -262 196q0 122 77 312l308 733q57 135 57 221q0 115 -90 115q-119 0 -344 -330q-228 -334 -410 -706l-147 -422q-7 -27 -101 -49q-92 -21 -161 -21q-34 0 -70 4q-43 5 -82 12q-40 7 -68 23q-23 13 -23 26q0 3 1 5 l414 1245q53 145 53 205q0 45 -37 45q-52 0 -174 -140q-121 -139 -137 -139q-29 0 -56 33q-26 32 -26 53q0 42 100 160q101 119 262 231q163 113 293 113q135 0 213 -72t78 -194q0 -89 -41 -209l-90 -250q173 287 414 508q236 217 458 217q128 0 223 -82q97 -83 97 -217 q0 -138 -86 -352l-287 -697q-70 -170 -70 -200q0 -49 37 -49q70 0 193 129t135 129q32 0 57 -31t25 -51zM2101 2712q-52 -279 -164 -392q-100 -101 -252 -101q-17 0 -34 1l-508 25h-19q-119 0 -200 -50q-84 -53 -150 -180q-11 -20 -41 -20q-37 0 -67 24q-24 20 -24 51 q0 7 1 15q69 266 188 403q107 123 291 123q22 0 45 -2l471 -24q20 -1 38 -1q109 0 171 39q75 47 127 158q12 21 45 21q36 0 64 -25q20 -18 20 -46q0 -9 -2 -19z" />
<glyph unicode="&#xf2;" horiz-adv-x="1949" d="M1745 1180q0 -475 -338 -873q-337 -397 -805 -397q-266 0 -436 180q-170 181 -170 471q0 479 338 877q337 397 801 397q266 0 438 -182t172 -473zM1278 1466q0 108 -33 154q-33 47 -110 47q-140 0 -299 -229q-162 -234 -267 -559q-106 -328 -106 -600q0 -205 139 -205 t301 231q161 230 268 561q107 332 107 600zM1393 2154q0 -28 -41 -63t-62 -35q-10 0 -28 8l-644 451q-49 33 -49 94q0 90 78 168t176 78q62 0 95 -45l466 -623q9 -9 9 -33z" />
<glyph unicode="&#xf3;" horiz-adv-x="1949" d="M1745 1180q0 -475 -338 -873q-337 -397 -805 -397q-266 0 -436 180q-170 181 -170 471q0 479 338 877q337 397 801 397q266 0 438 -182t172 -473zM1278 1466q0 108 -33 154q-33 47 -110 47q-140 0 -299 -229q-162 -234 -267 -559q-106 -328 -106 -600q0 -205 139 -205 t301 231q161 230 268 561q107 332 107 600zM2048 2621q0 -85 -61 -122l-705 -435q-12 -12 -29 -12q-11 0 -47 31q-35 30 -35 55q0 28 21 45l537 635q33 45 102 45q81 0 149 -78q68 -79 68 -164z" />
<glyph unicode="&#xf4;" horiz-adv-x="1949" d="M1745 1180q0 -475 -338 -873q-337 -397 -805 -397q-266 0 -436 180q-170 181 -170 471q0 479 338 877q337 397 801 397q266 0 438 -182t172 -473zM1278 1466q0 108 -33 154q-33 47 -110 47q-140 0 -299 -229q-162 -234 -267 -559q-106 -328 -106 -600q0 -205 139 -205 t301 231q161 230 268 561q107 332 107 600zM1855 2150q-5 -34 -36 -61q-34 -29 -70 -29q-20 0 -37 17l-328 344l-557 -344q-18 -13 -36 -13q-38 0 -62 27q-21 23 -21 49q0 5 1 10q0 18 16 41l664 639q24 33 73 33q54 0 66 -33l323 -647q5 -12 5 -22q0 -6 -1 -11z" />
<glyph unicode="&#xf5;" horiz-adv-x="1949" d="M1745 1180q0 -475 -338 -873q-337 -397 -805 -397q-266 0 -436 180q-170 181 -170 471q0 479 338 877q337 397 801 397q266 0 438 -182t172 -473zM1278 1466q0 108 -33 154q-33 47 -110 47q-140 0 -299 -229q-162 -234 -267 -559q-106 -328 -106 -600q0 -205 139 -205 t301 231q161 230 268 561q107 332 107 600zM2044 2712q-52 -279 -164 -392q-100 -101 -253 -101q-17 0 -34 1l-508 25h-19q-119 0 -200 -50q-83 -52 -149 -180q-11 -20 -41 -20q-38 0 -68 24q-24 19 -24 50q0 8 2 16q69 266 188 403q107 123 291 123q22 0 45 -2l471 -24 q20 -1 38 -1q109 0 171 39q75 47 127 158q12 21 45 21q35 0 63 -25q21 -18 21 -48q0 -8 -2 -17z" />
<glyph unicode="&#xf6;" horiz-adv-x="1949" d="M1745 1180q0 -475 -338 -873q-337 -397 -805 -397q-266 0 -436 180q-170 181 -170 471q0 479 338 877q337 397 801 397q266 0 438 -182t172 -473zM1278 1466q0 108 -33 154q-33 47 -110 47q-140 0 -299 -229q-162 -234 -267 -559q-106 -328 -106 -600q0 -205 139 -205 t301 231q161 230 268 561q107 332 107 600zM1987 2400q0 -118 -84 -202t-203 -84t-203 86t-84 200q0 120 84 205q84 86 203 86t203 -86q84 -85 84 -205zM1167 2400q0 -118 -84 -202t-202 -84q-119 0 -205 84t-86 202q0 119 86 205t205 86q118 0 202 -86q84 -85 84 -205z" />
<glyph unicode="&#xf7;" horiz-adv-x="3686" d="M3555 1597q0 -75 -43 -131q-45 -59 -161 -147l-38 -29.5l-30 -23l-28 -21.5l-22 -17t-23 -18.5t-21.5 -17.5l-26 -21l-27 -22.5l-35 -29.5l-40.5 -34q221 -353 221 -532q0 -250 -197 -447q-196 -196 -512 -196q-188 0 -315 84t-127 190q0 83 55 138t133 55q62 0 109 -45 q48 -46 78 -99q30 -52 88 -98q57 -45 131 -45q143 0 143 201q0 32 -12 71q-11 36 -37 91q-21 45 -47 88l-64 102q-44 72 -61 102q-1010 -835 -1286 -835q-132 0 -211 72q-80 72 -80 190q0 100 49 238l103 299q-193 -328 -433 -564q-239 -235 -464 -235q-124 0 -218 82 t-94 221q0 153 82 348l287 701q70 170 70 200q0 49 -33 49q-74 0 -197 -131t-135 -131q-28 0 -55 33t-27 53q0 40 115 160q111 116 295 229q180 111 323 111q262 0 262 -193q0 -125 -77 -315l-308 -729q-61 -143 -61 -221q0 -115 94 -115q119 0 350 340q234 345 412 717 l143 410q7 27 101 49q87 20 157 20q33 0 72 -4q41 -4 86 -12q41 -7 70 -23q26 -15 22 -30l-422 -1254q-53 -161 -53 -205q0 -41 29 -41q147 0 954 660q-94 188 -94 336q0 234 188 422t480 188q170 0 292 -66q121 -66 121 -172zM3138 1364q92 72 92 135q0 27 -17 53 q-56 86 -235 86q-119 0 -119 -127q0 -88 115 -282l90 74q62 49 74 61z" />
<glyph unicode="&#xf8;" horiz-adv-x="1945" d="M1745 1180q0 -475 -338 -873q-337 -397 -805 -397q-167 0 -311 90l-131 -172q-7 -12 -21 -12q-21 0 -57 24q-61 37 -37 70l135 180q-184 172 -184 471q0 479 338 877q337 397 805 397q171 0 299 -86l139 184q9 12 23 12q22 0 55 -24q53 -41 37 -74l-140 -184 q193 -173 193 -483zM1274 1532q-12 135 -139 135q-185 0 -392 -379q-207 -380 -264 -801zM1266 1286l-803 -1057q12 -155 139 -155q190 0 402 395t262 817z" />
<glyph unicode="&#xf9;" horiz-adv-x="2232" d="M2060 1724l-422 -1249q-53 -161 -53 -205q0 -49 41 -49q52 0 174 137q123 138 133 138q32 0 60 -31q26 -29 26 -51q0 -38 -100 -156q-102 -121 -262 -233q-163 -115 -293 -115t-213 72q-82 72 -82 190q0 100 49 238l107 303q-197 -333 -437 -568q-239 -235 -464 -235 q-124 0 -218 84t-94 219q0 136 82 352l291 701q70 170 70 200q0 50 -33 50q-74 0 -199 -136q-125 -135 -133 -135q-28 0 -55 33t-27 53q0 40 115 160q112 117 295 231q181 113 319 113q267 0 267 -193q0 -124 -82 -315l-308 -729q-57 -135 -57 -225q0 -115 90 -115 q119 0 350 340q235 347 412 721l143 405q12 33 103 54q86 20 160 20q33 0 69 -4q48 -5 84 -14q44 -11 70 -25q23 -13 23 -26q0 -3 -1 -5zM1503 2154q0 -28 -41 -63t-61 -35q-11 0 -29 8l-643 451q-49 33 -49 94q0 90 78 168t176 78q61 0 94 -45l467 -623q8 -8 8 -33z" />
<glyph unicode="&#xfa;" horiz-adv-x="2232" d="M2060 1724l-422 -1249q-53 -161 -53 -205q0 -49 41 -49q52 0 174 137q123 138 133 138q32 0 60 -31q26 -29 26 -51q0 -38 -100 -156q-102 -121 -262 -233q-163 -115 -293 -115t-213 72q-82 72 -82 190q0 100 49 238l107 303q-197 -333 -437 -568q-239 -235 -464 -235 q-124 0 -218 84t-94 219q0 136 82 352l291 701q70 170 70 200q0 50 -33 50q-74 0 -199 -136q-125 -135 -133 -135q-28 0 -55 33t-27 53q0 40 115 160q112 117 295 231q181 113 319 113q267 0 267 -193q0 -124 -82 -315l-308 -729q-57 -135 -57 -225q0 -115 90 -115 q119 0 350 340q235 347 412 721l143 405q12 33 103 54q86 20 160 20q33 0 69 -4q48 -5 84 -14q44 -11 70 -25q23 -13 23 -26q0 -3 -1 -5zM2003 2621q0 -85 -61 -122l-705 -435q-12 -12 -29 -12q-11 0 -47 31q-35 30 -35 55q0 28 21 45l536 635q33 45 103 45q82 0 149 -78 q68 -79 68 -164z" />
<glyph unicode="&#xfb;" horiz-adv-x="2232" d="M2060 1724l-422 -1249q-53 -161 -53 -205q0 -49 41 -49q52 0 174 137q123 138 133 138q32 0 60 -31q26 -29 26 -51q0 -38 -100 -156q-102 -121 -262 -233q-163 -115 -293 -115t-213 72q-82 72 -82 190q0 100 49 238l107 303q-197 -333 -437 -568q-239 -235 -464 -235 q-124 0 -218 84t-94 219q0 136 82 352l291 701q70 170 70 200q0 50 -33 50q-74 0 -199 -136q-125 -135 -133 -135q-28 0 -55 33t-27 53q0 40 115 160q112 117 295 231q181 113 319 113q267 0 267 -193q0 -124 -82 -315l-308 -729q-57 -135 -57 -225q0 -115 90 -115 q119 0 350 340q235 347 412 721l143 405q12 33 103 54q86 20 160 20q33 0 69 -4q48 -5 84 -14q44 -11 70 -25q23 -13 23 -26q0 -3 -1 -5zM1917 2150q-4 -33 -37 -61q-34 -29 -70 -29q-19 0 -36 17l-328 344l-557 -344q-23 -13 -37 -13q-37 0 -61 27q-22 24 -22 50q0 4 1 9 q0 18 16 41l664 639q24 33 74 33q53 0 65 -33l324 -647q5 -12 5 -22q0 -6 -1 -11z" />
<glyph unicode="&#xfc;" horiz-adv-x="2232" d="M2060 1724l-422 -1249q-53 -161 -53 -205q0 -49 41 -49q52 0 174 137q123 138 133 138q32 0 60 -31q26 -29 26 -51q0 -38 -100 -156q-102 -121 -262 -233q-163 -115 -293 -115t-213 72q-82 72 -82 190q0 100 49 238l107 303q-197 -333 -437 -568q-239 -235 -464 -235 q-124 0 -218 84t-94 219q0 136 82 352l291 701q70 170 70 200q0 50 -33 50q-74 0 -199 -136q-125 -135 -133 -135q-28 0 -55 33t-27 53q0 40 115 160q112 117 295 231q181 113 319 113q267 0 267 -193q0 -124 -82 -315l-308 -729q-57 -135 -57 -225q0 -115 90 -115 q119 0 350 340q235 347 412 721l143 405q12 33 103 54q86 20 160 20q33 0 69 -4q48 -5 84 -14q44 -11 70 -25q26 -15 22 -31zM2073 2400q0 -118 -84 -202t-203 -84q-115 0 -201 86t-86 200q0 120 84 205q84 86 203 86t203 -86q84 -85 84 -205zM1253 2400q0 -118 -84 -202 t-202 -84q-119 0 -205 84t-86 202q0 119 86 205t205 86q118 0 202 -86q84 -85 84 -205z" />
<glyph unicode="&#xfd;" horiz-adv-x="1990" d="M1839 1716q0 -203 -199 -676q-196 -466 -479 -958q-280 -486 -629 -858q-348 -371 -610 -371q-196 0 -315 86t-119 201q0 106 66 174t180 68q94 0 203 -132q108 -131 186 -131q52 0 129 74q72 69 151 207q77 134 129 356q54 230 54 482q0 369 -37 647q-38 284 -90 420 q-53 137 -111 137q-61 0 -121 -84q-57 -80 -98 -168q-39 -84 -51 -84q-32 0 -70 29q-37 28 -37 49q0 163 197 407t397 244q205 0 342 -293q137 -294 137 -936q0 -236 -8 -385q357 611 447 1446q12 94 61 131t98 37q70 0 134 -35q63 -34 63 -84zM1855 2621q0 -85 -61 -122 l-704 -435q-12 -12 -29 -12q-11 0 -47 31q-35 30 -35 55q0 29 20 45l537 635q33 45 102 45q82 0 150 -78q67 -77 67 -164z" />
<glyph unicode="&#xfe;" horiz-adv-x="2101" d="M1905 1225q0 -307 -154 -613q-153 -305 -416 -503q-264 -199 -549 -199q-220 0 -319 172l-246 -725q-28 -81 -28 -143q0 -78 63 -107q62 -28 190 -49q21 0 21 -33t-21 -74t-40 -41q-457 37 -1106 37q-21 0 -21 58q0 24 21 57t36 33q295 21 377 262l693 2040 q-131 -59 -259 -135q-25 -17 -53 49q-29 74 17 98q175 123 372 213l258 778q9 36 9 63q0 44 -23 70q-39 43 -174 60q-33 0 -33 65q0 62 33 70q139 23 387 94q235 67 358 119q38 29 86 29q41 0 41 -45q0 -47 -28 -107l-348 -1028q139 45 258 45q269 0 434 -154 q164 -153 164 -456zM1384 1307q0 299 -225 299q-77 0 -184 -33l-332 -979q-61 -179 -61 -307q0 -107 55 -158t129 -51q213 0 416 389q202 388 202 840z" />
<glyph unicode="&#xff;" horiz-adv-x="1990" d="M1839 1716q0 -203 -199 -676q-196 -466 -479 -958q-280 -486 -629 -858q-348 -371 -610 -371q-196 0 -315 86t-119 201q0 106 66 174t180 68q94 0 203 -132q108 -131 186 -131q52 0 129 74q72 69 151 207q77 134 129 356q54 230 54 482q0 369 -37 647q-38 284 -90 420 q-53 137 -111 137q-61 0 -121 -84q-57 -80 -98 -168q-39 -84 -51 -84q-32 0 -70 29q-37 28 -37 49q0 163 197 407t397 244q205 0 342 -293q137 -294 137 -936q0 -236 -8 -385q357 611 447 1446q12 94 61 131t98 37q70 0 134 -35q63 -34 63 -84zM1860 2400q0 -118 -84 -202 t-203 -84q-115 0 -201 86t-86 200q0 120 84 205q84 86 203 86t203 -86q84 -85 84 -205zM1040 2400q0 -118 -84 -202t-202 -84q-120 0 -205 84q-86 84 -86 202q0 119 86 205t205 86q118 0 202 -86q84 -85 84 -205z" />
<glyph unicode="&#x152;" horiz-adv-x="4431" d="M4301 2826q-26 -233 -33 -409q-7 -135 -7 -243q0 -71 3 -130q0 -33 -78 -33q-70 0 -70 33q-17 271 -161 432q-145 162 -400 162h-196q-246 0 -299 -242l-205 -868h340q200 0 309 74t191 303q12 32 73 32q28 0 54 -8q24 -8 20 -24l-65 -254l-58 -213q-15 -63 -53 -258 q-34 -172 -57 -275q-5 -33 -74 -33q-74 0 -74 33q10 80 10 146q0 146 -51 215q-73 98 -262 98h-344l-213 -897q-21 -90 -21 -139q0 -164 189 -164h389q278 0 512 192q232 190 315 463q5 17 54 17q31 0 67 -19q35 -18 27 -35q-104 -346 -197 -807q-794 25 -1212 25 q-120 0 -631 -10t-627 -10q-621 0 -968 305q-346 304 -346 829q0 708 544 1210t1299 502q89 0 610 -12t614 -12q656 0 1082 24zM2437 2339q11 48 11 88q0 92 -58 149q-83 82 -371 82q-284 0 -526 -145q-244 -146 -401 -381q-158 -236 -246 -526q-88 -289 -88 -590 q0 -422 186 -647q187 -226 559 -226q233 0 338 72q106 72 146 240z" />
<glyph unicode="&#x153;" horiz-adv-x="2830" d="M2662 1462q0 -266 -282 -485t-705 -219q-16 -99 -16 -213q0 -336 233 -336q268 0 492 311q8 13 33 -4q26 -18 43 -43q18 -26 10 -43q-83 -176 -301 -348t-428 -172q-163 0 -291 86q-126 84 -176 221q-295 -307 -672 -307q-266 0 -436 180q-170 181 -170 471 q0 483 342 879q341 395 784 395q177 0 316 -94t192 -254q146 155 320 252q172 96 311 96q210 0 305 -104q96 -105 96 -269zM2265 1442q0 155 -127 155q-140 0 -262 -200q-124 -202 -164 -479q251 0 402 178t151 346zM1278 1466q0 108 -33 154q-33 47 -110 47 q-140 0 -299 -229q-162 -234 -267 -559q-106 -328 -106 -600q0 -205 139 -205t301 231q161 230 268 561q107 332 107 600z" />
<glyph unicode="&#x178;" horiz-adv-x="3084" d="M2748 3432q0 -123 -90 -213t-213 -90q-127 0 -217 90t-90 213q0 126 90 215q91 89 217 89q122 0 213 -89q90 -89 90 -215zM1794 3432q0 -123 -90 -213t-217 -90q-123 0 -213 90t-90 213q0 126 90 215q91 89 213 89q126 0 217 -89q90 -89 90 -215zM3342 2376v-5 q0 -26 -37 -61q-74 -41 -86 -12q-99 246 -421 246q-336 0 -641 -449q-307 -452 -465 -1124l-119 -500q-21 -95 -21 -139q0 -94 68 -139q70 -46 272 -70q21 0 21 -49q0 -33 -15 -66t-34 -33q-125 0 -375 13q-231 12 -334 12t-332 -12q-249 -13 -352 -13q-25 0 -25 58 q0 24 17 55t33 35q269 28 346 92q76 62 121 256l139 586q107 470 107 781q0 177 -35 304q-96 348 -433 348q-259 0 -495 -278q-25 -25 -82 37q-26 31 -26 52q0 10 5 17q139 233 365 402q225 168 483 168q315 0 535 -265q219 -264 219 -694q0 -42 -8 -164q220 487 522 805 q301 318 588 318q204 0 344 -158q139 -157 151 -354z" />
<glyph unicode="&#x2c6;" d="M1425 2150q-5 -34 -36 -61q-34 -29 -70 -29q-20 0 -37 17l-328 344l-557 -344q-23 -13 -37 -13q-37 0 -61 27q-21 23 -21 49q0 5 1 10q0 18 16 41l663 639q24 33 74 33q54 0 66 -33l323 -647q5 -12 5 -22q0 -6 -1 -11z" />
<glyph unicode="&#x2dc;" d="M1642 2712q-53 -280 -163 -392q-100 -101 -253 -101q-17 0 -34 1l-508 25h-19q-119 0 -200 -50q-84 -53 -150 -180q-11 -20 -41 -20q-37 0 -67 24q-24 20 -24 51q0 7 1 15q69 264 189 403q107 123 291 123q22 0 45 -2l471 -24q20 -1 38 -1q109 0 171 39q75 47 127 158 q12 21 45 21q35 0 63 -25q20 -18 20 -46q0 -9 -2 -19z" />
<glyph unicode="&#x3bc;" horiz-adv-x="4247" d="M4309 1552q0 -126 -72 -204t-182 -78q-94 0 -160 84t-127 84q-131 0 -366 -418q-240 -427 -457 -983q-12 -33 -96 -51q-89 -19 -154 -19q-32 0 -67 4q-20 2 -82 13q-44 8 -70 22q-26 15 -22 31l413 1212q41 125 41 185q0 61 -41 61h-606l-340 -1401q-83 -343 -209 -586 q-128 -247 -282 -382q-158 -138 -318 -199q-163 -62 -342 -62q-417 0 -627 222q-264 -222 -561 -222q-203 0 -354 107q-150 106 -150 242q0 109 68 182q68 72 190 72q86 0 156 -56q69 -56 107 -119q37 -62 90 -118t110 -56q118 0 178 113q60 112 117 383l393 1835 q17 45 -41 45h-327q-33 0 -33 61q0 62 45 70q414 50 438 127q135 498 490 846q353 346 833 346q148 0 293 -57q143 -56 228 -144q267 267 696 267q187 0 311 -95q123 -94 123 -229q0 -111 -78 -195t-192 -84q-76 0 -135 48q-58 47 -86 106q-29 60 -80 107q-52 47 -117 47 q-221 0 -313 -195q-95 -202 -228 -784q-6 -37 -8 -45h827q71 0 158 20q91 21 113 21q86 0 86 -86q0 -49 -29 -127l-160 -426q194 363 361 557q163 188 340 188q136 0 221 -76q86 -77 86 -211zM2073 2355q-159 328 -402 328q-237 0 -358 -205t-256 -786h737l16 61 q77 321 263 602zM1749 1495h-733l-336 -1405q-84 -364 -246 -655q33 -153 168 -238q136 -86 287 -86q174 0 280 101q104 100 170 411z" />
<glyph unicode="&#x2000;" horiz-adv-x="1957" />
<glyph unicode="&#x2001;" horiz-adv-x="3915" />
<glyph unicode="&#x2002;" horiz-adv-x="1957" />
<glyph unicode="&#x2003;" horiz-adv-x="3915" />
<glyph unicode="&#x2004;" horiz-adv-x="1302" />
<glyph unicode="&#x2005;" horiz-adv-x="978" />
<glyph unicode="&#x2006;" horiz-adv-x="651" />
<glyph unicode="&#x2007;" horiz-adv-x="651" />
<glyph unicode="&#x2008;" horiz-adv-x="487" />
<glyph unicode="&#x2009;" horiz-adv-x="782" />
<glyph unicode="&#x200a;" horiz-adv-x="217" />
<glyph unicode="&#x2010;" horiz-adv-x="1449" d="M1163 905q0 -143 -53 -143h-995q-54 0 -54 143q0 144 54 144h995q53 0 53 -144z" />
<glyph unicode="&#x2011;" horiz-adv-x="1449" d="M1163 905q0 -143 -53 -143h-995q-54 0 -54 143q0 144 54 144h995q53 0 53 -144z" />
<glyph unicode="&#x2013;" horiz-adv-x="2080" d="M2007 905q0 -127 -53 -127h-1991q-53 0 -53 127t49 127h1995q53 0 53 -127z" />
<glyph unicode="&#x2014;" horiz-adv-x="4128" d="M3543 905q0 -127 -53 -127h-3015q-53 0 -53 127t49 127h3019q53 0 53 -127z" />
<glyph unicode="&#x2018;" horiz-adv-x="913" d="M1057 2822q0 -12 -119 -84q-123 -75 -236 -192q-116 -120 -116 -252q0 -16 6 -22.5t18 -2.5q11 0 27 4t31 4q82 0 135 -63q53 -64 53 -150q0 -148 -100 -252t-232 -104q-127 0 -205 88q-77 87 -77 223q0 193 102 371q101 177 240 287q134 106 250 174q110 64 157 69 q2 1 5 1q18 0 38 -33q23 -38 23 -66z" />
<glyph unicode="&#x2019;" horiz-adv-x="892" d="M1073 2572q0 -192 -102 -370q-100 -175 -240 -289q-129 -105 -250 -176q-112 -65 -157 -70q-20 0 -43 39q-23 40 -23 63q0 12 117 84t235 193q119 122 119 252q0 28 -24 24q-11 0 -27 -4t-31 -4q-82 0 -135 64t-53 149q0 149 100 250q101 102 232 102q126 0 204 -86 q78 -85 78 -221z" />
<glyph unicode="&#x201a;" horiz-adv-x="1085" d="M610 193q0 -157 -69 -304t-168 -249q-103 -106 -209 -185q-109 -81 -189 -121q-77 -38 -110 -43h-4q-19 0 -39 35q-23 40 -23 64q0 11 74 61l160 109q90 63 160 159q73 100 73 203q0 25 -24 25q-10 0 -25 -4t-29 -4q-87 0 -139 61q-53 62 -53 152q0 148 100 249 q101 103 236 103q122 0 200 -86t78 -225z" />
<glyph unicode="&#x201c;" horiz-adv-x="1720" d="M1860 2822q0 -12 -117 -84q-121 -74 -234 -192q-116 -120 -116 -252q0 -16 6 -22.5t18 -2.5q10 0 25 4t28 4q82 0 138 -63q55 -62 55 -150q0 -148 -100 -252t-236 -104q-123 0 -201 88q-77 87 -77 223q0 193 102 371q101 177 240 287q137 108 249 174q109 64 154 69 q3 1 5 1q22 0 40 -33q21 -38 21 -66zM1057 2822q0 -12 -119 -84q-123 -75 -236 -192q-116 -120 -116 -252q0 -16 6 -22.5t18 -2.5q11 0 27 4t31 4q82 0 135 -63q53 -64 53 -150q0 -148 -100 -252t-232 -104q-127 0 -205 88q-77 87 -77 223q0 193 102 371q101 177 240 287 q134 106 250 174q110 64 157 69q2 1 5 1q18 0 38 -33q23 -38 23 -66z" />
<glyph unicode="&#x201d;" horiz-adv-x="1794" d="M1876 2572q0 -192 -102 -370q-100 -175 -240 -289q-135 -110 -248 -174q-115 -65 -156 -72q-24 0 -45 37q-20 36 -20 65q0 12 117 84q116 71 233 193t117 252q0 29 -25 24q-9 0 -24 -4t-29 -4q-81 0 -137 64q-55 62 -55 149q0 149 100 250q100 102 235 102q123 0 201 -86 q78 -85 78 -221zM1073 2572q0 -192 -102 -370q-100 -175 -240 -289q-129 -105 -250 -176q-112 -65 -157 -70q-20 0 -43 39q-23 40 -23 63q0 12 117 84t235 193q119 122 119 252q0 28 -24 24q-11 0 -27 -4t-31 -4q-82 0 -135 64t-53 149q0 149 100 250q101 102 232 102 q126 0 204 -86q78 -85 78 -221z" />
<glyph unicode="&#x201e;" horiz-adv-x="1966" d="M1413 193q0 -155 -70 -304t-167 -249q-103 -106 -209 -185q-109 -81 -189 -121q-77 -38 -110 -43h-4q-19 0 -39 35q-23 40 -23 64q0 11 74 61l160 109q88 62 159 159q74 101 74 203q0 25 -25 25q-9 0 -24 -4t-29 -4q-87 0 -139 61q-53 62 -53 152q0 148 100 249 q101 103 236 103q122 0 200 -86t78 -225zM610 193q0 -157 -69 -304t-168 -249q-103 -106 -209 -185q-109 -81 -189 -121q-77 -38 -110 -43h-4q-19 0 -39 35q-23 40 -23 64q0 11 74 61l160 109q90 63 160 159q73 100 73 203q0 25 -24 25q-10 0 -25 -4t-29 -4q-87 0 -139 61 q-53 62 -53 152q0 148 100 249q101 103 236 103q122 0 200 -86t78 -225z" />
<glyph unicode="&#x2022;" horiz-adv-x="1482" d="M1368 1413q0 -250 -178 -428t-428 -178q-255 0 -430 178q-176 179 -176 428q0 251 178 426q179 176 428 176t428 -176q178 -175 178 -426z" />
<glyph unicode="&#x2026;" horiz-adv-x="3276" d="M2773 209q0 -118 -86 -207q-85 -88 -205 -88q-124 0 -209 88q-86 89 -86 207t86 207q85 88 209 88q120 0 205 -88q86 -89 86 -207zM1688 209q0 -118 -89 -207q-88 -88 -206 -88q-119 0 -207 88t-88 207t88 207t207 88q118 0 206 -88q89 -89 89 -207zM598 209 q0 -118 -86 -207q-85 -88 -205 -88q-119 0 -207 88t-88 207t88 207t207 88q120 0 205 -88q86 -89 86 -207z" />
<glyph unicode="&#x202f;" horiz-adv-x="782" />
<glyph unicode="&#x2039;" horiz-adv-x="1044" d="M905 1462l-438 -610l156 -610q8 -29 -31 -68t-68 -39q-16 0 -20 4l-467 688q-12 7 -12 33q0 29 20 49l758 652q18 8 20 8q24 0 62 -41q25 -27 25 -49q0 -9 -5 -17z" />
<glyph unicode="&#x203a;" horiz-adv-x="1036" d="M774 844q0 -33 -20 -53l-762 -652q-8 -8 -21 -8q-23 0 -61 41q-24 26 -24 47q0 13 8 23l438 610l-160 610q-4 28 35 66q38 37 67 37q13 0 17 -4l471 -689q12 -12 12 -28z" />
<glyph unicode="&#x2044;" horiz-adv-x="188" d="M1053 2843l-1913 -2929q-11 -19 -30 -19q-23 0 -56 27q-51 28 -51 55q0 9 6 19l1917 2933q10 14 28 14q23 0 58 -23q46 -30 46 -58q0 -10 -5 -19z" />
<glyph unicode="&#x205f;" horiz-adv-x="978" />
<glyph unicode="&#x2122;" horiz-adv-x="4456" d="M4293 1270q0 -53 -17 -53q-73 0 -217 8t-209 8q-66 0 -205 -8t-208 -8q-21 0 -21 53q0 50 16 57q145 21 175 68q24 37 24 130q0 24 -2 52l-45 844l-496 -1229q-17 -25 -65 -25q-58 0 -66 25l-503 1208l-62 -823q-1 -21 -1 -40q0 -96 32 -138q39 -51 194 -72q21 -7 21 -57 q0 -53 -25 -53q-55 0 -162 8t-157 8t-168 -8t-164 -8q-16 0 -16 53q0 50 20 57q165 21 211 70q48 51 55 180l86 885q1 16 1 31q0 91 -40 143q-46 59 -182 76q-16 7 -16 57q0 53 24 53q47 0 158 -10t154 -10q42 0 149 10t162 10l438 -1053l430 1049q16 1 37 1q50 0 129 -7 q107 -10 146 -10q54 0 151 10t152 10q20 0 20 -53q0 -50 -16 -57q-131 -17 -170 -62q-32 -37 -32 -124q0 -17 1 -36l49 -913q5 -79 10 -109q6 -34 27 -69q21 -34 59 -49q41 -16 113 -23q21 -7 21 -57zM1925 2281q1 -2 1 -4q0 -9 -15 -18q-17 -10 -47 -10q-38 0 -45 16 q-130 418 -426 418q-65 0 -90 -25t-25 -90v-991q0 -135 41 -182t197 -68q16 -7 16 -57q0 -53 -16 -53q-70 0 -220 8t-235 8q-86 0 -236 -8t-219 -8q-20 0 -20 53q0 50 20 57q156 21 195 68t39 182v991q0 65 -23 90t-88 25q-138 0 -272 -125t-191 -293q-4 -16 -41 -16 q-26 0 -47 10q-19 9 -19 18q0 2 1 4q46 172 119 562q223 -41 782 -41q567 0 799 41q22 -289 65 -562z" />
</font>
</defs>
</svg>
